<svg width="27" height="28" viewBox="0 0 27 28" fill="none" xmlns="http://www.w3.org/2000/svg">
<path d="M17.1898 1.32263C18.2913 1.62563 19.3492 2.06943 20.3372 2.64304C21.3101 3.21007 22.2056 3.90065 23.0012 4.69757C23.7974 5.49309 24.4899 6.38596 25.0624 7.355C26.2408 9.36803 26.8619 11.6585 26.8619 13.9911C26.8619 16.3237 26.2408 18.6142 25.0624 20.6272C23.9144 22.5782 22.2881 24.2044 20.3372 25.3525C18.319 26.5348 16.021 27.1554 13.682 27.1495C11.3546 27.1539 9.06881 26.5333 7.06329 25.3525C6.09473 24.78 5.2024 24.0875 4.40752 23.2913C3.61047 22.4957 2.91988 21.6003 2.35299 20.6272C1.77938 19.6392 1.33558 18.5813 1.03258 17.4798C0.7174 16.3373 0.55927 15.1572 0.56255 13.972C0.55977 12.7945 0.717911 11.6221 1.03258 10.4874C1.63632 8.29724 2.79826 6.30126 4.40474 4.69478C6.01121 3.08831 8.00719 1.92636 10.1974 1.32263C11.332 1.00759 12.5044 0.849442 13.682 0.852597C14.8672 0.849069 16.0473 1.0072 17.1898 1.32263ZM10.6923 3.09647C8.80719 3.61461 7.08902 4.61374 5.70628 5.99589C4.32355 7.37804 3.3237 9.09579 2.80476 10.9807C2.53602 11.9544 2.40136 12.9602 2.40448 13.9703C2.4012 14.9888 2.53642 16.0029 2.80642 16.9849C3.06771 17.9345 3.45009 18.8467 3.94413 19.6988C4.4318 20.5344 5.0252 21.3037 5.70966 21.9875C6.39611 22.6741 7.16616 23.2718 8.0017 23.7663C9.30258 24.5244 10.7415 25.0156 12.2344 25.2112C13.7273 25.4069 15.2442 25.303 16.6965 24.9057C18.5896 24.3851 20.3141 23.3792 21.6991 21.9875C22.386 21.3005 22.9832 20.5292 23.4762 19.6921C24.4924 17.9568 25.0257 15.9813 25.0209 13.9703C25.0239 11.973 24.4911 10.0114 23.4779 8.29008C22.984 7.45456 22.3869 6.6845 21.7008 5.99805C21.016 5.31329 20.2456 4.71987 19.4087 4.23252C18.557 3.73895 17.6455 3.3566 16.6965 3.0948C15.7145 2.82503 14.7004 2.68982 13.682 2.69287C12.6717 2.69097 11.6659 2.82675 10.6923 3.09647ZM15.4093 19.8632V8.97105H13.0575L9.47325 11.6019L10.8119 13.4339L12.8415 11.8643V19.8632H15.4093Z" fill="#0066FF"/>
</svg>
