<svg width="27" height="27" viewBox="0 0 27 27" fill="none" xmlns="http://www.w3.org/2000/svg">
<path d="M17.1898 0.820677C18.2913 1.12368 19.3492 1.56747 20.3372 2.14109C21.3101 2.70811 22.2056 3.39869 23.0012 4.19561C23.7974 4.99114 24.4899 5.88401 25.0624 6.85305C26.2408 8.86608 26.8619 11.1566 26.8619 13.4892C26.8619 15.8217 26.2408 18.1122 25.0624 20.1253C23.9144 22.0762 22.2881 23.7025 20.3372 24.8505C18.319 26.0329 16.021 26.6534 13.682 26.6476C11.3546 26.652 9.06881 26.0313 7.06329 24.8505C6.09473 24.2781 5.2024 23.5855 4.40752 22.7893C3.61047 21.9938 2.91988 21.0983 2.35299 20.1253C1.77938 19.1373 1.33558 18.0794 1.03258 16.9779C0.7174 15.8353 0.55927 14.6552 0.56255 13.47C0.55977 12.2925 0.717911 11.1202 1.03258 9.98549C1.63632 7.79528 2.79826 5.7993 4.40474 4.19283C6.01121 2.58636 8.00719 1.42441 10.1974 0.820677C11.332 0.505636 12.5044 0.347489 13.682 0.350644C14.8672 0.347115 16.0473 0.50525 17.1898 0.820677ZM10.6923 2.59451C8.80719 3.11266 7.08902 4.11178 5.70628 5.49394C4.32355 6.87609 3.3237 8.59384 2.80476 10.4788C2.53602 11.4525 2.40136 12.4583 2.40448 13.4684C2.4012 14.4868 2.53642 15.5009 2.80642 16.4829C3.06773 17.4326 3.45011 18.3447 3.94413 19.1968C4.4318 20.0324 5.0252 20.8017 5.70966 21.4855C6.39611 22.1722 7.16616 22.7698 8.0017 23.2643C9.30258 24.0224 10.7415 24.5136 12.2344 24.7093C13.7273 24.9049 15.2442 24.801 16.6965 24.4037C18.5896 23.8831 20.3141 22.8772 21.6991 21.4855C22.3861 20.7985 22.9832 20.0273 23.4762 19.1902C24.4924 17.4549 25.0257 15.4793 25.0209 13.4684C25.0239 11.471 24.4911 9.50944 23.4779 7.78813C22.984 6.95261 22.3869 6.18255 21.7008 5.4961C21.016 4.81134 20.2456 4.21792 19.4087 3.73056C18.557 3.23701 17.6455 2.85466 16.6965 2.59285C15.7145 2.32308 14.7004 2.18786 13.682 2.19091C12.6717 2.18902 11.6659 2.3248 10.6923 2.59451ZM17.6282 19.3612V17.1157H13.1804L15.7049 14.8685C15.9507 14.6437 16.1888 14.4157 16.4191 14.1842C16.6482 13.9563 16.8546 13.7065 17.0353 13.4385C17.2158 13.1698 17.3583 12.8775 17.4588 12.5698C17.5654 12.2286 17.617 11.8726 17.6116 11.5152C17.6235 11.0034 17.51 10.4965 17.2811 10.0386C17.0689 9.62792 16.7669 9.27028 16.3975 8.99228C16.0184 8.71108 15.5904 8.50271 15.1352 8.37775C14.6595 8.24433 14.1677 8.17726 13.6737 8.17844C13.1591 8.17542 12.6475 8.2562 12.1589 8.41761C11.6965 8.56988 11.2663 8.80638 10.89 9.11518C10.5182 9.42318 10.2077 9.79844 9.97484 10.2213C9.72647 10.6788 9.5723 11.1815 9.52142 11.6995L11.9978 12.0384C12.0273 11.5996 12.1974 11.182 12.4828 10.8475C12.7459 10.574 13.1038 10.4117 13.4829 10.3941C13.862 10.3765 14.2334 10.5049 14.5207 10.7528C14.6444 10.8765 14.741 11.0245 14.8045 11.1874C14.868 11.3504 14.8969 11.5248 14.8894 11.6995C14.893 12.013 14.8078 12.3211 14.6436 12.5881C14.4623 12.8757 14.2452 13.1391 13.9975 13.3721L9.75228 17.2104V19.3612H17.6282Z" fill="#0066FF"/>
</svg>
