<svg width="27" height="28" viewBox="0 0 27 28" fill="none" xmlns="http://www.w3.org/2000/svg">
<path d="M17.1951 1.32066C19.3908 1.92922 21.3916 3.09571 23.0028 4.70666C24.6141 6.31761 25.7809 8.31817 26.3899 10.5137C27.0165 12.8001 27.0165 15.213 26.3899 17.4994C25.7849 19.6939 24.6169 21.6921 23.0016 23.296C22.2028 24.0899 21.3072 24.7802 20.3359 25.3505C19.3516 25.9278 18.2964 26.3744 17.1968 26.6792C14.9098 27.3054 12.4965 27.3054 10.2094 26.6792C8.01737 26.0714 6.01998 24.9065 4.41163 23.2978C2.80327 21.6892 1.63873 19.6916 1.03132 17.4994C0.406225 15.2106 0.406225 12.7959 1.03132 10.5071C1.33697 9.40935 1.78359 8.35587 2.36004 7.37296C2.9297 6.40323 3.61943 5.50925 4.4129 4.71221C5.62992 3.48515 7.07847 2.51196 8.67452 1.84907C10.2706 1.18619 11.9824 0.846812 13.7106 0.850629C14.8881 0.847599 16.0605 1.00574 17.1951 1.32066ZM10.706 3.09284C8.81748 3.61229 7.09789 4.61725 5.71837 6.00771C5.03377 6.69675 4.43839 7.46901 3.94619 8.30638C3.4506 9.15246 3.06652 10.0591 2.8035 11.0037C2.26826 12.9681 2.26826 15.04 2.8035 17.0045C3.06548 17.951 3.4496 18.8594 3.94619 19.7068C5.43679 22.2536 7.86191 24.1186 10.706 24.9054C12.6682 25.4406 14.738 25.4406 16.7002 24.9054C17.647 24.6427 18.5559 24.2586 19.4041 23.7627C20.2413 23.2701 21.0135 22.6748 21.7028 21.9905C23.0924 20.6112 24.0967 18.8922 24.616 17.0045C25.1524 15.0419 25.1524 12.9713 24.616 11.0087C24.3542 10.0623 23.9706 9.154 23.475 8.30638C22.4851 6.62524 21.0836 5.22373 19.4025 4.23387C18.5548 3.73835 17.6465 3.35481 16.7002 3.09284C14.7376 2.55648 12.6687 2.55648 10.706 3.09284ZM17.6652 15.8286C17.5639 15.5601 17.4179 15.3108 17.2333 15.0911C17.0448 14.8677 16.8216 14.6759 16.5723 14.5231C16.3113 14.3626 16.0257 14.2459 15.7269 14.1776V14.1295C16.2434 13.9969 16.7042 13.703 17.0423 13.2907C17.3916 12.8576 17.5742 12.3138 17.5572 11.7577C17.5691 11.282 17.4551 10.8116 17.2267 10.3941C17.0105 10.0138 16.7141 9.68504 16.3581 9.43081C15.988 9.16878 15.574 8.97526 15.1356 8.85946C14.6763 8.73682 14.2027 8.67538 13.7272 8.67676C13.2801 8.67599 12.8349 8.7352 12.4035 8.85282C11.9826 8.96668 11.5812 9.14304 11.2126 9.376C10.8494 9.60548 10.529 9.89664 10.2659 10.2363C9.99072 10.5974 9.78719 11.0079 9.66631 11.4455L12.0663 11.9986C12.1354 11.6507 12.3233 11.3378 12.5978 11.1133C12.8688 10.8934 13.2088 10.7763 13.5578 10.7828C13.9012 10.7782 14.2364 10.8874 14.5111 11.0934C14.6486 11.1974 14.7583 11.3336 14.8307 11.49C14.9031 11.6464 14.936 11.8182 14.9264 11.9902C14.9417 12.2035 14.8938 12.4165 14.7886 12.6027C14.6834 12.7888 14.5257 12.9397 14.3351 13.0366C14.1454 13.1374 13.9398 13.2048 13.7272 13.2359C13.4932 13.2728 13.2566 13.2911 13.0197 13.2907H12.2656V15.1675H12.9582C13.226 15.1679 13.4933 15.1912 13.7571 15.2373C14.0054 15.2769 14.2463 15.3542 14.4713 15.4665C14.6752 15.5678 14.8505 15.7185 14.9812 15.905C15.1149 16.1105 15.1817 16.3525 15.1722 16.5976C15.1801 16.8217 15.1304 17.0442 15.0277 17.2437C14.9369 17.4104 14.8104 17.555 14.6573 17.6672C14.5043 17.7765 14.3326 17.857 14.1507 17.9047C13.9673 17.9556 13.778 17.9818 13.5877 17.9828C13.1466 17.9999 12.7146 17.8545 12.3736 17.5742C12.0729 17.3291 11.853 16.9992 11.7424 16.6275L9.34244 17.2586C9.58161 18.184 10.176 18.9777 10.9967 19.4676C11.3937 19.7034 11.8244 19.8771 12.2739 19.9825C12.745 20.0954 13.2278 20.1517 13.7123 20.1502C14.2138 20.1506 14.713 20.0813 15.1954 19.9443C15.6676 19.813 16.113 19.5993 16.5109 19.3131C16.9024 19.0297 17.2258 18.6626 17.4576 18.2385C17.7085 17.7632 17.8332 17.2313 17.8196 16.6939C17.8214 16.3979 17.7691 16.1057 17.6652 15.8286Z" fill="#0066FF"/>
</svg>
