<svg width="21" height="21" viewBox="0 0 21 21" fill="none" xmlns="http://www.w3.org/2000/svg">
<path d="M15.1094 7.20215C15.1094 5.87607 14.5826 4.6043 13.6449 3.66661C12.7072 2.72893 11.4355 2.20215 10.1094 2.20215C8.78329 2.20215 7.51152 2.72893 6.57384 3.66661C5.63616 4.6043 5.10937 5.87607 5.10937 7.20215C5.10937 13.0355 2.60938 14.7021 2.60938 14.7021H17.6094C17.6094 14.7021 15.1094 13.0355 15.1094 7.20215Z" stroke="#80868C" stroke-linecap="round" stroke-linejoin="round"/>
<path d="M11.5513 18.0352C11.4048 18.2877 11.1945 18.4974 10.9415 18.6431C10.6885 18.7888 10.4016 18.8655 10.1096 18.8655C9.81765 18.8655 9.53079 18.7888 9.27778 18.6431C9.02477 18.4974 8.81448 18.2877 8.66797 18.0352" stroke="#80868C" stroke-width="2" stroke-linecap="round" stroke-linejoin="round"/>
</svg>
