<svg width="16" height="15" viewBox="0 0 16 15" fill="none" xmlns="http://www.w3.org/2000/svg">
<g clip-path="url(#clip0_1418_48020)">
<path d="M14.8174 9.30512C13.8214 13.3003 9.7749 15.7317 5.77923 14.7354C1.78524 13.7394 -0.646159 9.69268 0.350298 5.69781C1.34588 1.70218 5.39237 -0.729405 9.3868 0.266615C13.3822 1.26263 15.8134 5.30981 14.8173 9.30519L14.8174 9.30512H14.8174Z" fill="#F7931A"/>
<path d="M10.8724 6.43808C11.0209 5.44564 10.2653 4.91216 9.23207 4.55628L9.56725 3.21192L8.7489 3.008L8.42262 4.31697C8.20747 4.26331 7.98654 4.21275 7.76695 4.16263L8.0956 2.84503L7.27776 2.64111L6.9424 3.98503C6.76437 3.9445 6.58951 3.90444 6.41986 3.86223L6.42081 3.858L5.29228 3.57619L5.07459 4.45024C5.07459 4.45024 5.68174 4.58941 5.66894 4.59798C6.00033 4.68069 6.06026 4.90006 6.05031 5.07393L5.66851 6.60547C5.69133 6.61127 5.72092 6.61965 5.75359 6.63278C5.72628 6.62599 5.69723 6.6186 5.66708 6.61138L5.13193 8.75684C5.09143 8.85753 4.98864 9.00862 4.75695 8.95124C4.76515 8.96313 4.16216 8.80281 4.16216 8.80281L3.75586 9.73956L4.82081 10.005C5.01893 10.0547 5.21307 10.1067 5.40426 10.1556L5.06562 11.5154L5.88303 11.7193L6.21839 10.3739C6.44169 10.4346 6.6584 10.4905 6.87055 10.5432L6.53632 11.8822L7.35471 12.0861L7.69332 10.7289C9.08878 10.993 10.1381 10.8865 10.5797 9.6243C10.9356 8.60808 10.562 8.02193 9.82785 7.63969C10.3626 7.51638 10.7653 7.16469 10.8727 6.43819L10.8725 6.43801L10.8724 6.43808ZM9.00268 9.05994C8.74977 10.0762 7.03878 9.52682 6.48405 9.38907L6.93343 7.5876C7.48813 7.72609 9.26699 8.00013 9.00272 9.05994H9.00268ZM9.25577 6.42336C9.02506 7.34771 7.60098 6.8781 7.13902 6.76295L7.54645 5.12912C8.00841 5.24427 9.4961 5.4592 9.25584 6.42336H9.25577Z" fill="white"/>
</g>
<defs>
<clipPath id="clip0_1418_48020">
<rect width="14.9136" height="14.9153" fill="white" transform="translate(0.128906 0.0424805)"/>
</clipPath>
</defs>
</svg>
