<svg width="79" height="98" viewBox="0 0 79 98" fill="none" xmlns="http://www.w3.org/2000/svg">
<path d="M15.3428 8.45846V58.107H22.7754V1.39648H22.4169C20.5484 1.42119 18.7634 2.17315 17.4421 3.49221C16.1208 4.81127 15.3675 6.59319 15.3428 8.45846Z" fill="#348FE5"/>
<path d="M11.806 48.8739C11.2086 50.0906 11.9494 54.9338 11.806 56.747C11.5793 57.5796 11.2502 58.381 10.8262 59.1328L19.0714 60.3496L15.3431 47.2754C15.3431 47.2754 12.3796 47.6333 11.806 48.8739Z" fill="#348FE5"/>
<path d="M26.3125 45.8431V35.441L29.6344 33.3415V29.7866L28.6785 27.8541L29.6344 26.0886V24.3231L23.7553 20.4581V16.9272L28.2722 10.056V6.52506L22.7754 2.11133V58.1538L31.0206 59.2274V48.8492L28.8458 45.8431H26.3125Z" fill="#2B77BF"/>
<path d="M20.8162 56.3662C16.7852 56.3709 12.8462 57.5685 9.49686 59.8076C6.14755 62.0466 3.53835 65.2266 1.99905 68.9457C0.459748 72.6647 0.0594457 76.7559 0.84874 80.702C1.63803 84.6481 3.58149 88.272 6.43347 91.1158C9.28545 93.9595 12.9179 95.8954 16.8718 96.6787C20.8256 97.462 24.9233 97.0576 28.647 95.5166C32.3706 93.9756 35.5531 91.3671 37.792 88.021C40.031 84.6748 41.226 80.7411 41.2261 76.7171C41.2261 74.0426 40.698 71.3943 39.672 68.9237C38.646 66.453 37.1422 64.2085 35.2467 62.3184C33.3511 60.4284 31.101 58.9298 28.6249 57.9085C26.1488 56.8872 23.4953 56.3631 20.8162 56.3662ZM20.8162 89.7675C19.3981 89.7675 18.0119 89.3477 16.8329 88.5612C15.6538 87.7747 14.7349 86.6569 14.1922 85.3491C13.6495 84.0412 13.5076 82.6021 13.7842 81.2137C14.0608 79.8253 14.7437 78.55 15.7464 77.549C16.7491 76.548 18.0266 75.8663 19.4174 75.5902C20.8082 75.314 22.2498 75.4557 23.5599 75.9975C24.87 76.5392 25.9898 77.4566 26.7776 78.6336C27.5654 79.8106 27.9859 81.1944 27.9859 82.6101C27.9954 83.556 27.8169 84.4944 27.4609 85.3711C27.1048 86.2477 26.5782 87.0452 25.9115 87.7174C25.2448 88.3897 24.4512 88.9233 23.5766 89.2874C22.702 89.6516 21.7638 89.8391 20.8162 89.839V89.7675Z" fill="#348FE5"/>
<path d="M20.8159 57.9395C17.0902 57.9395 13.4482 59.0427 10.3506 61.1095C7.25314 63.1763 4.83934 66.1139 3.41466 69.5506C1.98997 72.9873 1.61842 76.7686 2.34702 80.4161C3.07562 84.0636 4.87162 87.4134 7.50778 90.0417C10.144 92.67 13.5018 94.4587 17.1565 95.1814C20.8113 95.9041 24.5986 95.5284 28.0394 94.1018C31.4802 92.6752 34.4197 90.2618 36.4862 87.167C38.5527 84.0722 39.6532 80.435 39.6484 76.7157C39.6421 71.7337 37.6552 66.958 34.1241 63.4374C30.593 59.9169 25.8065 57.9394 20.8159 57.9395ZM20.8159 91.3407C19.066 91.3407 17.3554 90.8223 15.9007 89.8513C14.446 88.8803 13.3127 87.5002 12.6441 85.8858C11.9755 84.2714 11.8018 82.4953 12.1449 80.7823C12.4881 79.0693 13.3326 77.4964 14.5717 76.2628C15.8108 75.0292 17.3886 74.1904 19.1055 73.8525C20.8224 73.5146 22.6011 73.6928 24.2165 74.3646C25.8318 75.0364 27.2112 76.1715 28.18 77.6263C29.1487 79.0811 29.6633 80.7902 29.6586 82.5371C29.6776 83.7083 29.463 84.8716 29.0271 85.9592C28.5912 87.0468 27.9429 88.0369 27.1199 88.8718C26.2969 89.7067 25.3156 90.3698 24.2333 90.8223C23.151 91.2749 21.9893 91.5078 20.8159 91.5077V91.3407Z" fill="#2B77BF"/>
<g style="mix-blend-mode:multiply">
<path d="M20.8155 57.9404C15.829 57.9467 11.0487 59.927 7.52274 63.4468C3.99681 66.9667 2.01316 71.7389 2.00684 76.7167C2.00684 76.9314 2.00684 77.1461 2.00684 77.3609C2.18049 72.5 4.23687 67.8962 7.74296 64.5187C11.249 61.1412 15.9312 59.2538 20.8035 59.2538C25.6758 59.2538 30.358 61.1412 33.8641 64.5187C37.3702 67.8962 39.4265 72.5 39.6002 77.3609C39.6002 77.1461 39.6002 76.9314 39.6002 76.7167C39.5939 71.743 37.6135 66.9744 34.0928 63.4552C30.572 59.9361 25.7977 57.953 20.8155 57.9404Z" fill="#BDB5B3"/>
<path d="M20.8154 91.509C18.5899 91.5034 16.4483 90.6602 14.8181 89.1478C13.1879 87.6354 12.1889 85.5649 12.0205 83.3496C12.0205 83.5643 12.0205 83.779 12.0205 83.9938C12.1383 86.2525 13.12 88.3799 14.7632 89.9371C16.4063 91.4943 18.5856 92.3625 20.8512 92.3625C23.1169 92.3625 25.2961 91.4943 26.9393 89.9371C28.5825 88.3799 29.5642 86.2525 29.682 83.9938C29.6938 83.7792 29.6938 83.5642 29.682 83.3496C29.5182 85.5793 28.5107 87.6633 26.8641 89.1787C25.2174 90.694 23.0549 91.5272 20.8154 91.509Z" fill="#BDB5B3"/>
</g>
<g style="mix-blend-mode:multiply">
<path d="M22.7754 56.4599L23.6836 56.5553V2.82707L22.7754 2.11133V56.4599Z" fill="#BDB5B3"/>
</g>
<path d="M55.9482 97.6397H56.2828C58.1844 97.6397 60.008 96.8856 61.3526 95.5434C62.6972 94.2011 63.4526 92.3806 63.4526 90.4823V39.9033H55.9482V97.6397Z" fill="#EC6D00"/>
<path d="M67.921 39.0206L59.6758 37.6846L63.404 52.1425C63.404 52.1425 66.3197 51.7369 66.9172 50.377C67.5147 49.0171 66.7977 43.6491 66.9172 41.645C67.1486 40.7343 67.4854 39.8535 67.921 39.0206Z" fill="#EC6D00"/>
<path d="M47.7021 49.3748L49.877 52.4286H52.4342V62.9977L49.1122 67.483V71.1094L51.8367 72.9226L49.1122 74.8551V76.6445L54.9675 81.9171V85.4958L50.4744 88.8359V92.4385L55.9474 97.6395V39.9031L47.7021 38.8057V49.3748Z" fill="#EC6D00"/>
<path d="M57.9308 0.84767C53.8921 0.842952 49.9428 2.0345 46.5827 4.27149C43.2227 6.50848 40.603 9.69034 39.0553 13.4143C37.5075 17.1383 37.1013 21.2369 37.8881 25.1915C38.6748 29.146 40.6192 32.7786 43.475 35.6295C46.3308 38.4804 49.9697 40.4214 53.931 41.2068C57.8924 41.9922 61.9981 41.5867 65.7285 40.0417C69.4589 38.4966 72.6462 35.8814 74.8871 32.5271C77.1279 29.1729 78.3215 25.2303 78.3168 21.1986C78.3168 15.8012 76.169 10.6248 72.3459 6.80831C68.5228 2.99178 63.3375 0.84767 57.9308 0.84767ZM57.9308 22.5823C56.5128 22.5823 55.1266 22.1626 53.9475 21.3761C52.7685 20.5896 51.8495 19.4718 51.3069 18.1639C50.7642 16.8561 50.6222 15.417 50.8989 14.0286C51.1755 12.6402 51.8584 11.3649 52.8611 10.3639C53.8638 9.36289 55.1413 8.68121 56.5321 8.40504C57.9229 8.12887 59.3645 8.27061 60.6746 8.81234C61.9847 9.35407 63.1044 10.2715 63.8923 11.4485C64.6801 12.6255 65.1006 14.0093 65.1006 15.4249C65.1006 17.3232 64.3452 19.1437 63.0006 20.486C61.656 21.8282 59.8324 22.5823 57.9308 22.5823Z" fill="#EC6D00"/>
<path d="M57.9316 2.42189C54.2049 2.41717 50.5605 3.51637 47.4598 5.58034C44.3592 7.64431 41.9417 10.5802 40.5133 14.0165C39.085 17.4527 38.71 21.2348 39.4359 24.8839C40.1618 28.533 41.9559 31.885 44.5911 34.5157C47.2263 37.1464 50.5842 38.9374 54.2395 39.662C57.8949 40.3867 61.6835 40.0124 65.1257 38.5865C68.5678 37.1606 71.5088 34.7472 73.5764 31.6519C75.6439 28.5566 76.745 24.9185 76.7402 21.1982C76.7339 16.2203 74.7503 11.4482 71.2243 7.9283C67.6984 4.40844 62.918 2.4282 57.9316 2.42189ZM57.9316 24.1327C56.1874 24.1327 54.4824 23.6164 53.0322 22.649C51.5819 21.6817 50.4516 20.3067 49.7841 18.6981C49.1166 17.0894 48.942 15.3193 49.2823 13.6116C49.6226 11.9038 50.4625 10.3352 51.6958 9.10399C52.9291 7.87278 54.5005 7.03432 56.2112 6.69463C57.9218 6.35494 59.695 6.52928 61.3064 7.19561C62.9178 7.86193 64.2951 8.99031 65.2642 10.4381C66.2332 11.8858 66.7504 13.5879 66.7504 15.3291C66.7441 17.662 65.813 19.8976 64.1605 21.5472C62.508 23.1968 60.2686 24.1264 57.9316 24.1327Z" fill="#CE5900"/>
<path d="M59.7483 42.1934H59.6049C58.615 42.1934 57.8125 42.9945 57.8125 43.9827V91.0069C57.8125 91.9951 58.615 92.7962 59.6049 92.7962H59.7483C60.7383 92.7962 61.5408 91.9951 61.5408 91.0069V43.9827C61.5408 42.9945 60.7383 42.1934 59.7483 42.1934Z" fill="#CE5900"/>
<g style="mix-blend-mode:multiply">
<path d="M57.9321 2.42285C52.9416 2.42285 48.1551 4.40029 44.624 7.92084C41.0929 11.4414 39.1059 16.2171 39.0996 21.1991C39.0996 21.3423 39.0996 21.4616 39.0996 21.6047C39.2733 16.7439 41.3296 12.14 44.8357 8.76255C48.3418 5.38509 53.024 3.49763 57.8963 3.49763C62.7686 3.49763 67.4508 5.38509 70.9568 8.76255C74.4629 12.14 76.5193 16.7439 76.693 21.6047C76.693 21.4616 76.693 21.3423 76.693 21.1991C76.6867 16.2295 74.7096 11.4646 71.194 7.94607C67.6784 4.42756 62.9103 2.44177 57.9321 2.42285Z" fill="#BDB5B3"/>
<path d="M57.9321 24.1328C55.6597 24.1291 53.476 23.2522 51.834 21.6841C50.192 20.116 49.2177 17.977 49.1133 15.7109C49.1133 15.8541 49.1133 15.9734 49.1133 16.1165C49.231 18.3752 50.2128 20.5027 51.8559 22.0599C53.4991 23.6171 55.6783 24.4852 57.944 24.4852C60.2097 24.4852 62.3889 23.6171 64.0321 22.0599C65.6753 20.5027 66.657 18.3752 66.7747 16.1165C66.7747 15.9734 66.7747 15.8541 66.7747 15.7109C66.676 17.9831 65.7002 20.129 64.0518 21.699C62.4034 23.2689 60.2103 24.1411 57.9321 24.1328Z" fill="#BDB5B3"/>
</g>
<g style="mix-blend-mode:multiply">
<path d="M60.3219 42.3126C60.1402 42.2364 59.9454 42.1959 59.7483 42.1934H59.6049C59.1315 42.1995 58.6792 42.39 58.3443 42.7243C58.0095 43.0585 57.8187 43.5101 57.8125 43.9827V91.0069C57.8187 91.4795 58.0095 91.9311 58.3443 92.2653C58.6792 92.5995 59.1315 92.7901 59.6049 92.7962H59.7483C59.9387 92.821 60.1315 92.821 60.3219 92.7962C59.9668 92.6842 59.6569 92.4616 59.4376 92.1611C59.2183 91.8606 59.101 91.498 59.1031 91.1262V43.9827C59.101 43.6109 59.2183 43.2482 59.4376 42.9477C59.6569 42.6472 59.9668 42.4247 60.3219 42.3126Z" fill="#BDB5B3"/>
</g>
</svg>
