<svg width="292" height="207" viewBox="0 0 292 207" fill="none" xmlns="http://www.w3.org/2000/svg">
<path d="M228.182 102.549C202.909 102.549 182.293 103.815 182.293 105.261C182.293 106.708 202.773 108.11 228.047 108.11C253.32 108.11 273.801 106.844 273.801 105.261C273.801 103.679 253.456 102.549 228.182 102.549Z" fill="#0F2840"/>
<path d="M54.0272 102.549C28.5731 102.549 8.27307 103.815 8.27307 105.261C8.27307 106.708 28.7539 108.11 54.0272 108.11C79.3005 108.11 99.7814 106.844 99.7814 105.261C99.7814 103.679 79.3005 102.549 54.0272 102.549Z" fill="#0F2840"/>
<path d="M52.2187 112.448C80.2597 112.448 102.991 89.7177 102.991 61.6782C102.991 33.6387 80.2597 10.9082 52.2187 10.9082C24.1777 10.9082 1.44604 33.6387 1.44604 61.6782C1.44604 89.7177 24.1777 112.448 52.2187 112.448Z" fill="#FFB51F"/>
<path d="M56.0334 107.883C81.5402 105.773 100.507 83.3856 98.3961 57.8802C96.2856 32.3747 73.8974 13.4093 48.3906 15.5197C22.8839 17.63 3.91743 40.0171 6.02791 65.5225C8.1384 91.0279 30.5266 109.993 56.0334 107.883Z" fill="#EC6D00"/>
<path d="M52.2187 102.547C74.7913 102.547 93.09 84.2492 93.09 61.6778C93.09 39.1063 74.7913 20.8086 52.2187 20.8086C29.6461 20.8086 11.3474 39.1063 11.3474 61.6778C11.3474 84.2492 29.6461 102.547 52.2187 102.547Z" fill="#FFA400"/>
<path d="M52.4447 44.6792L45.0752 32.9248L43.4928 33.9194L50.5458 45.2217V78.5409L61.3514 89.3007L62.6625 87.9897L52.4447 77.7272V44.6792Z" fill="#CE5900"/>
<path d="M33.5463 38.9844L32.2804 40.3859C36.8016 44.4999 43.0408 50.6032 43.945 51.869V76.3272L35.9425 84.5101L37.2537 85.8212L45.8439 77.0958V51.643C45.8439 51.01 45.8439 50.4675 33.5463 38.9844Z" fill="#CE5900"/>
<path d="M36.2591 61.3633H25.9961V63.2621H36.2591V61.3633Z" fill="#CE5900"/>
<path d="M58.8648 47.4836L65.5109 35.1415L63.8381 34.2373L56.9659 47.0315V72.9816H76.8138V71.0828H58.8648V47.4836Z" fill="#CE5900"/>
<path d="M78.4866 53.1328H68.2688V55.0316H78.4866V53.1328Z" fill="#CE5900"/>
<path d="M31.6927 35.7725C31.0489 35.7725 30.4195 35.9634 29.8842 36.321C29.3489 36.6787 28.9317 37.1871 28.6853 37.7819C28.4389 38.3767 28.3744 39.0311 28.5001 39.6626C28.6257 40.294 28.9357 40.874 29.3909 41.3292C29.8462 41.7844 30.4262 42.0945 31.0577 42.22C31.6891 42.3456 32.3436 42.2812 32.9385 42.0348C33.5333 41.7884 34.0417 41.3712 34.3994 40.8359C34.7571 40.3007 34.948 39.6713 34.948 39.0275C34.948 38.1642 34.605 37.3363 33.9945 36.7258C33.3841 36.1154 32.5561 35.7725 31.6927 35.7725ZM31.6927 40.2934C31.333 40.2934 30.988 40.1505 30.7337 39.8961C30.4793 39.6418 30.3364 39.2968 30.3364 38.9371C30.3364 38.5774 30.4793 38.2324 30.7337 37.9781C30.988 37.7237 31.333 37.5808 31.6927 37.5808C32.0525 37.5808 32.3975 37.7237 32.6518 37.9781C32.9062 38.2324 33.0491 38.5774 33.0491 38.9371C33.0615 39.1227 33.0356 39.3088 32.973 39.4839C32.9104 39.6591 32.8125 39.8195 32.6853 39.9551C32.5581 40.0908 32.4043 40.1989 32.2336 40.2726C32.0628 40.3464 31.8787 40.3842 31.6927 40.3838V40.2934Z" fill="#CE5900"/>
<path d="M35.0836 83.1982C34.4398 83.1982 33.8104 83.3891 33.2751 83.7468C32.7398 84.1045 32.3225 84.6129 32.0762 85.2076C31.8298 85.8024 31.7653 86.4569 31.8909 87.0883C32.0165 87.7198 32.3266 88.2998 32.7818 88.755C33.2371 89.2102 33.8171 89.5202 34.4485 89.6458C35.08 89.7714 35.7345 89.707 36.3293 89.4606C36.9242 89.2142 37.4325 88.797 37.7902 88.2617C38.1479 87.7264 38.3388 87.0971 38.3388 86.4533C38.3388 85.59 37.9959 84.7621 37.3854 84.1516C36.7749 83.5412 35.9469 83.1982 35.0836 83.1982ZM35.0836 87.7192C34.7239 87.7192 34.3789 87.5763 34.1245 87.3219C33.8702 87.0676 33.7273 86.7226 33.7273 86.3629C33.7209 86.1831 33.7517 86.0039 33.8176 85.8365C33.8836 85.6691 33.9832 85.517 34.1105 85.3898C34.2377 85.2626 34.3898 85.1629 34.5572 85.097C34.7246 85.0311 34.9038 85.0003 35.0836 85.0066C35.4433 85.0066 35.7883 85.1495 36.0427 85.4039C36.2971 85.6582 36.44 86.0032 36.44 86.3629C36.446 86.547 36.4157 86.7304 36.3508 86.9028C36.2859 87.0751 36.1876 87.233 36.0616 87.3673C35.9357 87.5017 35.7845 87.6099 35.6166 87.6858C35.4488 87.7617 35.2677 87.8037 35.0836 87.8096V87.7192Z" fill="#CE5900"/>
<path d="M24.504 58.966C24.0474 58.9119 23.5845 58.9551 23.1459 59.0929C22.7072 59.2306 22.3026 59.4597 21.9589 59.7651C21.6152 60.0705 21.3401 60.4453 21.1517 60.8647C20.9633 61.2841 20.8658 61.7386 20.8658 62.1984C20.8658 62.6582 20.9633 63.1128 21.1517 63.5322C21.3401 63.9516 21.6152 64.3263 21.9589 64.6317C22.3026 64.9371 22.7072 65.1662 23.1459 65.304C23.5845 65.4417 24.0474 65.485 24.504 65.4309C24.9607 65.485 25.4236 65.4417 25.8622 65.304C26.3009 65.1662 26.7055 64.9371 27.0492 64.6317C27.3929 64.3263 27.668 63.9516 27.8564 63.5322C28.0448 63.1128 28.1423 62.6582 28.1423 62.1984C28.1423 61.7386 28.0448 61.2841 27.8564 60.8647C27.668 60.4453 27.3929 60.0705 27.0492 59.7651C26.7055 59.4597 26.3009 59.2306 25.8622 59.0929C25.4236 58.9551 24.9607 58.9119 24.504 58.966ZM24.504 63.4869C24.1479 63.4756 23.8095 63.329 23.5575 63.0771C23.3055 62.8252 23.159 62.4867 23.1477 62.1306C23.1477 61.7709 23.2906 61.4259 23.545 61.1716C23.7993 60.9172 24.1443 60.7743 24.504 60.7743C24.6839 60.768 24.8631 60.7988 25.0305 60.8647C25.1979 60.9306 25.35 61.0303 25.4772 61.1575C25.6044 61.2848 25.7041 61.4368 25.77 61.6042C25.8359 61.7716 25.8667 61.9508 25.8604 62.1306C25.8728 62.3162 25.8469 62.5023 25.7843 62.6774C25.7217 62.8526 25.6238 63.013 25.4966 63.1486C25.3694 63.2843 25.2156 63.3924 25.0449 63.4661C24.8741 63.5399 24.69 63.5777 24.504 63.5773V63.4869Z" fill="#CE5900"/>
<path d="M38.5195 58.9661C37.8757 58.9661 37.2463 59.157 36.711 59.5147C36.1757 59.8724 35.7585 60.3808 35.5121 60.9755C35.2657 61.5703 35.2012 62.2248 35.3268 62.8562C35.4524 63.4877 35.7625 64.0677 36.2177 64.5229C36.673 64.9781 37.253 65.2881 37.8845 65.4137C38.5159 65.5393 39.1704 65.4749 39.7652 65.2285C40.3601 64.9821 40.8685 64.5649 41.2262 64.0296C41.5838 63.4943 41.7748 62.865 41.7748 62.2212C41.7808 61.7921 41.7008 61.3661 41.5394 60.9684C41.3779 60.5707 41.1384 60.2094 40.8349 59.906C40.5314 59.6025 40.1701 59.3629 39.7724 59.2015C39.3747 59.0401 38.9487 58.9601 38.5195 58.9661ZM38.5195 63.4871C38.1634 63.4758 37.8249 63.3292 37.573 63.0773C37.321 62.8253 37.1745 62.4869 37.1632 62.1308C37.1632 61.7711 37.3061 61.4261 37.5604 61.1718C37.8148 60.9174 38.1598 60.7745 38.5195 60.7745C38.6993 60.7682 38.8785 60.799 39.046 60.8649C39.2134 60.9308 39.3654 61.0305 39.4927 61.1577C39.6199 61.2849 39.7196 61.437 39.7855 61.6044C39.8514 61.7718 39.8822 61.951 39.8759 62.1308C39.8883 62.3164 39.8624 62.5025 39.7998 62.6776C39.7372 62.8528 39.6393 63.0131 39.512 63.1488C39.3848 63.2845 39.2311 63.3926 39.0603 63.4663C38.8896 63.5401 38.7055 63.5779 38.5195 63.5775V63.4871Z" fill="#CE5900"/>
<path d="M63.2504 86.6351C62.6065 86.6351 61.9772 86.826 61.4418 87.1837C60.9065 87.5413 60.4893 88.0497 60.2429 88.6445C59.9965 89.2393 59.9321 89.8938 60.0577 90.5252C60.1833 91.1566 60.4933 91.7366 60.9486 92.1918C61.4038 92.6471 61.9838 92.9571 62.6153 93.0827C63.2467 93.2083 63.9013 93.1438 64.4961 92.8975C65.0909 92.6511 65.5993 92.2339 65.957 91.6986C66.3147 91.1633 66.5056 90.534 66.5056 89.8902C66.5117 89.461 66.4316 89.035 66.2702 88.6373C66.1088 88.2397 65.8692 87.8784 65.5657 87.5749C65.2622 87.2714 64.9009 87.0319 64.5032 86.8705C64.1056 86.709 63.6795 86.629 63.2504 86.6351ZM63.2504 91.156C62.8942 91.1447 62.5558 90.9982 62.3038 90.7462C62.0519 90.4943 61.9053 90.1559 61.894 89.7997C61.894 89.6216 61.9291 89.4453 61.9973 89.2807C62.0654 89.1162 62.1653 88.9667 62.2913 88.8407C62.4172 88.7148 62.5667 88.6149 62.7313 88.5467C62.8959 88.4785 63.0722 88.4435 63.2504 88.4435C63.4302 88.4372 63.6094 88.4679 63.7768 88.5338C63.9442 88.5998 64.0963 88.6994 64.2235 88.8267C64.3507 88.9539 64.4504 89.1059 64.5163 89.2733C64.5823 89.4407 64.613 89.6199 64.6067 89.7997C64.6191 89.9853 64.5932 90.1714 64.5306 90.3466C64.468 90.5217 64.3701 90.6821 64.2429 90.8178C64.1157 90.9535 63.9619 91.0615 63.7912 91.1353C63.6204 91.209 63.4363 91.2468 63.2504 91.2464V91.156Z" fill="#CE5900"/>
<path d="M78.3059 68.7767C77.6621 68.7767 77.0327 68.9676 76.4974 69.3253C75.9621 69.6829 75.5448 70.1913 75.2984 70.7861C75.0521 71.3809 74.9876 72.0354 75.1132 72.6668C75.2388 73.2982 75.5488 73.8782 76.0041 74.3334C76.4593 74.7887 77.0394 75.0987 77.6708 75.2243C78.3023 75.3499 78.9568 75.2854 79.5516 75.039C80.1464 74.7927 80.6548 74.3755 81.0125 73.8402C81.3702 73.3049 81.5611 72.6755 81.5611 72.0318C81.5672 71.6026 81.4872 71.1766 81.3257 70.7789C81.1643 70.3813 80.9248 70.02 80.6213 69.7165C80.3178 69.413 79.9565 69.1735 79.5588 69.0121C79.1611 68.8506 78.7351 68.7706 78.3059 68.7767ZM78.3059 73.2976C77.9498 73.2863 77.6113 73.1398 77.3593 72.8878C77.1074 72.6359 76.9609 72.2975 76.9496 71.9413C76.9496 71.5816 77.0925 71.2367 77.3468 70.9823C77.6012 70.728 77.9462 70.5851 78.3059 70.5851C78.4857 70.5787 78.6649 70.6095 78.8323 70.6754C78.9997 70.7414 79.1518 70.841 79.279 70.9683C79.4063 71.0955 79.5059 71.2475 79.5719 71.4149C79.6378 71.5823 79.6686 71.7615 79.6622 71.9413C79.7109 72.1438 79.7123 72.3548 79.6663 72.5579C79.6203 72.761 79.5282 72.9508 79.397 73.1125C79.2659 73.2743 79.0992 73.4036 78.91 73.4906C78.7208 73.5776 78.5141 73.6198 78.3059 73.6141V73.2976Z" fill="#CE5900"/>
<path d="M79.9788 51.0088C79.5513 51.0088 79.128 51.093 78.733 51.2566C78.3381 51.4201 77.9792 51.6599 77.677 51.9622C77.3747 52.2644 77.1349 52.6233 76.9713 53.0182C76.8077 53.4131 76.7235 53.8364 76.7235 54.2639C76.7235 54.6913 76.8077 55.1146 76.9713 55.5095C77.1349 55.9044 77.3747 56.2633 77.677 56.5655C77.9792 56.8678 78.3381 57.1076 78.733 57.2711C79.128 57.4347 79.5513 57.5189 79.9788 57.5189C80.4062 57.5189 80.8295 57.4347 81.2245 57.2711C81.6194 57.1076 81.9783 56.8678 82.2805 56.5655C82.5828 56.2633 82.8226 55.9044 82.9862 55.5095C83.1498 55.1146 83.234 54.6913 83.234 54.2639C83.234 53.8364 83.1498 53.4131 82.9862 53.0182C82.8226 52.6233 82.5828 52.2644 82.2805 51.9622C81.9783 51.6599 81.6194 51.4201 81.2245 51.2566C80.8295 51.093 80.4062 51.0088 79.9788 51.0088ZM79.9788 55.5297C79.619 55.5297 79.274 55.3868 79.0197 55.1325C78.7653 54.8781 78.6224 54.5331 78.6224 54.1734C78.6161 53.9936 78.6468 53.8144 78.7128 53.647C78.7787 53.4796 78.8784 53.3276 79.0056 53.2004C79.1328 53.0731 79.2849 52.9735 79.4523 52.9075C79.6197 52.8416 79.7989 52.8108 79.9788 52.8172C80.1569 52.8172 80.3332 52.8522 80.4978 52.9204C80.6624 52.9886 80.8119 53.0885 80.9378 53.2144C81.0638 53.3403 81.1637 53.4899 81.2319 53.6544C81.3 53.819 81.3351 53.9953 81.3351 54.1734C81.3238 54.5296 81.1772 54.868 80.9253 55.1199C80.6733 55.3719 80.3349 55.5184 79.9788 55.5297Z" fill="#CE5900"/>
<path d="M65.5561 30.4395C64.9123 30.4395 64.2829 30.6304 63.7476 30.988C63.2123 31.3457 62.7951 31.8541 62.5487 32.4489C62.3023 33.0436 62.2378 33.6981 62.3635 34.3296C62.4891 34.961 62.7991 35.541 63.2543 35.9962C63.7096 36.4514 64.2896 36.7614 64.9211 36.887C65.5525 37.0126 66.207 36.9482 66.8019 36.7018C67.3967 36.4554 67.9051 36.0382 68.2628 35.5029C68.6205 34.9676 68.8114 34.3383 68.8114 33.6945C68.8114 32.8312 68.4684 32.0033 67.8579 31.3928C67.2475 30.7824 66.4195 30.4395 65.5561 30.4395ZM65.5561 34.9604C65.1964 34.9604 64.8514 34.8175 64.5971 34.5631C64.3427 34.3088 64.1998 33.9638 64.1998 33.6041C64.2111 33.248 64.3576 32.9095 64.6096 32.6576C64.8615 32.4057 65.2 32.2591 65.5561 32.2478C65.9159 32.2478 66.2609 32.3907 66.5152 32.6451C66.7696 32.8994 66.9125 33.2444 66.9125 33.6041C66.9321 33.7912 66.9112 33.9803 66.8513 34.1586C66.7913 34.3369 66.6937 34.5002 66.565 34.6375C66.4364 34.7747 66.2797 34.8826 66.1056 34.954C65.9315 35.0253 65.7441 35.0583 65.5561 35.0508V34.9604Z" fill="#CE5900"/>
<path d="M43.4026 29.1279C42.7588 29.1279 42.1294 29.3188 41.5941 29.6765C41.0587 30.0342 40.6415 30.5426 40.3951 31.1373C40.1488 31.7321 40.0843 32.3866 40.2099 33.018C40.3355 33.6494 40.6455 34.2294 41.1008 34.6847C41.556 35.1399 42.1361 35.4499 42.7675 35.5755C43.399 35.7011 44.0535 35.6367 44.6483 35.3903C45.2431 35.1439 45.7515 34.7267 46.1092 34.1914C46.4669 33.6561 46.6578 33.0268 46.6578 32.383C46.6578 31.9555 46.5736 31.5323 46.41 31.1373C46.2464 30.7424 46.0067 30.3836 45.7044 30.0813C45.4021 29.7791 45.0432 29.5393 44.6483 29.3757C44.2534 29.2121 43.8301 29.1279 43.4026 29.1279ZM43.4026 33.6489C43.2245 33.6489 43.0481 33.6138 42.8835 33.5456C42.719 33.4775 42.5694 33.3776 42.4435 33.2516C42.3175 33.1257 42.2176 32.9762 42.1495 32.8116C42.0813 32.6471 42.0462 32.4707 42.0462 32.2926C42.0462 31.9329 42.1891 31.5879 42.4435 31.3335C42.6979 31.0792 43.0429 30.9363 43.4026 30.9363C43.7623 30.9363 44.1073 31.0792 44.3617 31.3335C44.616 31.5879 44.7589 31.9329 44.7589 32.2926C44.7713 32.4781 44.7454 32.6643 44.6828 32.8394C44.6202 33.0145 44.5223 33.1749 44.3951 33.3106C44.2679 33.4463 44.1141 33.5544 43.9434 33.6281C43.7727 33.7018 43.5886 33.7397 43.4026 33.7393V33.6489Z" fill="#CE5900"/>
<path d="M65.9631 51.0088C65.3193 51.0088 64.6899 51.1997 64.1546 51.5574C63.6193 51.915 63.2021 52.4234 62.9557 53.0182C62.7093 53.613 62.6448 54.2675 62.7704 54.8989C62.896 55.5303 63.2061 56.1103 63.6613 56.5655C64.1166 57.0208 64.6966 57.3308 65.3281 57.4564C65.9595 57.582 66.614 57.5175 67.2089 57.2711C67.8037 57.0248 68.3121 56.6076 68.6698 56.0723C69.0274 55.537 69.2184 54.9076 69.2184 54.2639C69.2184 53.4006 68.8754 52.5726 68.2649 51.9622C67.6544 51.3517 66.8265 51.0088 65.9631 51.0088ZM65.9631 55.5297C65.785 55.5297 65.6086 55.4946 65.4441 55.4265C65.2795 55.3583 65.13 55.2584 65.004 55.1325C64.8781 55.0065 64.7782 54.857 64.71 54.6925C64.6419 54.5279 64.6068 54.3515 64.6068 54.1734C64.6068 53.8137 64.7497 53.4688 65.004 53.2144C65.2584 52.9601 65.6034 52.8172 65.9631 52.8172C66.3229 52.8172 66.6678 52.9601 66.9222 53.2144C67.1766 53.4688 67.3195 53.8137 67.3195 54.1734C67.3195 54.5331 67.1766 54.8781 66.9222 55.1325C66.6678 55.3868 66.3229 55.5297 65.9631 55.5297Z" fill="#CE5900"/>
<path d="M52.2187 10.9083C45.1188 10.8979 38.0962 12.3819 31.6076 15.2638C25.119 18.1458 19.3097 22.3611 14.5574 27.6357C23.7963 17.8397 36.5486 12.1148 50.0087 11.7206C63.4688 11.3263 76.5343 16.295 86.3308 25.5335C96.1274 34.7719 101.853 47.5235 102.247 60.9829C102.641 74.4423 97.6721 87.5071 88.4332 97.3031C95.456 90.1727 100.215 81.1258 102.111 71.2992C104.008 61.4726 102.958 51.3047 99.093 42.0731C95.2282 32.8414 88.721 24.9579 80.3891 19.413C72.0572 13.8681 62.2723 10.9093 52.2639 10.9083H52.2187Z" fill="#FFD683"/>
<path d="M52.2188 20.8088C45.5143 20.7963 38.9107 22.4407 32.9949 25.5956C27.0792 28.7504 22.0348 33.3181 18.3101 38.8925C24.5513 30.0437 34.0523 24.0365 44.7229 22.1925C55.3935 20.3484 66.3596 22.8185 75.2089 29.0595C84.0581 35.3004 90.0656 44.8009 91.9098 55.4709C93.7539 66.1409 91.2837 77.1065 85.0424 85.9553C89.6036 79.892 92.3786 72.6742 93.0539 65.1171C93.7291 57.56 92.2778 49.9646 88.8639 43.1887C85.4499 36.4128 80.2093 30.7265 73.7339 26.7718C67.2584 22.8171 59.8062 20.7517 52.2188 20.8088Z" fill="#CE5900"/>
<g style="mix-blend-mode:soft-light" opacity="0.3">
<path d="M52.2187 10.9082C43.4595 10.9062 34.8479 13.164 27.2167 17.4636C23.0571 25.2047 20.9762 33.8923 21.1774 42.6778C21.3785 51.4634 23.8547 60.0466 28.3642 67.5893C32.8737 75.1321 39.2623 81.3765 46.9062 85.7128C54.55 90.0491 63.1879 92.3291 71.9762 92.3301C80.7429 92.3453 89.3615 90.0699 96.9782 85.7295C101.141 77.9916 103.224 69.3059 103.024 60.5217C102.824 51.7375 100.347 43.1557 95.8363 35.6153C91.3255 28.075 84.935 21.8343 77.2895 17.5036C69.6441 13.1729 61.0056 10.9003 52.2187 10.9082Z" fill="white"/>
</g>
<path d="M2.30511 61.0904C2.31486 52.8758 4.31964 44.7864 8.1471 37.5177C11.9745 30.2491 17.5101 24.0187 24.278 19.3623C18.5558 23.0037 13.6212 27.7546 9.76566 33.3345C5.9101 38.9145 3.21169 45.2103 1.82977 51.8503C0.447844 58.4904 0.410413 65.34 1.71969 71.9947C3.02896 78.6494 5.6584 84.9744 9.45274 90.5961C13.2471 96.2179 18.1294 101.022 23.8115 104.726C29.4935 108.43 35.8601 110.958 42.5353 112.16C49.2105 113.363 56.0589 113.216 62.6763 111.728C69.2938 110.24 75.5459 107.441 81.0638 103.497C73.4079 108.554 64.5246 111.442 55.3583 111.854C46.192 112.267 37.0853 110.187 29.0064 105.837C20.9276 101.487 14.1786 95.0295 9.477 87.1504C4.7754 79.2714 2.29693 70.2655 2.30511 61.0904Z" fill="#CE5900"/>
<path d="M241.82 110.497C269.112 104.056 286.014 76.7123 279.572 49.4226C273.131 22.1329 245.786 5.23163 218.494 11.6726C191.203 18.1135 174.301 45.4576 180.742 72.7473C187.184 100.037 214.529 116.938 241.82 110.497Z" fill="#FFB51F"/>
<path d="M230.172 14.8418C221.002 14.8418 212.039 17.5619 204.416 22.6577C196.793 27.7536 190.854 34.9962 187.349 43.4689C183.844 51.9416 182.931 61.2635 184.727 70.255C186.522 79.2464 190.945 87.5032 197.435 93.9802C203.925 100.457 212.191 104.864 221.186 106.641C230.182 108.419 239.502 107.489 247.969 103.967C256.435 100.446 263.666 94.4927 268.748 86.8603C273.829 79.2279 276.531 70.2598 276.514 61.0909C276.478 48.8202 271.581 37.0637 262.895 28.3955C254.21 19.7273 242.443 14.8537 230.172 14.8418Z" fill="#EC6D00"/>
<path d="M230.172 20.2666C222.124 20.2666 214.257 22.6529 207.565 27.1238C200.874 31.5947 195.658 37.9494 192.579 45.3842C189.499 52.819 188.693 61.0001 190.263 68.8928C191.833 76.7856 195.709 84.0356 201.399 89.7259C207.09 95.4163 214.34 99.2915 222.233 100.861C230.127 102.431 238.308 101.626 245.743 98.5461C253.178 95.4664 259.533 90.2513 264.005 83.5602C268.476 76.869 270.862 69.0023 270.862 60.9549C270.862 50.1637 266.575 39.8145 258.944 32.1839C251.313 24.5534 240.963 20.2666 230.172 20.2666Z" fill="#FFA400"/>
<path d="M230.172 10.3203C223.066 10.3149 216.038 11.8009 209.543 14.6823C203.048 17.5638 197.23 21.7764 192.465 27.0478C201.83 17.7741 214.432 12.5016 227.611 12.3429C240.79 12.1842 253.516 17.1518 263.101 26.1973C272.687 35.2427 278.383 47.6584 278.988 60.8239C279.592 73.9894 275.057 86.8748 266.341 96.7604C273.357 89.624 278.11 80.5748 280.003 70.7478C281.897 60.9209 280.846 50.7537 276.983 41.5216C273.12 32.2894 266.617 24.4035 258.289 18.8528C249.961 13.3021 240.18 10.3338 230.172 10.3203Z" fill="#FFD683"/>
<path d="M230.172 20.266C223.459 20.2461 216.847 21.8869 210.922 25.0421C204.998 28.1973 199.947 32.769 196.218 38.3497C202.453 29.5009 211.948 23.4914 222.614 21.6431C233.281 19.7948 244.245 22.2592 253.094 28.4941C261.943 34.729 267.953 44.2238 269.801 54.8896C271.65 65.5554 269.185 76.5186 262.95 85.3674C268.209 78.3666 271.049 69.8459 271.043 61.09C271.061 55.7201 270.016 50.3997 267.967 45.4357C265.919 40.4716 262.909 35.9621 259.109 32.167C255.31 28.372 250.797 25.3666 245.83 23.324C240.864 21.2814 235.542 20.2421 230.172 20.266Z" fill="#CE5900"/>
<path d="M180.213 60.5481C180.208 52.3181 182.206 44.2105 186.034 36.9249C189.862 29.6394 195.405 23.3946 202.186 18.7295C196.655 22.4698 191.916 27.2627 188.237 32.8346C184.559 38.4066 182.015 44.6483 180.749 51.2036C179.483 57.7589 179.521 64.4993 180.86 71.04C182.199 77.5806 184.814 83.7935 188.554 89.3237C192.295 94.854 197.088 99.5934 202.66 103.271C208.233 106.949 214.475 109.494 221.03 110.76C227.586 112.025 234.327 111.987 240.868 110.648C247.409 109.309 253.622 106.695 259.152 102.954C251.493 107.996 242.613 110.871 233.452 111.275C224.292 111.679 215.192 109.598 207.119 105.251C199.045 100.904 192.299 94.4533 187.594 86.5833C182.889 78.7134 180.401 69.7171 180.394 60.5481H180.213Z" fill="#CE5900"/>
<path d="M245.091 64.0294C244.183 62.962 243.097 62.0596 241.881 61.3621C240.66 60.5861 239.356 59.9492 237.993 59.4633C236.624 58.9166 235.219 58.4635 233.789 58.107L229.584 57.1124C227.549 56.6151 225.877 56.163 224.52 55.7109C223.362 55.3494 222.265 54.816 221.265 54.1286C220.53 53.6252 219.938 52.9398 219.547 52.1394C219.201 51.262 219.032 50.3247 219.05 49.3816C219.015 48.2928 219.248 47.212 219.729 46.2344C220.21 45.2568 220.923 44.4125 221.807 43.7757C224.129 42.2321 226.891 41.4862 229.674 41.6508C236.637 41.6508 240.435 44.7251 241.022 50.6927H246.945C246.919 48.5428 246.458 46.4205 245.589 44.4538C244.756 42.6063 243.52 40.9688 241.972 39.6616C240.381 38.3145 238.536 37.2999 236.546 36.6778C234.288 35.927 231.919 35.5603 229.539 35.5928C227.307 35.5738 225.089 35.9409 222.983 36.6778C221.099 37.312 219.351 38.2934 217.829 39.5712C216.419 40.8259 215.294 42.3673 214.528 44.0921C213.705 45.8611 213.287 47.7921 213.308 49.7433C213.228 51.3955 213.442 53.0487 213.941 54.6259C214.547 56.0814 215.457 57.3913 216.608 58.4687C217.95 59.6696 219.477 60.6466 221.129 61.3621C223.285 62.2698 225.507 63.0104 227.775 63.5773C230.398 64.1651 232.613 64.7528 234.467 65.3405C236.062 65.7614 237.585 66.4166 238.988 67.2845C240.006 67.8849 240.848 68.7424 241.429 69.771C241.936 70.8935 242.198 72.111 242.198 73.3425C242.198 74.5741 241.936 75.7916 241.429 76.9141C240.91 77.9901 240.133 78.9217 239.169 79.6266C238.081 80.4205 236.854 81.0033 235.552 81.3446C234.079 81.747 232.558 81.9448 231.031 81.9323C229.352 81.9532 227.678 81.7402 226.057 81.2994C224.576 80.8711 223.183 80.1822 221.943 79.265C220.743 78.3107 219.744 77.1274 219.004 75.7838C218.198 74.2274 217.736 72.5161 217.648 70.7656H211.544C211.558 73.136 212.018 75.4827 212.901 77.6826C213.689 79.761 214.942 81.632 216.563 83.153C218.309 84.7453 220.374 85.9474 222.621 86.6793C225.346 87.5826 228.206 88.0108 231.076 87.9451C233.386 87.9752 235.682 87.5925 237.858 86.8149C239.838 86.117 241.665 85.0423 243.238 83.6502C244.754 82.3335 245.958 80.6968 246.764 78.8581C247.629 76.9412 248.061 74.8575 248.03 72.7548C248.053 71.0511 247.793 69.3554 247.262 67.7366C246.767 66.3802 246.032 65.1243 245.091 64.0294Z" fill="#CE5900"/>
<path d="M228.092 27.0488H222.712V96.4902H228.092V27.0488Z" fill="#CE5900"/>
<path d="M237.677 27.0488H232.297V96.4902H237.677V27.0488Z" fill="#CE5900"/>
<g style="mix-blend-mode:soft-light" opacity="0.3">
<path d="M230.172 10.3204C221.405 10.3052 212.786 12.5805 205.17 16.9209C201.166 24.3035 199.083 32.5741 199.111 40.9723C199.12 49.8438 201.452 58.5584 205.874 66.2494C210.296 73.9404 216.654 80.3398 224.317 84.811C231.98 89.2823 240.68 91.6696 249.551 91.7355C258.423 91.8015 267.158 89.5438 274.886 85.1869C279.044 77.4491 281.125 68.7657 280.926 59.9839C280.727 51.2022 278.254 42.622 273.75 35.0805C269.246 27.5391 262.864 21.2939 255.226 16.9544C247.588 12.6149 238.956 10.3292 230.172 10.3204Z" fill="white"/>
</g>
<path d="M141.467 206.211C164.588 206.211 183.333 205.058 183.333 203.635C183.333 202.211 164.588 201.058 141.467 201.058C118.345 201.058 99.6006 202.211 99.6006 203.635C99.6006 205.058 118.345 206.211 141.467 206.211Z" fill="#1D4459"/>
<path d="M141.105 120.812H54.0272V129.673H141.105V120.812Z" fill="#1D4459"/>
<path d="M228.182 120.812H141.105V129.673H228.182V120.812Z" fill="#1D4459"/>
<path d="M117.821 168.055V187.36H166.242V170.044L142.054 120.812L117.821 168.055Z" fill="#1D4459"/>
<path d="M165.429 162.901H118.228C115.83 162.901 113.53 163.854 111.834 165.55C110.138 167.245 109.185 169.545 109.185 171.943V187.495H174.335V171.808C174.3 169.456 173.351 167.211 171.688 165.549C170.025 163.886 167.78 162.936 165.429 162.901Z" fill="#1D4459"/>
<path d="M175.059 187.36H107.829C106.743 187.366 105.668 187.586 104.666 188.007C103.665 188.429 102.756 189.043 101.992 189.815C101.228 190.588 100.623 191.503 100.213 192.509C99.8028 193.515 99.5946 194.592 99.6006 195.679V203.726H183.333V195.679C183.333 193.48 182.462 191.371 180.912 189.813C179.362 188.254 177.257 187.372 175.059 187.36Z" fill="#1D4459"/>
<path d="M62.527 123.344L60.8542 120.632L54.0272 126.961V129.493H141.105V126.961H69.2635C67.9219 127.003 66.5929 126.691 65.4103 126.056C64.2277 125.421 63.2332 124.486 62.527 123.344Z" fill="#0F2840"/>
<path d="M228.182 127.142H141.105V129.673H228.182V127.142Z" fill="#0F2840"/>
<path d="M52.0378 114.302C50.2494 114.302 48.5012 114.832 47.0142 115.826C45.5272 116.819 44.3682 118.231 43.6838 119.883C42.9994 121.536 42.8203 123.354 43.1692 125.108C43.5181 126.862 44.3793 128.473 45.6439 129.737C46.9085 131.002 48.5197 131.863 50.2737 132.212C52.0278 132.561 53.8459 132.382 55.4982 131.697C57.1504 131.013 58.5626 129.854 59.5562 128.367C60.5498 126.88 61.0801 125.132 61.0801 123.344C61.0801 120.946 60.1275 118.646 58.4317 116.95C56.7359 115.254 54.436 114.302 52.0378 114.302Z" fill="#1D4459"/>
<path d="M230.172 114.302C228.383 114.302 226.635 114.832 225.148 115.826C223.661 116.819 222.502 118.231 221.818 119.883C221.133 121.536 220.954 123.354 221.303 125.108C221.652 126.862 222.513 128.473 223.778 129.737C225.042 131.002 226.654 131.863 228.408 132.212C230.162 132.561 231.98 132.382 233.632 131.697C235.284 131.013 236.697 129.854 237.69 128.367C238.684 126.88 239.214 125.132 239.214 123.344C239.214 120.946 238.261 118.646 236.566 116.95C234.87 115.254 232.57 114.302 230.172 114.302Z" fill="#1D4459"/>
<path d="M116.962 181.484V175.787C116.97 173.699 117.742 171.686 119.133 170.128C120.524 168.571 122.438 167.576 124.512 167.333L162.716 162.812L135.589 161.999C134.788 162.033 133.992 161.854 133.283 161.48C132.574 161.106 131.977 160.55 131.554 159.869C131.13 159.188 130.896 158.406 130.874 157.605C130.852 156.803 131.044 156.011 131.43 155.308L137.804 141.428L136.448 131.799L120.488 162.993H118.228C115.83 162.993 113.53 163.946 111.834 165.642C110.138 167.337 109.185 169.637 109.185 172.035V187.587H107.648C105.524 187.645 103.504 188.517 102.006 190.024C100.507 191.53 99.6462 193.555 99.6006 195.68V203.727C99.6006 204.541 105.297 205.219 114.249 205.716V203.546C114.261 201.179 115.127 198.897 116.689 197.119C118.251 195.341 120.403 194.187 122.749 193.871L174.335 187.451L122.026 186.638C120.674 186.614 119.386 186.06 118.439 185.097C117.492 184.133 116.962 182.835 116.962 181.484Z" fill="#0F2840"/>
<path d="M142.054 108.561C138.753 108.552 135.523 109.522 132.773 111.35C130.024 113.178 127.879 115.78 126.609 118.827C125.339 121.875 125.002 125.231 125.641 128.47C126.28 131.709 127.865 134.685 130.196 137.023C132.528 139.36 135.5 140.954 138.738 141.601C141.975 142.248 145.332 141.921 148.383 140.659C151.434 139.398 154.042 137.26 155.877 134.516C157.713 131.771 158.692 128.544 158.692 125.243C158.692 120.826 156.941 116.59 153.822 113.463C150.703 110.335 146.471 108.573 142.054 108.561Z" fill="#1D4459"/>
<path d="M144.45 136.906C140.026 136.906 135.782 135.149 132.654 132.02C129.525 128.892 127.767 124.649 127.767 120.224C127.784 118.579 128.059 116.947 128.581 115.387C127.14 117.341 126.144 119.587 125.663 121.967C125.182 124.347 125.228 126.803 125.798 129.164C126.368 131.524 127.447 133.731 128.961 135.63C130.474 137.529 132.385 139.074 134.559 140.155C136.733 141.237 139.117 141.83 141.544 141.893C143.972 141.955 146.383 141.485 148.61 140.516C150.837 139.548 152.824 138.103 154.433 136.285C156.042 134.466 157.233 132.317 157.924 129.989C156.385 132.126 154.362 133.867 152.02 135.07C149.678 136.272 147.083 136.902 144.45 136.906Z" fill="#0F2840"/>
<path d="M52.0378 114.301C49.8836 114.269 47.7891 115.008 46.1313 116.384C44.4735 117.76 43.3615 119.683 42.9955 121.805C46.522 122.077 50.2293 122.212 54.0271 122.212C56.4685 122.212 58.8196 122.212 61.1253 122.212C60.8477 120.007 59.7677 117.982 58.0914 116.522C56.4152 115.063 54.2602 114.272 52.0378 114.301Z" fill="#0F2840"/>
<path d="M54.0272 108.245C28.5731 108.245 8.27307 106.979 8.27307 105.261C8.27307 112.72 28.7539 118.824 54.0272 118.824C79.3005 118.824 99.7814 112.811 99.7814 105.261C99.7814 106.979 79.3005 108.245 54.0272 108.245Z" fill="#1D4459"/>
<path d="M12.7491 106.617C9.90074 106.255 8.22791 105.849 8.22791 105.396C8.22791 112.856 28.7088 118.959 53.9821 118.959C74.7342 118.959 92.2311 114.89 97.8373 109.284C90.3322 113.805 74.8698 116.744 57.1469 116.744C35.7166 116.654 17.9032 112.404 12.7491 106.617Z" fill="#0F2840"/>
<path d="M230.172 114.302C228.278 114.202 226.4 114.7 224.805 115.726C223.21 116.752 221.977 118.253 221.282 120.018C220.587 121.783 220.465 123.721 220.933 125.559C221.4 127.398 222.434 129.042 223.887 130.26C223.343 129.051 223.051 127.744 223.028 126.418C223.028 125.211 223.269 124.016 223.738 122.904C224.206 121.792 224.892 120.785 225.756 119.943C226.62 119.1 227.644 118.439 228.767 117.998C229.89 117.557 231.09 117.346 232.297 117.376C234.618 117.373 236.852 118.263 238.536 119.862C237.848 118.212 236.686 116.804 235.197 115.814C233.708 114.824 231.959 114.298 230.172 114.302Z" fill="#0F2840"/>
<path d="M228.182 108.245C202.909 108.245 182.293 106.979 182.293 105.261C182.293 112.72 202.773 118.824 228.047 118.824C253.32 118.824 273.801 112.811 273.801 105.261C273.937 106.979 253.456 108.245 228.182 108.245Z" fill="#1D4459"/>
<path d="M187.175 106.662C184.191 106.301 182.654 105.849 182.654 105.396C182.654 112.856 203.135 118.959 228.408 118.959C251.285 118.959 270.229 113.986 273.62 107.521C266.974 112.54 250.426 116.111 231.031 116.111C210.369 116.021 193.098 112.087 187.175 106.662Z" fill="#0F2840"/>
</svg>
