<svg width="200" height="200" viewBox="0 0 200 200" fill="none" xmlns="http://www.w3.org/2000/svg">
<path d="M100 199.999C155.228 199.999 200 155.228 200 99.9996C200 44.7713 155.228 0 100 0C44.7717 0 0.000389099 44.7713 0.000389099 99.9996C0.000389099 155.228 44.7717 199.999 100 199.999Z" fill="#272D35"/>
<path d="M160 200H40.0004V70.6672C45.6564 70.6609 51.0789 68.4113 55.0783 64.4119C59.0777 60.4125 61.3273 54.99 61.3337 49.334H138.667C138.661 52.1358 139.21 54.911 140.284 57.499C141.358 60.087 142.934 62.4364 144.921 64.4112C146.896 66.3994 149.246 67.976 151.834 69.0499C154.422 70.1237 157.198 70.6734 160 70.6672V200Z" fill="#1D2126"/>
<path d="M100 135.999C117.673 135.999 132 121.673 132 104C132 86.3266 117.673 71.9998 100 71.9998C82.3271 71.9998 68.0003 86.3266 68.0003 104C68.0003 121.673 82.3271 135.999 100 135.999Z" fill="#05CA77"/>
<path d="M117.334 144H82.6672C80.4581 144 78.6672 145.79 78.6672 147.999C78.6672 150.209 80.4581 151.999 82.6672 151.999H117.334C119.543 151.999 121.334 150.209 121.334 147.999C121.334 145.79 119.543 144 117.334 144Z" fill="#272D35"/>
<path d="M129.334 160H70.6673C68.4581 160 66.6673 161.79 66.6673 163.999C66.6673 166.209 68.4581 167.999 70.6673 167.999H129.334C131.543 167.999 133.334 166.209 133.334 163.999C133.334 161.79 131.543 160 129.334 160Z" fill="#272D35"/>
<path d="M88.0004 104L95.5004 111.5L111 96" stroke="#272D35" stroke-width="5"/>
</svg>
