<svg width="22" height="22" viewBox="0 0 22 22" fill="none" xmlns="http://www.w3.org/2000/svg">
<path d="M18.8283 17.5296C17.4165 19.1536 15.5224 20.2838 13.4227 20.7551C11.323 21.2263 9.12768 21.014 7.15722 20.1491C5.18677 19.284 3.54451 17.8115 2.47025 15.9469C1.39599 14.0822 0.946007 11.9229 1.18601 9.78432C1.42582 7.64556 2.34317 5.63949 3.80407 4.05912C5.26497 2.47874 7.1929 1.40685 9.30626 1M13.1284 1.00818C14.5476 1.2815 15.8915 1.85649 17.0692 2.69424C18.2469 3.53199 19.2309 4.61295 19.9546 5.86397C20.6784 7.115 21.125 8.50692 21.2641 9.94552C21.4033 11.3841 21.2318 12.8358 20.7612 14.2024" stroke="#8A929A" stroke-linecap="round"/>
<path d="M9.03757 10.3706V8.42064C9.03757 7.23826 10.0143 6.27979 11.2193 6.27979C12.4243 6.27979 13.4011 7.23826 13.4011 8.42064V10.3706M8.49213 10.3706H13.9465C14.5509 10.3706 15.0374 10.8571 15.0374 11.4615V14.4614C15.0374 15.0657 14.5509 15.5523 13.9465 15.5523H8.49213C7.88778 15.5523 7.40125 15.0657 7.40125 14.4614V11.4615C7.40125 10.8571 7.88778 10.3706 8.49213 10.3706Z" stroke="#8A929A"/>
</svg>
