<svg width="14" height="14" viewBox="0 0 14 14" fill="none" xmlns="http://www.w3.org/2000/svg">
<g clip-path="url(#clip0_191_31818)">
<path d="M10.8802 5.0957H6.00521C5.4069 5.0957 4.92188 5.58073 4.92188 6.17904V11.054C4.92188 11.6523 5.4069 12.1374 6.00521 12.1374H10.8802C11.4785 12.1374 11.9635 11.6523 11.9635 11.054V6.17904C11.9635 5.58073 11.4785 5.0957 10.8802 5.0957Z" stroke="#EDF7FF" stroke-linecap="round" stroke-linejoin="round"/>
<path d="M2.75391 8.34538H2.21224C1.92492 8.34538 1.64937 8.23124 1.44621 8.02808C1.24304 7.82491 1.12891 7.54936 1.12891 7.26204V2.38704C1.12891 2.09973 1.24304 1.82418 1.44621 1.62101C1.64937 1.41785 1.92492 1.30371 2.21224 1.30371H7.08724C7.37456 1.30371 7.65011 1.41785 7.85327 1.62101C8.05644 1.82418 8.17057 2.09973 8.17057 2.38704V2.92871" stroke="#EDF7FF" stroke-linecap="round" stroke-linejoin="round"/>
</g>
<defs>
<clipPath id="clip0_191_31818">
<rect width="13" height="13" fill="white" transform="translate(0.046875 0.220703)"/>
</clipPath>
</defs>
</svg>
