<svg width="35" height="35" viewBox="0 0 35 35" fill="none" xmlns="http://www.w3.org/2000/svg">
<circle cx="17.5" cy="17.5" r="17.5" fill="white"/>
<g clip-path="url(#clip0_1845_39845)">
<path fill-rule="evenodd" clip-rule="evenodd" d="M9.2602 7.11296L4.51949 17.2393C4.50145 17.277 4.49573 17.3195 4.50318 17.3607C4.51062 17.4019 4.53083 17.4396 4.56085 17.4683L17.3644 29.9447C17.4007 29.9802 17.4492 30 17.4996 30C17.55 30 17.5984 29.9802 17.6348 29.9447L30.4383 17.4691C30.4683 17.4404 30.4885 17.4027 30.496 17.3615C30.5034 17.3203 30.4977 17.2777 30.4797 17.2401L25.7389 7.11374C25.7236 7.07973 25.699 7.05092 25.6681 7.03076C25.6371 7.01059 25.6011 6.99992 25.5643 7.00002H9.43638C9.39943 6.99955 9.36313 7.00996 9.33187 7.03C9.30061 7.05005 9.27572 7.07886 9.2602 7.11296Z" fill="#50AF95"/>
<path fill-rule="evenodd" clip-rule="evenodd" d="M19.1444 18.2793C19.0524 18.2863 18.5775 18.3151 17.5182 18.3151C16.6756 18.3151 16.0773 18.2894 15.8675 18.2793C12.6112 18.1336 10.1807 17.5572 10.1807 16.867C10.1807 16.1769 12.6112 15.6012 15.8675 15.4532V17.7052C16.0804 17.7207 16.6901 17.7574 17.5327 17.7574C18.5438 17.7574 19.0501 17.7145 19.1413 17.7059V15.4548C22.3906 15.602 24.8157 16.1784 24.8157 16.867C24.8157 17.5556 22.3914 18.132 19.1413 18.2785L19.1444 18.2793ZM19.1444 15.2219V13.2067H23.679V10.1338H11.3328V13.2067H15.8667V15.2211C12.1815 15.3932 9.41016 16.1356 9.41016 17.0251C9.41016 17.9147 12.1815 18.6563 15.8667 18.8292V25.2867H19.1436V18.8269C22.8203 18.6547 25.5871 17.9131 25.5871 17.0244C25.5871 16.1356 22.8226 15.394 19.1436 15.2211L19.1444 15.2219Z" fill="white"/>
</g>
<defs>
<clipPath id="clip0_1845_39845">
<rect width="26" height="23" fill="white" transform="translate(4.5 7)"/>
</clipPath>
</defs>
</svg>
