<svg width="19" height="19" viewBox="0 0 19 19" fill="none" xmlns="http://www.w3.org/2000/svg">
<g clip-path="url(#clip0_2001_22223)">
<path d="M9.46875 0.986328V17.4863" stroke="#EDF7FF" stroke-width="1.5" stroke-linecap="round" stroke-linejoin="round"/>
<path d="M13.2188 3.98633H7.59375C6.89756 3.98633 6.22988 4.26289 5.73759 4.75517C5.24531 5.24746 4.96875 5.91513 4.96875 6.61133C4.96875 7.30752 5.24531 7.9752 5.73759 8.46748C6.22988 8.95977 6.89756 9.23633 7.59375 9.23633H11.3438C12.0399 9.23633 12.7076 9.51289 13.1999 10.0052C13.6922 10.4975 13.9688 11.1651 13.9688 11.8613C13.9688 12.5575 13.6922 13.2252 13.1999 13.7175C12.7076 14.2098 12.0399 14.4863 11.3438 14.4863H4.96875" stroke="#EDF7FF" stroke-width="1.5" stroke-linecap="round" stroke-linejoin="round"/>
</g>
<defs>
<clipPath id="clip0_2001_22223">
<rect width="18" height="18" fill="white" transform="translate(0.46875 0.236328)"/>
</clipPath>
</defs>
</svg>
