<svg width="106" height="100" viewBox="0 0 106 100" fill="none" xmlns="http://www.w3.org/2000/svg">
<path d="M33.7365 92.5413C51.8558 92.5413 66.5444 77.6368 66.5444 59.2511C66.5444 40.8655 51.8558 25.9609 33.7365 25.9609C15.6173 25.9609 0.928711 40.8655 0.928711 59.2511C0.928711 77.6368 15.6173 92.5413 33.7365 92.5413Z" fill="#FFB51F"/>
<path d="M33.737 28.8174C27.8247 28.8174 22.0451 30.5964 17.1292 33.9294C12.2133 37.2624 8.3818 41.9997 6.11925 47.5423C3.8567 53.0849 3.26472 59.1838 4.41815 65.0677C5.57159 70.9517 8.41865 76.3565 12.5993 80.5986C16.7799 84.8407 22.1064 87.7296 27.9051 88.9C33.7038 90.0704 39.7144 89.4697 45.1767 87.1739C50.6389 84.8781 55.3076 80.9903 58.5923 76.0021C61.877 71.0139 63.6302 65.1494 63.6302 59.1501C63.6302 55.1668 62.857 51.2224 61.3548 47.5423C59.8525 43.8621 57.6506 40.5183 54.8747 37.7016C52.0989 34.885 48.8035 32.6507 45.1767 31.1263C41.5498 29.602 37.6626 28.8174 33.737 28.8174Z" fill="#EC6D00"/>
<path d="M33.737 32.4824C28.5081 32.4775 23.3954 34.0479 19.0471 36.9946C14.6988 39.9414 11.3105 44.1318 9.31182 49.0346C7.31312 53.9375 6.79397 59.3321 7.82016 64.5347C8.84635 69.7373 11.3717 74.5137 15.0761 78.2583C18.7804 82.003 23.4971 84.5473 28.6282 85.5689C33.7592 86.5905 39.0737 86.0433 43.8979 83.9967C48.7222 81.9501 52.839 78.4962 55.7265 74.0728C58.6141 69.6494 60.1424 64.4557 60.1177 59.15C60.0848 52.0701 57.2917 45.2912 52.3486 40.2944C47.4055 35.2976 40.7143 32.489 33.737 32.4824Z" fill="#FFA400"/>
<path d="M33.8614 48.1294L29.1034 40.3945L28.082 41.0517L32.6407 48.4833V70.2975L39.6158 77.3752L40.4877 76.4905L33.8614 69.7667V48.1294Z" fill="#CE5900"/>
<path d="M21.6795 44.3887L20.8574 45.2987C23.7222 47.978 27.8325 51.9971 28.3307 52.8818V68.9076L23.1991 74.317L24.0709 75.1764L29.6012 69.2615V52.5785C29.6012 52.3763 29.6012 51.896 21.6795 44.3887Z" fill="#CE5900"/>
<path d="M23.3988 59.0488H16.7725V60.2874H23.3988V59.0488Z" fill="#CE5900"/>
<path d="M38.0214 49.9494L42.3061 41.8607L41.2349 41.2793L36.8008 49.6461V66.6577H49.6051V65.4191H38.0214V49.9494Z" fill="#CE5900"/>
<path d="M50.6761 53.6396H44.0996V54.8782H50.6761V53.6396Z" fill="#CE5900"/>
<path d="M20.4587 42.2646C19.9038 42.2646 19.3715 42.4884 18.9791 42.8865C18.5867 43.2847 18.3662 43.8248 18.3662 44.3879C18.3662 44.9511 18.5867 45.4911 18.9791 45.8893C19.3715 46.2875 19.9038 46.5112 20.4587 46.5112C21.0137 46.5112 21.546 46.2875 21.9384 45.8893C22.3308 45.4911 22.5513 44.9511 22.5513 44.3879C22.5513 43.8248 22.3308 43.2847 21.9384 42.8865C21.546 42.4884 21.0137 42.2646 20.4587 42.2646ZM20.4587 45.2726C20.2275 45.2726 20.0057 45.1794 19.8422 45.0135C19.6787 44.8476 19.5869 44.6226 19.5869 44.3879C19.5869 44.2718 19.6094 44.1567 19.6532 44.0494C19.697 43.942 19.7613 43.8445 19.8422 43.7624C19.9232 43.6802 20.0193 43.615 20.1251 43.5706C20.2309 43.5261 20.3442 43.5032 20.4587 43.5032C20.5732 43.5032 20.6866 43.5261 20.7924 43.5706C20.8982 43.615 20.9943 43.6802 21.0753 43.7624C21.1562 43.8445 21.2204 43.942 21.2643 44.0494C21.3081 44.1567 21.3306 44.2718 21.3306 44.3879C21.3341 44.5051 21.3139 44.6217 21.2713 44.7306C21.2287 44.8395 21.1646 44.9384 21.0829 45.0213C21.0013 45.1042 20.9038 45.1692 20.7964 45.2124C20.6891 45.2557 20.5742 45.2761 20.4587 45.2726Z" fill="#CE5900"/>
<path d="M22.6511 73.3564C22.2373 73.3564 21.8327 73.481 21.4886 73.7143C21.1445 73.9476 20.8763 74.2792 20.7179 74.6672C20.5595 75.0552 20.5181 75.4821 20.5988 75.894C20.6795 76.3058 20.8788 76.6842 21.1715 76.9811C21.4641 77.2781 21.837 77.4803 22.2429 77.5622C22.6488 77.6442 23.0695 77.6021 23.4519 77.4414C23.8343 77.2807 24.1611 77.0085 24.391 76.6594C24.6209 76.3102 24.7436 75.8997 24.7436 75.4797C24.7372 74.9186 24.5146 74.3824 24.1236 73.9856C23.7326 73.5888 23.2041 73.363 22.6511 73.3564ZM22.6511 76.3644C22.4199 76.3644 22.1981 76.2712 22.0346 76.1053C21.8711 75.9394 21.7792 75.7144 21.7792 75.4797C21.7792 75.2451 21.8711 75.0201 22.0346 74.8542C22.1981 74.6882 22.4199 74.595 22.6511 74.595C22.8824 74.595 23.1041 74.6882 23.2676 74.8542C23.4311 75.0201 23.523 75.2451 23.523 75.4797C23.523 75.7144 23.4311 75.9394 23.2676 76.1053C23.1041 76.2712 22.8824 76.3644 22.6511 76.3644Z" fill="#CE5900"/>
<path d="M15.8757 57.4824C15.4619 57.4824 15.0573 57.607 14.7132 57.8403C14.3691 58.0736 14.1009 58.4052 13.9425 58.7932C13.7841 59.1811 13.7427 59.6081 13.8234 60.0199C13.9042 60.4318 14.1034 60.8102 14.3961 61.1071C14.6887 61.4041 15.0616 61.6063 15.4675 61.6882C15.8734 61.7701 16.2941 61.7281 16.6765 61.5674C17.0589 61.4067 17.3857 61.1345 17.6156 60.7853C17.8455 60.4362 17.9683 60.0257 17.9683 59.6057C17.9683 59.0426 17.7478 58.5025 17.3554 58.1043C16.9629 57.7061 16.4307 57.4824 15.8757 57.4824ZM15.8757 60.4904C15.6445 60.4904 15.4227 60.3972 15.2592 60.2313C15.0957 60.0654 15.0038 59.8404 15.0038 59.6057C15.0038 59.3711 15.0957 59.146 15.2592 58.9801C15.4227 58.8142 15.6445 58.721 15.8757 58.721C16.107 58.721 16.3287 58.8142 16.4922 58.9801C16.6558 59.146 16.7476 59.3711 16.7476 59.6057C16.7476 59.7219 16.7251 59.8369 16.6812 59.9443C16.6374 60.0516 16.5732 60.1491 16.4922 60.2313C16.4113 60.3134 16.3152 60.3786 16.2094 60.4231C16.1036 60.4675 15.9902 60.4904 15.8757 60.4904Z" fill="#CE5900"/>
<path d="M24.8933 57.4824C24.3383 57.4824 23.8061 57.7061 23.4137 58.1043C23.0212 58.5025 22.8008 59.0426 22.8008 59.6057C22.8008 60.1688 23.0212 60.7089 23.4137 61.1071C23.8061 61.5053 24.3383 61.729 24.8933 61.729C25.4483 61.729 25.9805 61.5053 26.3729 61.1071C26.7654 60.7089 26.9858 60.1688 26.9858 59.6057C26.9858 59.0426 26.7654 58.5025 26.3729 58.1043C25.9805 57.7061 25.4483 57.4824 24.8933 57.4824ZM24.8933 60.4904C24.6621 60.4904 24.4403 60.3972 24.2768 60.2313C24.1133 60.0654 24.0214 59.8404 24.0214 59.6057C24.018 59.4886 24.0382 59.372 24.0808 59.2631C24.1234 59.1541 24.1875 59.0552 24.2691 58.9723C24.3508 58.8895 24.4483 58.8244 24.5556 58.7812C24.663 58.738 24.7779 58.7175 24.8933 58.721C25.1245 58.721 25.3463 58.8142 25.5098 58.9801C25.6733 59.146 25.7652 59.3711 25.7652 59.6057C25.7652 59.8404 25.6733 60.0654 25.5098 60.2313C25.3463 60.3972 25.1245 60.4904 24.8933 60.4904Z" fill="#CE5900"/>
<path d="M40.7869 75.6056C40.3671 75.6006 39.9553 75.7223 39.6038 75.9554C39.2523 76.1884 38.977 76.5222 38.813 76.9143C38.6489 77.3064 38.6034 77.7392 38.6822 78.1576C38.7611 78.5761 38.9608 78.9613 39.2559 79.2643C39.551 79.5673 39.9282 79.7745 40.3396 79.8594C40.751 79.9444 41.1781 79.9034 41.5664 79.7415C41.9548 79.5797 42.287 79.3043 42.5208 78.9505C42.7545 78.5966 42.8794 78.1802 42.8794 77.7542C42.8794 77.1887 42.6598 76.646 42.2681 76.2438C41.8763 75.8416 41.3441 75.6123 40.7869 75.6056ZM40.7869 78.6389C40.6075 78.6439 40.4307 78.5941 40.2795 78.4961C40.1283 78.3981 40.0095 78.2562 39.9386 78.089C39.8676 77.9217 39.8478 77.7367 39.8816 77.5578C39.9154 77.379 40.0013 77.2146 40.1282 77.0858C40.2551 76.957 40.4171 76.8699 40.5934 76.8356C40.7696 76.8013 40.952 76.8214 41.1168 76.8934C41.2817 76.9654 41.4214 77.0859 41.5181 77.2393C41.6147 77.3928 41.6637 77.5722 41.6588 77.7542C41.6588 77.8704 41.6362 77.9854 41.5924 78.0927C41.5486 78.2001 41.4844 78.2976 41.4034 78.3798C41.3224 78.4619 41.2263 78.5271 41.1205 78.5715C41.0148 78.616 40.9014 78.6389 40.7869 78.6389Z" fill="#CE5900"/>
<path d="M50.5769 63.9023C50.163 63.9023 49.7585 64.0269 49.4144 64.2602C49.0702 64.4935 48.802 64.8251 48.6437 65.2131C48.4853 65.6011 48.4438 66.028 48.5246 66.4399C48.6053 66.8518 48.8046 67.2301 49.0973 67.527C49.3899 67.824 49.7628 68.0262 50.1687 68.1081C50.5746 68.1901 50.9953 68.148 51.3777 67.9873C51.76 67.8266 52.0868 67.5545 52.3168 67.2053C52.5467 66.8561 52.6694 66.4456 52.6694 66.0256C52.663 65.4645 52.4404 64.9283 52.0494 64.5315C51.6584 64.1347 51.1299 63.9089 50.5769 63.9023ZM50.5769 66.9103C50.3457 66.9103 50.1239 66.8171 49.9604 66.6512C49.7969 66.4853 49.705 66.2603 49.705 66.0256C49.705 65.791 49.7969 65.566 49.9604 65.4001C50.1239 65.2341 50.3457 65.1409 50.5769 65.1409C50.8081 65.1409 51.0299 65.2341 51.1934 65.4001C51.3569 65.566 51.4488 65.791 51.4488 66.0256C51.4488 66.2603 51.3569 66.4853 51.1934 66.6512C51.0299 66.8171 50.8081 66.9103 50.5769 66.9103Z" fill="#CE5900"/>
<path d="M51.6472 52.1484C51.2334 52.1484 50.8288 52.273 50.4847 52.5063C50.1406 52.7396 49.8723 53.0712 49.714 53.4592C49.5556 53.8472 49.5142 54.2741 49.5949 54.686C49.6756 55.0978 49.8749 55.4762 50.1676 55.7731C50.4602 56.0701 50.8331 56.2723 51.239 56.3542C51.6449 56.4362 52.0656 56.3941 52.448 56.2334C52.8303 56.0727 53.1572 55.8005 53.3871 55.4514C53.617 55.1022 53.7397 54.6917 53.7397 54.2717C53.7333 53.7106 53.5107 53.1744 53.1197 52.7776C52.7287 52.3808 52.2002 52.155 51.6472 52.1484ZM51.6472 55.1564C51.4748 55.1564 51.3062 55.1045 51.1628 55.0073C51.0194 54.9101 50.9077 54.772 50.8417 54.6103C50.7757 54.4486 50.7584 54.2707 50.7921 54.0991C50.8257 53.9275 50.9088 53.7699 51.0307 53.6461C51.1526 53.5224 51.308 53.4382 51.4771 53.404C51.6462 53.3699 51.8216 53.3874 51.9809 53.4544C52.1402 53.5213 52.2764 53.6347 52.3722 53.7802C52.468 53.9257 52.5191 54.0968 52.5191 54.2717C52.5191 54.3879 52.4965 54.503 52.4527 54.6103C52.4089 54.7176 52.3447 54.8152 52.2637 54.8973C52.1828 54.9795 52.0867 55.0446 51.9809 55.0891C51.8751 55.1336 51.7617 55.1564 51.6472 55.1564Z" fill="#CE5900"/>
<path d="M42.3561 38.7765C41.9352 38.7715 41.5224 38.8939 41.1704 39.1281C40.8184 39.3622 40.5432 39.6975 40.3798 40.0911C40.2165 40.4847 40.1724 40.9188 40.2534 41.3379C40.3343 41.7571 40.5364 42.1422 40.8341 42.4442C41.1317 42.7462 41.5112 42.9513 41.9243 43.0334C42.3373 43.1155 42.7651 43.0709 43.153 42.9051C43.541 42.7394 43.8714 42.4601 44.1021 42.1029C44.3329 41.7457 44.4535 41.3269 44.4486 40.8998C44.4421 40.3387 44.2196 39.8024 43.8286 39.4057C43.4375 39.0089 42.909 38.7831 42.3561 38.7765ZM42.3561 41.8098C42.2275 41.8318 42.0958 41.825 41.97 41.79C41.8443 41.7551 41.7276 41.6927 41.628 41.6073C41.5285 41.5219 41.4485 41.4154 41.3936 41.2954C41.3388 41.1754 41.3103 41.0447 41.3103 40.9124C41.3103 40.7802 41.3388 40.6495 41.3936 40.5295C41.4485 40.4095 41.5285 40.303 41.628 40.2176C41.7276 40.1322 41.8443 40.0698 41.97 40.0348C42.0958 39.9999 42.2275 39.9931 42.3561 40.0151C42.5651 40.0508 42.755 40.1606 42.8919 40.3248C43.0288 40.4891 43.1039 40.6973 43.1039 40.9124C43.1039 41.1276 43.0288 41.3358 42.8919 41.5C42.755 41.6643 42.5651 41.7741 42.3561 41.8098Z" fill="#CE5900"/>
<path d="M28.032 37.917C27.6181 37.917 27.2135 38.0415 26.8694 38.2748C26.5253 38.5081 26.2571 38.8398 26.0987 39.2277C25.9404 39.6157 25.8989 40.0426 25.9797 40.4545C26.0604 40.8664 26.2597 41.2447 26.5523 41.5417C26.845 41.8386 27.2178 42.0408 27.6238 42.1228C28.0297 42.2047 28.4504 42.1627 28.8328 42.0019C29.2151 41.8412 29.5419 41.5691 29.7719 41.2199C30.0018 40.8707 30.1245 40.4602 30.1245 40.0403C30.118 39.4792 29.8955 38.9429 29.5045 38.5461C29.1134 38.1494 28.5849 37.9236 28.032 37.917ZM28.032 40.925C27.8595 40.925 27.691 40.8731 27.5476 40.7759C27.4042 40.6787 27.2925 40.5405 27.2265 40.3788C27.1605 40.2172 27.1432 40.0393 27.1768 39.8677C27.2105 39.6961 27.2935 39.5384 27.4155 39.4147C27.5374 39.291 27.6928 39.2067 27.8619 39.1726C28.031 39.1384 28.2063 39.156 28.3656 39.2229C28.525 39.2899 28.6611 39.4033 28.7569 39.5488C28.8527 39.6943 28.9039 39.8653 28.9039 40.0403C28.9039 40.2749 28.812 40.4999 28.6485 40.6659C28.485 40.8318 28.2632 40.925 28.032 40.925Z" fill="#CE5900"/>
<path d="M42.6052 52.1484C42.1914 52.1484 41.7868 52.273 41.4427 52.5063C41.0986 52.7396 40.8304 53.0712 40.672 53.4592C40.5136 53.8472 40.4722 54.2741 40.5529 54.686C40.6336 55.0978 40.8329 55.4762 41.1256 55.7731C41.4182 56.0701 41.7911 56.2723 42.197 56.3542C42.6029 56.4362 43.0236 56.3941 43.406 56.2334C43.7884 56.0727 44.1152 55.8005 44.3451 55.4514C44.575 55.1022 44.6977 54.6917 44.6977 54.2717C44.6977 53.7086 44.4773 53.1685 44.0849 52.7703C43.6924 52.3721 43.1602 52.1484 42.6052 52.1484ZM42.6052 55.1564C42.4328 55.1564 42.2642 55.1045 42.1208 55.0073C41.9774 54.9101 41.8657 54.772 41.7997 54.6103C41.7337 54.4486 41.7164 54.2707 41.7501 54.0991C41.7837 53.9275 41.8668 53.7699 41.9887 53.6461C42.1106 53.5224 42.266 53.4382 42.4351 53.404C42.6043 53.3699 42.7796 53.3874 42.9389 53.4544C43.0982 53.5213 43.2344 53.6347 43.3302 53.7802C43.426 53.9257 43.4771 54.0968 43.4771 54.2717C43.4771 54.5064 43.3853 54.7314 43.2217 54.8973C43.0582 55.0632 42.8365 55.1564 42.6052 55.1564Z" fill="#CE5900"/>
<path d="M33.7365 25.9609C29.1489 25.9583 24.6118 26.9334 20.4192 28.8232C16.2266 30.713 12.472 33.4754 9.39844 36.9313C15.4328 30.7973 23.5868 27.293 32.1273 27.1635C40.6678 27.0339 48.9215 30.2891 55.1339 36.2373C61.3462 42.1855 65.0275 50.3577 65.3952 59.0167C65.763 67.6757 62.7881 76.1389 57.1031 82.6073C61.6396 77.932 64.7135 72.0006 65.9386 65.5583C67.1637 59.116 66.4853 52.45 63.9887 46.3976C61.4921 40.3452 57.2886 35.1764 51.9062 31.5404C46.5239 27.9043 40.2026 25.9632 33.7365 25.9609Z" fill="#FFD683"/>
<path d="M33.7362 32.4824C29.4019 32.485 25.1349 33.5702 21.3118 35.6421C17.4886 37.714 14.2269 40.709 11.8145 44.3627C15.8413 38.5638 21.9735 34.6256 28.8619 33.4144C35.7504 32.2033 42.8309 33.8183 48.5458 37.9044C54.2607 41.9905 58.1418 48.2128 59.3355 55.2025C60.5291 62.1922 58.9374 69.3768 54.9105 75.1757C57.8247 71.196 59.5912 66.4727 60.0128 61.5331C60.4343 56.5936 59.4944 51.6324 57.2978 47.2036C55.1013 42.7748 51.7347 39.0528 47.574 36.4532C43.4133 33.8536 38.6223 32.4789 33.7362 32.4824Z" fill="#CE5900"/>
<g style="mix-blend-mode:soft-light" opacity="0.3">
<path d="M33.7362 25.9611C28.0756 25.9456 22.5099 27.4359 17.5939 30.2835C15.0082 35.1255 13.6633 40.5493 13.6828 46.0565C13.6778 51.876 15.1774 57.595 18.0319 62.6424C20.8864 67.6899 24.9959 71.8892 29.9501 74.821C34.9042 77.7528 40.5297 79.3145 46.2648 79.3501C51.9998 79.3858 57.6438 77.8942 62.633 75.0243C65.3223 69.9523 66.6688 64.2591 66.5409 58.5011C66.413 52.7431 64.8151 47.1173 61.9033 42.1734C58.9915 37.2295 54.8655 33.1368 49.9284 30.2951C44.9914 27.4535 39.4122 25.9601 33.7362 25.9611Z" fill="white"/>
</g>
<path d="M1.47683 58.8722C1.47948 53.4796 2.77317 48.1683 5.2466 43.3953C7.72004 38.6222 11.2992 34.5304 15.6761 31.4717C12.0388 33.886 8.91053 37.0096 6.473 40.6611C4.03547 44.3126 2.33728 48.4191 1.47707 52.7422C0.616864 57.0653 0.61179 61.5187 1.46214 65.8438C2.3125 70.1688 4.00132 74.2794 6.43053 77.9366C8.85973 81.5937 11.9809 84.7247 15.6127 87.1475C19.2445 89.5704 23.3145 91.2368 27.5864 92.0501C31.8583 92.8633 36.2468 92.8071 40.4971 91.8848C44.7474 90.9624 48.7748 89.1923 52.3452 86.6773C47.3967 89.9781 41.6606 91.8594 35.7444 92.122C29.8282 92.3846 23.9521 91.0187 18.7385 88.1689C13.5249 85.3192 9.168 81.0916 6.1292 75.9341C3.09039 70.7766 1.48285 64.8812 1.47683 58.8722Z" fill="#CE5900"/>
<g style="mix-blend-mode:multiply" opacity="0.3">
<path d="M39.7899 26.543C37.4525 31.1409 36.2181 36.234 36.1871 41.4075C36.1561 46.5811 37.3295 51.6889 39.6116 56.3154C41.8937 60.9418 45.2202 64.9562 49.3203 68.0316C53.4203 71.107 58.1781 73.1567 63.2063 74.0137C65.4561 69.4032 66.6213 64.326 66.6104 59.1813C66.5994 54.0365 65.4126 48.9645 63.1432 44.3639C60.8738 39.7633 57.5837 35.7595 53.5315 32.6672C49.4794 29.575 44.7756 27.4787 39.7899 26.543Z" fill="#B09FB0"/>
</g>
<path d="M73.1711 5.86625C66.6803 5.85625 60.3323 7.80018 54.9305 11.4521C49.5288 15.1039 45.316 20.2997 42.8252 26.3818C40.3344 32.4639 39.6776 39.159 40.9378 45.62C42.1981 52.081 45.3188 58.0174 49.9051 62.6782C54.4913 67.339 60.337 70.5146 66.7025 71.8032C73.0679 73.0918 79.6671 72.4355 85.6648 69.9173C91.6626 67.3992 96.7894 63.1323 100.397 57.6567C104.004 52.1811 105.929 45.7427 105.929 39.1564C105.929 30.3361 102.479 21.8762 96.3376 15.6346C90.1957 9.3929 81.8637 5.87964 73.1711 5.86625Z" fill="#FFB51F"/>
<path d="M73.1706 8.79785C67.2583 8.79785 61.4787 10.5768 56.5628 13.9098C51.6469 17.2428 47.8154 21.9802 45.5528 27.5227C43.2903 33.0653 42.6983 39.1642 43.8517 45.0482C45.0052 50.9322 47.8522 56.337 52.0329 60.5791C56.2135 64.8212 61.54 67.7101 67.3387 68.8805C73.1374 70.0509 79.148 69.4502 84.6102 67.1544C90.0725 64.8586 94.7412 60.9707 98.0259 55.9825C101.311 50.9944 103.064 45.1298 103.064 39.1306C103.064 31.0858 99.9144 23.3706 94.3083 17.6821C88.7022 11.9936 81.0988 8.79785 73.1706 8.79785Z" fill="#EC6D00"/>
<path d="M73.1703 12.3877C67.9467 12.3877 62.8405 13.9598 58.4975 16.905C54.1546 19.8503 50.7701 24.0364 48.7723 28.9339C46.7744 33.8313 46.253 39.2199 47.2739 44.4181C48.2948 49.6163 50.8121 54.3905 54.5075 58.1367C58.2029 61.8829 62.9103 64.4328 68.0341 65.4638C73.158 66.4948 78.4681 65.9605 83.2926 63.9287C88.1172 61.8968 92.2395 58.4587 95.138 54.0491C98.0365 49.6395 99.581 44.4567 99.576 39.1563C99.5694 32.0545 96.7845 25.2459 91.8332 20.2265C86.8819 15.2071 80.1693 12.3877 73.1703 12.3877Z" fill="#FFA400"/>
<path d="M73.1711 5.86621C68.5837 5.86513 64.0471 6.84099 59.8548 8.7307C55.6624 10.6204 51.9075 13.3819 48.833 16.8366C54.8857 10.791 63.0131 7.36284 71.5057 7.27299C79.9983 7.18313 88.1944 10.4386 94.37 16.3547C100.546 22.2709 104.22 30.3866 104.619 38.995C105.019 47.6034 102.113 56.0336 96.5127 62.5126C101.048 57.8388 104.121 51.9098 105.347 45.4698C106.573 39.0298 105.897 32.3659 103.403 26.3145C100.91 20.2632 96.71 15.0941 91.3315 11.4561C85.9529 7.81817 79.6351 5.87349 73.1711 5.86621Z" fill="#FFD683"/>
<path d="M73.1707 12.3878C68.8342 12.3932 64.5658 13.4822 60.7425 15.5586C56.9191 17.635 53.6586 20.635 51.249 24.2934C55.3186 18.6133 61.4266 14.7854 68.2541 13.6363C75.0815 12.4872 82.0804 14.1092 87.7393 18.1519C93.3982 22.1946 97.2629 28.3336 98.4989 35.2431C99.7348 42.1527 98.2429 49.2783 94.3451 55.0811C97.2689 51.1039 99.0435 46.379 99.47 41.4361C99.8965 36.4931 98.9581 31.5272 96.7598 27.095C94.5616 22.6627 91.1904 18.9391 87.024 16.3415C82.8577 13.7439 78.0607 12.3748 73.1707 12.3878Z" fill="#CE5900"/>
<path d="M40.7865 38.9282C40.7732 33.5031 42.0667 28.157 44.5545 23.355C47.0423 18.553 50.6489 14.4407 55.0605 11.376C47.8459 16.3134 42.8597 23.9568 41.1989 32.6246C39.5381 41.2925 41.3387 50.2748 46.2047 57.5955C51.0706 64.9162 58.6032 69.9757 67.1455 71.6609C75.6877 73.3461 84.5398 71.519 91.7545 66.5815C86.8172 69.9113 81.0831 71.8214 75.1615 72.1087C69.24 72.3961 63.3524 71.05 58.1245 68.2136C52.8966 65.3771 48.5238 61.1563 45.471 55.9997C42.4181 50.8432 40.7993 44.9437 40.7865 38.9282Z" fill="#CE5900"/>
<path d="M82.7619 41.0775C82.1665 40.3834 81.4691 39.7865 80.6943 39.3081C79.8997 38.825 79.0664 38.4107 78.2032 38.0695C77.3153 37.73 76.4086 37.4431 75.4879 37.2101L72.7477 36.5276C71.6456 36.2799 70.5565 35.9762 69.4844 35.6176C68.7432 35.3829 68.0386 35.0425 67.3918 34.6066C66.909 34.285 66.5283 33.8285 66.2958 33.2921C66.0539 32.7262 65.935 32.1141 65.947 31.4975C65.9224 30.7799 66.0733 30.0673 66.3863 29.4233C66.6993 28.7793 67.1645 28.224 67.7406 27.807C69.2063 26.8021 70.9568 26.3136 72.7228 26.4167C77.2068 26.4167 79.673 28.4136 80.0466 32.4327H83.858C83.9012 30.9987 83.6553 29.5709 83.1356 28.2367C82.5387 27.0212 81.6887 25.9517 80.6445 25.1023C79.6011 24.2346 78.4109 23.5666 77.1321 23.1307C75.6658 22.6615 74.1356 22.4312 72.5982 22.4482C71.1343 22.4307 69.6777 22.6614 68.2886 23.1307C67.0803 23.5657 65.9583 24.2162 64.9755 25.0517C64.0621 25.8516 63.3311 26.8435 62.8331 27.9586C61.8881 30.1621 61.8079 32.6485 62.6089 34.9099C62.9875 35.8728 63.575 36.7367 64.3278 37.4376C65.2033 38.2349 66.2056 38.8759 67.2922 39.3334C68.681 39.9269 70.1137 40.4086 71.5769 40.7742C73.2958 41.1786 74.7406 41.5578 75.9114 41.937C76.9144 42.2135 77.8714 42.6394 78.7513 43.2008C79.4059 43.6012 79.9467 44.1674 80.3207 44.8439C80.6489 45.5784 80.8187 46.3755 80.8187 47.182C80.8187 47.9885 80.6489 48.7857 80.3207 49.5202C79.9754 50.2265 79.4721 50.8411 78.8509 51.3148C78.1513 51.8246 77.3663 52.2015 76.5342 52.427C75.5544 52.7111 74.5388 52.8474 73.52 52.8315C72.4346 52.8354 71.3537 52.6908 70.3064 52.4018C69.3517 52.1259 68.4562 51.6716 67.6659 51.0621C66.8738 50.4411 66.2202 49.6572 65.7477 48.7618C65.2441 47.7438 64.9396 46.6365 64.8509 45.5011H61.1143C61.126 47.0593 61.4216 48.6018 61.9861 50.051C62.5049 51.4023 63.3132 52.6197 64.3527 53.6151C65.4773 54.6523 66.8 55.4439 68.2388 55.9406C70.0066 56.5284 71.8593 56.8104 73.7192 56.7747C75.2137 56.7909 76.6988 56.534 78.1036 56.0164C79.3774 55.5557 80.5527 54.8521 81.5662 53.9437C82.5434 53.0783 83.3251 52.0092 83.858 50.8093C84.4165 49.5461 84.697 48.1746 84.6801 46.7902C84.7013 45.6719 84.5241 44.5588 84.157 43.5042C83.8528 42.6105 83.3789 41.7861 82.7619 41.0775Z" fill="#CE5900"/>
<path d="M71.7761 16.8613H68.3135V62.3857H71.7761V16.8613Z" fill="#CE5900"/>
<path d="M77.9538 16.8613H74.4912V62.3857H77.9538V16.8613Z" fill="#CE5900"/>
<g style="mix-blend-mode:soft-light" opacity="0.3">
<path d="M73.1706 5.86623C67.4955 5.86061 61.9161 7.34999 56.9784 10.1886C53.6059 16.5466 52.362 23.8448 53.4342 30.9828C54.5065 38.1208 57.8368 44.7116 62.923 49.7612C68.0091 54.8109 74.5754 58.0458 81.6317 58.978C88.6879 59.9102 95.8516 58.4893 102.042 54.9294C104.716 49.8574 106.05 44.1699 105.916 38.4197C105.782 32.6695 104.185 27.0523 101.279 22.1139C98.3727 17.1755 94.257 13.084 89.3317 10.237C84.4064 7.38992 78.839 5.88423 73.1706 5.86623Z" fill="white"/>
</g>
<path d="M71.3523 84.8067C69.7666 88.186 67.1446 90.953 63.8789 92.6932C57.1281 95.6253 48.3594 93.0723 48.3594 93.0723C50.8891 95.3697 53.8833 97.0782 57.1321 98.0781C60.3809 99.078 63.8059 99.3451 67.1672 98.8608C74.3914 98.1278 80.395 90.949 81.2917 89.8368L84.8789 91.6821V73.0527L68.2882 83.1636L71.3523 84.8067Z" fill="#2B77BF"/>
<path d="M36.2772 1.16428C29.0032 1.89732 22.9498 9.12662 22.053 10.2388L18.3662 8.39358V27.1746L35.0815 17.0637L31.9178 15.4207C33.5036 12.0225 36.1235 9.23119 39.3911 7.45832C46.1918 4.52616 55.0103 7.10444 55.0103 7.10444C52.501 4.79217 49.525 3.06284 46.2897 2.03695C43.0544 1.01105 39.6376 0.713243 36.2772 1.16428Z" fill="#2B77BF"/>
</svg>
