<svg width="25" height="24" viewBox="0 0 25 24" fill="none" xmlns="http://www.w3.org/2000/svg">
<path d="M9.63453 10.2451C9.59154 10.7841 9.31451 11.3431 8.91251 11.7041C8.7755 11.8271 8.71653 12.017 8.76153 12.197L8.96553 13.014C9.01053 13.193 9.14951 13.333 9.32951 13.378L11.1205 13.825C11.3675 13.886 11.5975 14.005 11.8045 14.179C12.0165 14.356 12.3315 14.329 12.5095 14.116C12.6855 13.904 12.6575 13.589 12.4465 13.411C12.1225 13.14 11.7585 12.953 11.3635 12.853L9.86253 12.479L9.79953 12.227C10.1885 11.797 10.4655 11.248 10.5795 10.678C10.8465 10.54 11.0415 10.277 11.0805 9.962L11.1885 9.09402C11.2215 8.831 11.1405 8.564 10.9655 8.36502C10.9115 8.303 10.8495 8.249 10.7825 8.204L10.8086 7.673L10.8995 7.58098C11.1575 7.30798 11.5065 6.722 10.9545 5.879C10.6925 5.47902 10.1535 5 9.07053 5C8.75154 5 8.03253 5 7.33451 5.43898C5.27651 5.51098 5.0345 6.62 5.0345 7.457C5.0345 7.622 5.0645 7.931 5.09248 8.189C5.01847 8.23602 4.95148 8.294 4.89148 8.36098C4.7135 8.56198 4.63147 8.82997 4.6655 9.09397L4.7735 9.96397C4.81451 10.29 5.02151 10.56 5.32648 10.693C5.43847 11.239 5.7005 11.766 6.06547 12.186L5.99248 12.48L4.4915 12.854C3.2765 13.158 2.42651 14.246 2.42651 15.5C2.42651 15.776 2.65053 16 2.92653 16H9.98351C10.2595 16 10.4835 15.776 10.4835 15.5C10.4835 15.224 10.2596 15.0001 9.98356 15.0001L3.50154 14.9991C3.67254 14.4281 4.13356 13.9741 4.73553 13.8241L6.52751 13.3771C6.70653 13.3321 6.8465 13.1931 6.8915 13.0131L7.1045 12.1601C7.14851 11.9851 7.09348 11.7991 6.9605 11.6751C6.57148 11.3081 6.31451 10.7731 6.27148 10.2431C6.25048 9.98309 6.02848 9.84013 5.76748 9.84013L5.63848 9.04311C5.78248 9.04311 5.91847 8.98109 6.01348 8.87413C6.1085 8.76514 6.15247 8.62311 6.13447 8.48014C6.09645 8.17813 6.03547 7.63316 6.03547 7.45616C6.03547 6.93917 6.03547 6.45017 7.49745 6.43517C7.59945 6.43419 7.69944 6.40217 7.78344 6.34119C8.25955 6.00008 8.80756 6.00008 9.07053 6.00008C9.83853 6.00008 10.0475 6.32009 10.1205 6.42706C10.3235 6.73906 10.2405 6.82705 10.1845 6.88705L9.96753 7.10403C9.87954 7.19202 9.82751 7.30902 9.82151 7.43305L9.76751 8.52205C9.76151 8.65803 9.7775 8.75206 9.87153 8.85205C9.96453 8.95105 10.0615 8.97003 10.1975 8.97205L10.1325 9.78406C9.87153 9.78406 9.65553 9.98408 9.63453 10.2451Z" fill="white"/>
<path d="M14.9265 8.00003H17.9265C18.2025 8.00003 18.4265 7.77602 18.4265 7.50002C18.4265 7.22402 18.2025 7 17.9265 7H14.9265C14.6505 7 14.4265 7.22402 14.4265 7.50002C14.4265 7.77602 14.6505 8.00003 14.9265 8.00003Z" fill="white"/>
<path d="M21.9265 0H2.9265C1.54753 0 0.426514 1.12102 0.426514 2.49998V15.5C0.426514 16.879 1.54753 18 2.9265 18H10.3245C10.6015 18 10.8245 17.776 10.8245 17.5C10.8245 17.224 10.6005 17 10.3245 17H2.9265C2.09948 17 1.4265 16.327 1.4265 15.5V3.99998H23.4265V13.81C23.4265 14.086 23.6505 14.31 23.9265 14.31C24.2025 14.31 24.4265 14.086 24.4265 13.81V2.49998C24.4265 1.12102 23.3055 0 21.9265 0ZM23.4265 3H1.4265V2.49998C1.4265 1.67297 2.09948 0.999984 2.9265 0.999984H21.9265C22.7535 0.999984 23.4265 1.67297 23.4265 2.49998V3H23.4265Z" fill="white"/>
<path d="M21.9265 8.00003C22.2025 8.00003 22.4266 7.77602 22.4266 7.50002C22.4266 7.22402 22.2025 7 21.9265 7H19.9265C19.6505 7 19.4265 7.22402 19.4265 7.50002C19.4265 7.77602 19.6505 8.00003 19.9265 8.00003H21.9265Z" fill="white"/>
<path d="M24.4265 16C24.4265 15.582 24.1155 15.29 23.6705 15.29C23.4195 15.29 22.9895 15.419 22.6195 15.632C22.1305 14.6 21.3305 13.685 20.7575 13.4C20.3785 13.211 19.0875 13 17.9265 13C16.7655 13 15.4745 13.211 15.0945 13.4C14.5235 13.685 13.7235 14.6 13.2335 15.632C12.8625 15.419 12.4325 15.29 12.1815 15.29C11.9915 15.29 11.8285 15.339 11.6975 15.438C11.5235 15.569 11.4265 15.769 11.4265 16C11.4265 16.78 12.0315 17.3209 12.1015 17.38C12.1555 17.4259 12.2175 17.455 12.2815 17.475C12.0425 18.138 11.9265 18.874 11.9265 19.5C11.9265 20.247 11.9955 21.521 12.4265 22.172V23C12.4265 23.561 12.8655 24 13.4265 24H14.4265C14.9875 24 15.4265 23.561 15.4265 23V22.661C16.0305 22.812 16.9725 23 17.9265 23C18.8805 23 19.8225 22.812 20.4265 22.661V23C20.4265 23.561 20.8655 24 21.4265 24H22.4264C22.9874 24 23.4264 23.561 23.4264 23V22.172C23.8574 21.521 23.9264 20.247 23.9264 19.5C23.9264 18.874 23.8104 18.138 23.5715 17.475C23.6354 17.456 23.6975 17.427 23.7515 17.38C23.8215 17.321 24.4265 16.78 24.4265 16ZM15.5395 14.296C15.7265 14.21 16.7935 14 17.9265 14C19.0595 14 20.1265 14.21 20.3105 14.294C20.6895 14.484 21.5696 15.481 21.9195 16.568C20.9795 16.7 18.7575 17 17.9265 17C17.0955 17 14.8725 16.7 13.9325 16.568C14.2825 15.481 15.1625 14.484 15.5395 14.296ZM12.7155 16.585C12.6835 16.553 12.6345 16.501 12.5765 16.416C12.6425 16.447 12.7055 16.482 12.7645 16.517C12.7485 16.54 12.7315 16.561 12.7155 16.585ZM14.4265 23H13.4265V22.5H14.4265V23ZM22.4265 23H21.4265V22.5H22.4265V23ZM22.6565 21.5H20.9265C20.8735 21.5 20.8205 21.509 20.7685 21.525C20.7545 21.53 19.3225 22 17.9265 22C16.5305 22 15.0985 21.53 15.0845 21.526C15.0675 21.521 15.0505 21.525 15.0335 21.522C14.9985 21.514 14.9645 21.5 14.9265 21.5H13.1945C13.0635 21.201 12.9255 20.512 12.9255 19.501C12.9255 19.342 12.9375 19.1731 12.9555 19.0021C13.6275 19.021 14.4265 19.2481 14.4265 19.5001C14.4265 19.7761 14.6505 20.0001 14.9265 20.0001C15.2025 20.0001 15.4265 19.776 15.4265 19.5C15.4265 18.278 13.7765 18.053 13.1515 18.011C13.2075 17.828 13.2745 17.656 13.3505 17.494C13.3515 17.494 13.3525 17.495 13.3535 17.495C13.4935 17.516 16.7945 18 17.9265 18C19.0585 18 22.3595 17.516 22.4995 17.495C22.5005 17.495 22.5005 17.494 22.5015 17.494C22.5775 17.656 22.6445 17.828 22.7005 18.011C22.0755 18.053 20.4265 18.279 20.4265 19.5C20.4265 19.776 20.6505 20 20.9265 20C21.2025 20 21.4265 19.776 21.4265 19.5C21.4265 19.243 22.2205 19.023 22.8965 19.002C22.9145 19.173 22.9265 19.342 22.9265 19.5C22.9265 20.512 22.7875 21.201 22.6565 21.5ZM23.1365 16.584C23.1205 16.561 23.1045 16.539 23.0875 16.517C23.1465 16.482 23.2105 16.446 23.2755 16.415C23.2265 16.489 23.1765 16.544 23.1365 16.584Z" fill="white"/>
<path d="M14.9265 11H21.9265C22.2025 11 22.4265 10.776 22.4265 10.5C22.4265 10.224 22.2025 10 21.9265 10H14.9265C14.6505 10 14.4265 10.224 14.4265 10.5C14.4265 10.776 14.6505 11 14.9265 11Z" fill="white"/>
<path d="M18.9265 19H16.9265C16.6505 19 16.4265 19.224 16.4265 19.5C16.4265 19.776 16.6505 20 16.9265 20H18.9265C19.2025 20 19.4266 19.776 19.4266 19.5C19.4265 19.224 19.2025 19 18.9265 19Z" fill="white"/>
</svg>
