<svg width="18" height="19" viewBox="0 0 18 19" fill="none" xmlns="http://www.w3.org/2000/svg">
<path d="M8.25 3.54004H3C2.60218 3.54004 2.22064 3.69807 1.93934 3.97938C1.65804 4.26068 1.5 4.64221 1.5 5.04004V15.54C1.5 15.9379 1.65804 16.3194 1.93934 16.6007C2.22064 16.882 2.60218 17.04 3 17.04H13.5C13.8978 17.04 14.2794 16.882 14.5607 16.6007C14.842 16.3194 15 15.9379 15 15.54V10.29" stroke="#EDF7FF" stroke-opacity="0.5" stroke-linecap="round" stroke-linejoin="round"/>
<path d="M13.875 2.41521C14.1734 2.11684 14.578 1.94922 15 1.94922C15.422 1.94922 15.8266 2.11684 16.125 2.41521C16.4234 2.71358 16.591 3.11825 16.591 3.54021C16.591 3.96217 16.4234 4.36684 16.125 4.66521L9 11.7902L6 12.5402L6.75 9.54021L13.875 2.41521Z" stroke="#EDF7FF" stroke-opacity="0.5" stroke-linecap="round" stroke-linejoin="round"/>
</svg>
