<svg width="19" height="19" viewBox="0 0 19 19" fill="none" xmlns="http://www.w3.org/2000/svg">
<path d="M9.09766 3.09082H3.84766C3.44983 3.09082 3.0683 3.24886 2.787 3.53016C2.50569 3.81146 2.34766 4.193 2.34766 4.59082V15.0908C2.34766 15.4886 2.50569 15.8702 2.787 16.1515C3.0683 16.4328 3.44983 16.5908 3.84766 16.5908H14.3477C14.7455 16.5908 15.127 16.4328 15.4083 16.1515C15.6896 15.8702 15.8477 15.4886 15.8477 15.0908V9.84082" stroke="#EDF7FF" stroke-opacity="0.5" stroke-linecap="round" stroke-linejoin="round"/>
<path d="M14.7227 1.96599C15.021 1.66762 15.4257 1.5 15.8477 1.5C16.2696 1.5 16.6743 1.66762 16.9727 1.96599C17.271 2.26436 17.4386 2.66903 17.4386 3.09099C17.4386 3.51295 17.271 3.91762 16.9727 4.21599L9.84766 11.341L6.84766 12.091L7.59766 9.09099L14.7227 1.96599Z" stroke="#EDF7FF" stroke-opacity="0.5" stroke-linecap="round" stroke-linejoin="round"/>
</svg>
