<svg width="109" height="97" viewBox="0 0 109 97" fill="none" xmlns="http://www.w3.org/2000/svg">
<path d="M36.1426 5.76858L35.7236 6.40918C35.4703 6.8059 35.3826 7.2861 35.4793 7.74673C35.5761 8.20737 35.8496 8.61173 36.2411 8.87304L68.6716 29.8898C68.8647 30.0206 69.0298 30.1887 69.157 30.3842C69.2842 30.5797 69.3711 30.7987 69.4124 31.0283C69.4537 31.2579 69.4487 31.4934 69.3977 31.721C69.3466 31.9486 69.2506 32.1637 69.1151 32.3537L68.7208 32.9696C68.5936 33.166 68.4287 33.3353 68.2357 33.4677C68.0427 33.6001 67.8255 33.6931 67.5964 33.7411C67.3673 33.7892 67.131 33.7915 66.9011 33.7479C66.6711 33.7043 66.4521 33.6157 66.2565 33.487L24.0674 6.06424C23.1459 5.46633 22.0245 5.25892 20.95 5.48764C19.8755 5.71636 18.9359 6.36248 18.3379 7.28385C17.7399 8.20523 17.5324 9.32638 17.7612 10.4007C17.9899 11.475 18.6362 12.4144 19.5577 13.0123L50.411 32.9203C50.7946 33.1803 51.0613 33.5801 51.154 34.0342C51.2467 34.4882 51.158 34.9605 50.9068 35.35C50.6557 35.7395 50.2621 36.0153 49.8102 36.1184C49.3583 36.2215 48.884 36.1437 48.4888 35.9016L26.9753 22.0054C26.5588 21.6952 26.083 21.4737 25.5774 21.3547C25.0718 21.2357 24.5472 21.2218 24.036 21.3137C23.5247 21.4057 23.0379 21.6015 22.6054 21.8892C22.173 22.177 21.8043 22.5503 21.522 22.9863C21.2398 23.4223 21.0501 23.9115 20.9646 24.4237C20.8791 24.936 20.8997 25.4603 21.0251 25.9643C21.1506 26.4682 21.3781 26.9411 21.6937 27.3535C22.0093 27.766 22.4062 28.1093 22.8599 28.3622L46.542 43.6628C46.9138 43.8851 47.237 44.18 47.4924 44.5298C47.7478 44.8797 47.9302 45.2774 48.0287 45.6992C48.1271 46.121 48.1397 46.5583 48.0656 46.985C47.9915 47.4118 47.8322 47.8192 47.5972 48.1831C47.3623 48.5471 47.0565 48.86 46.6981 49.1033C46.3397 49.3465 45.9359 49.5152 45.5109 49.5992C45.0859 49.6832 44.6484 49.6808 44.2243 49.5921C43.8003 49.5035 43.3984 49.3305 43.0427 49.0833L9.13366 27.2042C8.56995 26.7906 7.92758 26.4968 7.24606 26.3407C6.56454 26.1846 5.85829 26.1695 5.17073 26.2964C4.48318 26.4233 3.82886 26.6895 3.24803 27.0787C2.6672 27.4678 2.17213 27.9716 1.79328 28.5592C1.41443 29.1467 1.15981 29.8055 1.04507 30.4951C0.930338 31.1846 0.957916 31.8904 1.12611 32.5689C1.29431 33.2474 1.59956 33.8844 2.0231 34.4406C2.44664 34.9967 2.97952 35.4604 3.58894 35.8031L40.0855 59.4561C40.5171 59.6189 40.9062 59.8773 41.2237 60.2119C41.5412 60.5465 41.7788 60.9486 41.9187 61.3881C42.0586 61.8275 42.0972 62.293 42.0315 62.7495C41.9659 63.206 41.7977 63.6417 41.5396 64.024C41.2815 64.4062 40.9403 64.7251 40.5414 64.9567C40.1424 65.1883 39.6963 65.3266 39.2363 65.3612C38.7763 65.3959 38.3144 65.3259 37.8854 65.1567C37.4563 64.9874 37.0711 64.7232 36.7586 64.3839L15.3684 50.5862C14.9283 50.2938 14.4346 50.0916 13.9158 49.9913C13.3969 49.8911 12.8634 49.8949 12.346 50.0024C11.8287 50.1099 11.3378 50.319 10.9019 50.6176C10.466 50.9162 10.0937 51.2984 9.80667 51.742C9.51961 52.1855 9.32348 52.6816 9.22965 53.2015C9.13582 53.7215 9.14616 54.2548 9.26006 54.7707C9.37396 55.2866 9.58917 55.7748 9.8932 56.2069C10.1972 56.639 10.584 57.0064 11.0312 57.2879L64.1865 91.7327L96.2226 42.3816L38.5822 5.25117C38.3886 5.12315 38.1715 5.03493 37.9435 4.99164C37.7154 4.94835 37.4811 4.95086 37.254 4.99901C37.027 5.04717 36.8118 5.14001 36.6209 5.27213C36.4301 5.40425 36.2675 5.57301 36.1426 5.76858Z" fill="#3A9FFF"/>
<path d="M7.3343 12.7666C6.72506 12.7666 6.1295 12.9472 5.62293 13.2856C5.11636 13.6241 4.72154 14.1051 4.48839 14.6678C4.25524 15.2306 4.19424 15.8498 4.3131 16.4473C4.43195 17.0447 4.72533 17.5935 5.15614 18.0242C5.58694 18.4549 6.13581 18.7482 6.73335 18.8671C7.33089 18.9859 7.95025 18.9249 8.51312 18.6918C9.07599 18.4587 9.55708 18.064 9.89556 17.5575C10.234 17.051 10.4147 16.4556 10.4147 15.8464C10.4147 15.0296 10.0902 14.2462 9.51247 13.6687C8.93479 13.0911 8.15128 12.7666 7.3343 12.7666Z" fill="#3A9FFF"/>
<path d="M3.19466 46.0527C2.58541 46.0527 1.98985 46.2334 1.48328 46.5718C0.97671 46.9102 0.581888 47.3912 0.34874 47.954C0.115592 48.5167 0.0545904 49.136 0.173448 49.7334C0.292306 50.3308 0.585685 50.8796 1.01649 51.3103C1.44729 51.7411 1.99616 52.0344 2.5937 52.1532C3.19124 52.2721 3.8106 52.2111 4.37347 51.978C4.93634 51.7448 5.41743 51.3501 5.75591 50.8436C6.09439 50.3372 6.27505 49.7417 6.27505 49.1326C6.27505 48.3157 5.95051 47.5324 5.37283 46.9548C4.79514 46.3772 4.01163 46.0527 3.19466 46.0527Z" fill="#3A9FFF"/>
<path d="M31.0662 1.25998C29.2426 0.151246 27.2218 0.00341392 26.7043 0.96432C26.1868 1.92523 27.0986 3.60065 28.9222 4.70939C30.7458 5.81813 32.7172 5.96596 33.284 5.02969C33.8508 4.09343 32.8897 2.39336 31.0662 1.25998Z" fill="#3A9FFF"/>
<path d="M81.8066 37.2814C76.0149 36.7799 70.2046 38.0079 65.1114 40.8098C60.0182 43.6118 55.871 47.8617 53.1949 53.0215C50.5188 58.1813 49.4342 64.019 50.0784 69.7955C50.7225 75.572 53.0665 81.0275 56.8135 85.4713C60.5606 89.9151 65.5421 93.1474 71.1276 94.7589C76.713 96.3704 82.6511 96.2888 88.19 94.5242C93.729 92.7597 98.6198 89.3916 102.243 84.8464C105.866 80.3012 108.059 74.7833 108.544 68.9913C109.193 61.2438 106.743 53.5552 101.731 47.611C96.7186 41.6668 89.5536 37.9522 81.8066 37.2814Z" fill="#FFB51F"/>
<path d="M81.5852 39.7451C76.3045 39.3071 71.0123 40.4433 66.377 43.0104C61.7417 45.5775 57.9711 49.4602 55.5414 54.1684C53.1117 58.8765 52.1318 64.1989 52.7255 69.4635C53.3191 74.728 55.4597 79.6987 58.877 83.7477C62.2942 87.7968 66.8348 90.7427 71.9254 92.2134C77.0161 93.6841 82.4284 93.6137 87.4791 92.011C92.5297 90.4084 96.9921 87.3454 100.303 83.2089C103.614 79.0723 105.624 74.0476 106.081 68.7694C106.381 65.255 105.986 61.7158 104.917 58.3543C103.848 54.9928 102.127 51.875 99.8521 49.1792C97.5769 46.4834 94.7925 44.2626 91.6581 42.6438C88.5237 41.025 85.1008 40.04 81.5852 39.7451Z" fill="#EC6D00"/>
<path d="M81.4359 42.9244C76.7792 42.5227 72.1079 43.5105 68.0127 45.7631C63.9176 48.0157 60.5824 51.4318 58.429 55.5794C56.2757 59.7271 55.4007 64.42 55.9149 69.0648C56.4291 73.7096 58.3094 78.0976 61.3178 81.674C64.3263 85.2504 68.3279 87.8546 72.8167 89.1573C77.3054 90.4599 82.0797 90.4025 86.5358 88.9923C90.9919 87.5821 94.9298 84.8825 97.8513 81.2348C100.773 77.5871 102.547 73.1551 102.949 68.4993C103.482 62.2569 101.516 56.058 97.483 51.2633C93.4496 46.4685 87.6784 43.4695 81.4359 42.9244Z" fill="#FFA400"/>
<path d="M80.254 56.6972L76.6068 49.5273L75.6211 50.0448L79.1451 56.8943L77.4693 76.0878L83.1619 82.8388L83.9998 82.1242L78.6029 75.7182L80.254 56.6972Z" fill="#CE5900"/>
<path d="M68.8447 53.1981C71.1858 55.7852 74.5373 59.6288 74.9809 60.3926L73.7734 74.4859L68.8447 78.7977L69.5594 79.6108L74.9316 75.028L76.1884 60.368C76.1884 60.097 76.1884 59.6781 69.7565 52.459L68.8447 53.1981Z" fill="#CE5900"/>
<path d="M64.1725 64.9893L64.0791 66.0693L69.996 66.5807L70.0894 65.5006L64.1725 64.9893Z" fill="#CE5900"/>
<path d="M83.802 58.6191L88.2625 51.8189L87.3507 51.2275L82.7424 58.2495L81.4609 73.1806L92.8954 74.1907L92.9693 73.082L82.6192 72.195L83.802 58.6191Z" fill="#CE5900"/>
<path d="M88.9625 62.3438L88.8691 63.4238L94.737 63.9309L94.8304 62.8508L88.9625 62.3438Z" fill="#CE5900"/>
<path d="M68.7463 50.5135C68.5001 50.4898 68.2517 50.515 68.0154 50.5878C67.7791 50.6606 67.5595 50.7794 67.3693 50.9375C67.1791 51.0955 67.0222 51.2897 66.9075 51.5087C66.7927 51.7277 66.7225 51.9673 66.7009 52.2136C66.6664 52.7117 66.8271 53.2037 67.1491 53.5854C67.4711 53.9671 67.929 54.2086 68.4259 54.2586C68.9215 54.2928 69.4107 54.1313 69.7886 53.8088C70.1664 53.4864 70.4027 53.0286 70.4467 52.5339C70.4703 52.2891 70.4449 52.0421 70.3718 51.8073C70.2987 51.5724 70.1795 51.3546 70.0212 51.1664C69.8628 50.9782 69.6685 50.8236 69.4496 50.7115C69.2306 50.5993 68.9915 50.5321 68.7463 50.5135ZM68.4998 53.1499C68.3993 53.1406 68.3017 53.1115 68.2125 53.0643C68.1233 53.0171 68.0443 52.9527 67.9802 52.8748C67.916 52.7969 67.8679 52.7071 67.8387 52.6105C67.8094 52.5139 67.7996 52.4125 67.8098 52.3121C67.8287 52.1073 67.9268 51.9179 68.0834 51.7844C68.2399 51.6509 68.4424 51.5839 68.6477 51.5976C68.8502 51.6222 69.0361 51.722 69.1684 51.8771C69.3008 52.0323 69.37 52.2315 69.3624 52.4353C69.3531 52.539 69.3234 52.6399 69.2749 52.7321C69.2265 52.8242 69.1602 52.9059 69.08 52.9723C68.9998 53.0387 68.9073 53.0886 68.8077 53.1191C68.7081 53.1496 68.6035 53.16 68.4998 53.1499Z" fill="#CE5900"/>
<path d="M68.3265 77.9848C68.0804 77.9646 67.8327 77.9933 67.5977 78.0691C67.3627 78.145 67.1451 78.2666 66.9573 78.4269C66.7695 78.5872 66.6152 78.783 66.5034 79.0031C66.3916 79.2233 66.3244 79.4633 66.3058 79.7095C66.3012 80.1814 66.475 80.6377 66.7925 80.9869C67.1099 81.3362 67.5476 81.5527 68.0179 81.5932C68.4882 81.6337 68.9564 81.4951 69.3289 81.2052C69.7014 80.9154 69.9507 80.4955 70.0269 80.0298C70.0506 79.7837 70.0253 79.5353 69.9526 79.299C69.8798 79.0627 69.7609 78.8432 69.6028 78.6531C69.4448 78.463 69.2506 78.306 69.0315 78.1913C68.8124 78.0766 68.5728 78.0064 68.3265 77.9848ZM68.1047 80.6458C67.9482 80.6353 67.7985 80.5785 67.6745 80.4825C67.5505 80.3865 67.458 80.2557 67.4087 80.1069C67.3594 79.9581 67.3556 79.7979 67.3978 79.6469C67.44 79.4959 67.5263 79.361 67.6456 79.2592C67.7649 79.1575 67.9118 79.0936 68.0676 79.0758C68.2233 79.0579 68.3809 79.0869 68.5201 79.1591C68.6594 79.2312 68.7739 79.3432 68.8492 79.4807C68.9244 79.6183 68.9569 79.7751 68.9426 79.9312C68.9364 80.0339 68.9096 80.1342 68.8638 80.2262C68.8179 80.3183 68.754 80.4001 68.6757 80.4668C68.5975 80.5335 68.5066 80.5838 68.4085 80.6145C68.3104 80.6453 68.207 80.6559 68.1047 80.6458Z" fill="#CE5900"/>
<path d="M63.4481 63.522C63.0787 63.4891 62.7078 63.5667 62.3825 63.7448C62.0572 63.9229 61.7921 64.1935 61.6209 64.5224C61.4496 64.8513 61.3798 65.2237 61.4204 65.5923C61.4611 65.9609 61.6102 66.3091 61.849 66.5928C62.0878 66.8765 62.4055 67.083 62.7618 67.186C63.1181 67.289 63.4969 67.284 63.8503 67.1714C64.2037 67.0589 64.5157 66.8441 64.7469 66.554C64.978 66.264 65.1178 65.9119 65.1485 65.5424C65.1722 65.2976 65.1467 65.0506 65.0736 64.8158C65.0006 64.5809 64.8814 64.3631 64.723 64.1749C64.5647 63.9867 64.3703 63.8321 64.1514 63.72C63.9325 63.6079 63.6934 63.5406 63.4481 63.522ZM63.2263 66.1584C63.0699 66.1479 62.9201 66.0911 62.7961 65.9951C62.6721 65.8991 62.5796 65.7683 62.5303 65.6195C62.481 65.4707 62.4772 65.3105 62.5194 65.1595C62.5616 65.0085 62.6479 64.8735 62.7672 64.7718C62.8865 64.6701 63.0334 64.6062 63.1892 64.5884C63.345 64.5705 63.5025 64.5995 63.6418 64.6717C63.781 64.7438 63.8955 64.8558 63.9708 64.9933C64.046 65.1309 64.0786 65.2877 64.0642 65.4438C64.0581 65.5465 64.0313 65.6468 63.9854 65.7388C63.9396 65.8309 63.8756 65.9127 63.7974 65.9794C63.7191 66.0461 63.6282 66.0964 63.5301 66.1271C63.432 66.1579 63.3287 66.1685 63.2263 66.1584Z" fill="#CE5900"/>
<path d="M71.5799 64.2117C71.3351 64.188 71.088 64.2135 70.8531 64.2865C70.6182 64.3596 70.4003 64.4788 70.2121 64.6371C70.0239 64.7954 69.8692 64.9897 69.7571 65.2086C69.645 65.4275 69.5777 65.6665 69.5591 65.9118C69.5263 66.2811 69.6038 66.6519 69.7819 66.9772C69.9601 67.3024 70.2308 67.5674 70.5597 67.7387C70.8887 67.9099 71.2611 67.9797 71.6298 67.9391C71.9984 67.8984 72.3467 67.7493 72.6305 67.5106C72.9143 67.2718 73.1208 66.9542 73.2238 66.598C73.3268 66.2418 73.3218 65.863 73.2092 65.5096C73.0967 65.1563 72.8818 64.8443 72.5917 64.6133C72.3016 64.3822 71.9495 64.2424 71.5799 64.2117ZM71.3088 66.848C71.2051 66.8388 71.1042 66.809 71.012 66.7606C70.9198 66.7122 70.8382 66.6459 70.7717 66.5658C70.7053 66.4856 70.6554 66.393 70.6249 66.2935C70.5944 66.1939 70.584 66.0893 70.5941 65.9857C70.613 65.7808 70.7111 65.5915 70.8677 65.458C71.0242 65.3245 71.2267 65.2574 71.432 65.2712C71.5357 65.2804 71.6366 65.3101 71.7288 65.3586C71.821 65.407 71.9026 65.4732 71.9691 65.5534C72.0355 65.6336 72.0854 65.7261 72.1159 65.8257C72.1464 65.9253 72.1568 66.0299 72.1467 66.1335C72.1278 66.3383 72.0297 66.5277 71.8731 66.6612C71.7166 66.7947 71.5141 66.8617 71.3088 66.848Z" fill="#CE5900"/>
<path d="M84.3934 81.3845C84.1485 81.3609 83.9014 81.3863 83.6666 81.4594C83.4317 81.5324 83.2138 81.6516 83.0256 81.8099C82.8374 81.9683 82.6827 82.1626 82.5706 82.3815C82.4585 82.6003 82.3911 82.8394 82.3726 83.0846C82.3397 83.454 82.4173 83.8248 82.5954 84.15C82.7735 84.4753 83.0442 84.7403 83.3732 84.9115C83.7022 85.0828 84.0746 85.1525 84.4432 85.1119C84.8119 85.0713 85.1602 84.9222 85.444 84.6834C85.7277 84.4447 85.9342 84.127 86.0373 83.7708C86.1403 83.4146 86.1352 83.0358 86.0227 82.6825C85.9102 82.3292 85.6953 82.0172 85.4052 81.7861C85.1151 81.555 84.763 81.4153 84.3934 81.3845ZM84.1716 84.0948C84.0678 84.0855 83.967 84.0558 83.8748 84.0074C83.7826 83.9589 83.7009 83.8927 83.6345 83.8125C83.5681 83.7323 83.5181 83.6398 83.4877 83.5402C83.4572 83.4407 83.4467 83.3361 83.4569 83.2324C83.4757 83.0276 83.5739 82.8382 83.7304 82.7047C83.887 82.5712 84.0895 82.5042 84.2948 82.5179C84.3985 82.5272 84.4994 82.5569 84.5916 82.6053C84.6837 82.6538 84.7654 82.72 84.8318 82.8002C84.8983 82.8804 84.9482 82.9729 84.9787 83.0725C85.0092 83.172 85.0196 83.2766 85.0094 83.3803C84.9906 83.5851 84.8924 83.7745 84.7359 83.908C84.5794 84.0415 84.3768 84.1085 84.1716 84.0948Z" fill="#CE5900"/>
<path d="M93.9559 71.7759C93.5865 71.7431 93.2156 71.8206 92.8903 71.9987C92.565 72.1768 92.2999 72.4474 92.1287 72.7763C91.9574 73.1052 91.8876 73.4776 91.9283 73.8462C91.9689 74.2148 92.118 74.563 92.3568 74.8467C92.5956 75.1305 92.9133 75.3369 93.2696 75.4399C93.6259 75.5429 94.0047 75.5379 94.3581 75.4254C94.7115 75.3128 95.0236 75.098 95.2547 74.8079C95.4858 74.5179 95.6256 74.1658 95.6563 73.7963C95.68 73.5515 95.6545 73.3045 95.5815 73.0697C95.5084 72.8348 95.3892 72.617 95.2308 72.4288C95.0725 72.2406 94.8781 72.086 94.6592 71.9739C94.4403 71.8618 94.2012 71.7945 93.9559 71.7759ZM93.7588 74.4862C93.6023 74.4757 93.4525 74.4189 93.3286 74.3229C93.2046 74.2269 93.112 74.0961 93.0628 73.9473C93.0135 73.7985 93.0097 73.6383 93.0519 73.4873C93.0941 73.3364 93.1803 73.2014 93.2996 73.0996C93.4189 72.9979 93.5659 72.934 93.7217 72.9162C93.8774 72.8983 94.035 72.9273 94.1742 72.9995C94.3134 73.0716 94.428 73.1836 94.5032 73.3212C94.5785 73.4587 94.611 73.6155 94.5967 73.7717C94.5905 73.8743 94.5637 73.9746 94.5179 74.0667C94.472 74.1587 94.4081 74.2405 94.3298 74.3072C94.2516 74.3739 94.1607 74.4242 94.0626 74.4549C93.9644 74.4857 93.8611 74.4963 93.7588 74.4862Z" fill="#CE5900"/>
<path d="M95.8041 61.5997C95.5495 61.5581 95.289 61.5695 95.0391 61.6332C94.7891 61.697 94.555 61.8116 94.3514 61.9701C94.1479 62.1285 93.9792 62.3272 93.8561 62.5539C93.7329 62.7805 93.6579 63.0301 93.6358 63.2871C93.6137 63.5441 93.6449 63.8029 93.7275 64.0472C93.8101 64.2915 93.9422 64.5162 94.1157 64.7071C94.2892 64.898 94.5003 65.0509 94.7357 65.1564C94.9711 65.2619 95.2258 65.3177 95.4837 65.3202C95.7383 65.3618 95.9987 65.3504 96.2487 65.2867C96.4987 65.223 96.7328 65.1083 96.9364 64.9499C97.1399 64.7915 97.3086 64.5927 97.4317 64.3661C97.5549 64.1394 97.6299 63.8898 97.652 63.6328C97.6741 63.3758 97.6429 63.1171 97.5603 62.8727C97.4777 62.6284 97.3455 62.4037 97.1721 62.2128C96.9986 62.022 96.7875 61.869 96.5521 61.7635C96.3167 61.658 96.062 61.6022 95.8041 61.5997ZM95.5823 64.2361C95.4001 64.2035 95.2352 64.1079 95.1164 63.966C94.9976 63.8241 94.9326 63.645 94.9326 63.46C94.9326 63.2749 94.9976 63.0958 95.1164 62.9539C95.2352 62.812 95.4001 62.7164 95.5823 62.6838C95.7872 62.7027 95.9766 62.8008 96.1101 62.9573C96.2436 63.1138 96.3107 63.3163 96.2969 63.5216C96.2853 63.7072 96.2063 63.8823 96.0747 64.0139C95.9431 64.1454 95.768 64.2244 95.5823 64.2361Z" fill="#CE5900"/>
<path d="M88.5089 49.1326C88.264 49.1089 88.017 49.1344 87.7821 49.2074C87.5472 49.2805 87.3293 49.3997 87.1411 49.558C86.9529 49.7163 86.7982 49.9106 86.6861 50.1295C86.574 50.3484 86.5067 50.5874 86.4881 50.8327C86.4644 51.0788 86.4897 51.3271 86.5624 51.5634C86.6352 51.7997 86.7541 52.0192 86.9122 52.2094C87.0702 52.3995 87.2644 52.5564 87.4835 52.6711C87.7026 52.7858 87.9422 52.856 88.1885 52.8777C88.6852 52.9201 89.1785 52.7636 89.5598 52.4425C89.941 52.1213 90.1791 51.6619 90.2216 51.1653C90.2641 50.6687 90.1075 50.1755 89.7863 49.7943C89.4651 49.4131 89.0056 49.1751 88.5089 49.1326ZM88.2871 51.7936C88.1835 51.7839 88.0829 51.7538 87.9909 51.7053C87.899 51.6567 87.8175 51.5904 87.7511 51.5104C87.6848 51.4303 87.6348 51.3379 87.6042 51.2386C87.5735 51.1392 87.5627 51.0348 87.5724 50.9312C87.5821 50.8277 87.6122 50.7271 87.6608 50.6351C87.7094 50.5432 87.7756 50.4617 87.8557 50.3953C87.9358 50.329 88.0282 50.2791 88.1275 50.2484C88.2269 50.2178 88.3314 50.207 88.4349 50.2167C88.6441 50.2363 88.8369 50.3382 88.9709 50.4999C89.1049 50.6616 89.1692 50.8699 89.1496 51.079C89.13 51.2881 89.0281 51.4809 88.8663 51.6149C88.7046 51.7489 88.4962 51.8132 88.2871 51.7936Z" fill="#CE5900"/>
<path d="M75.8182 47.2598C75.5723 47.2387 75.3246 47.2663 75.0893 47.341C74.854 47.4157 74.6358 47.536 74.447 47.695C74.2582 47.854 74.1026 48.0486 73.989 48.2678C73.8755 48.4869 73.8062 48.7262 73.7852 48.9722C73.7641 49.2181 73.7917 49.4657 73.8664 49.7009C73.9411 49.9362 74.0614 50.1544 74.2204 50.3431C74.3795 50.5319 74.5741 50.6875 74.7933 50.801C75.0125 50.9145 75.2519 50.9838 75.4979 51.0048C75.7427 51.0285 75.9898 51.003 76.2246 50.93C76.4595 50.857 76.6774 50.7378 76.8656 50.5794C77.0538 50.4211 77.2085 50.2268 77.3206 50.0079C77.4328 49.789 77.5001 49.55 77.5186 49.3048C77.5423 49.0587 77.5171 48.8103 77.4443 48.574C77.3715 48.3377 77.2526 48.1182 77.0946 47.9281C76.9365 47.7379 76.7423 47.581 76.5232 47.4663C76.3042 47.3516 76.0646 47.2814 75.8182 47.2598ZM75.5964 49.9207C75.4927 49.9115 75.3918 49.8818 75.2997 49.8333C75.2075 49.7849 75.1258 49.7186 75.0594 49.6385C74.9929 49.5583 74.943 49.4658 74.9125 49.3662C74.8821 49.2666 74.8716 49.162 74.8818 49.0584C74.9006 48.8535 74.9988 48.6642 75.1553 48.5307C75.3118 48.3972 75.5144 48.3301 75.7196 48.3439C75.8234 48.3531 75.9242 48.3828 76.0164 48.4313C76.1086 48.4797 76.1903 48.546 76.2567 48.6261C76.3232 48.7063 76.3731 48.7989 76.4035 48.8984C76.434 48.998 76.4445 49.1026 76.4343 49.2062C76.4097 49.4087 76.3099 49.5945 76.1547 49.7269C75.9995 49.8592 75.8003 49.9284 75.5964 49.9207Z" fill="#CE5900"/>
<path d="M87.7209 60.8854C87.2254 60.8512 86.7361 61.0126 86.3583 61.3351C85.9805 61.6576 85.7442 62.1153 85.7002 62.6101C85.6577 63.1067 85.8143 63.5999 86.1355 63.9811C86.4567 64.3623 86.9162 64.6003 87.4129 64.6428C87.9096 64.6852 88.4029 64.5287 88.7841 64.2075C89.1654 63.8864 89.4035 63.427 89.446 62.9304C89.4805 62.4322 89.3197 61.9402 88.9978 61.5585C88.6758 61.1768 88.2179 60.9354 87.7209 60.8854ZM87.4992 63.5463C87.2967 63.5218 87.1108 63.422 86.9784 63.2668C86.8461 63.1117 86.7768 62.9124 86.7845 62.7086C86.7938 62.6049 86.8235 62.5041 86.8719 62.4119C86.9204 62.3197 86.9866 62.2381 87.0668 62.1717C87.147 62.1052 87.2396 62.0553 87.3392 62.0249C87.4387 61.9944 87.5434 61.9839 87.647 61.9941C87.8519 62.0129 88.0413 62.1111 88.1748 62.2676C88.3083 62.4241 88.3754 62.6266 88.3617 62.8318C88.3369 63.0387 88.2336 63.2282 88.0731 63.3612C87.9126 63.4942 87.7071 63.5604 87.4992 63.5463Z" fill="#CE5900"/>
<path d="M81.8063 37.2818C77.7191 36.9145 73.6002 37.4088 69.7161 38.733C65.832 40.0572 62.2691 42.1817 59.2578 44.9691C65.1011 40.0131 72.65 37.5361 80.2941 38.0665C87.9383 38.5969 95.0726 42.0927 100.175 47.8083C105.278 53.5238 107.944 61.0066 107.606 68.6603C107.269 76.314 103.953 83.5327 98.3665 88.7766C102.737 85.0088 105.901 80.0373 107.463 74.4828C109.025 68.9283 108.916 63.0369 107.149 57.544C105.383 52.0511 102.037 47.2001 97.5301 43.5966C93.023 39.9932 87.5542 37.7968 81.8063 37.2818Z" fill="#FFD683"/>
<path d="M81.4372 42.9243C77.5698 42.5967 73.6812 43.2254 70.1142 44.755C66.5473 46.2847 63.4115 48.6683 60.9834 51.6957C65.152 47.4285 70.7819 44.8975 76.7411 44.6117C82.7002 44.3259 88.5466 46.3065 93.1046 50.1551C97.6626 54.0037 100.594 59.435 101.31 65.3568C102.026 71.2786 100.472 77.2517 96.9624 82.0751C99.8641 78.8113 101.802 74.8061 102.561 70.5056C103.32 66.2052 102.869 61.7787 101.259 57.7193C99.6496 53.6599 96.944 50.1272 93.4441 47.5149C89.9442 44.9026 85.7875 43.3134 81.4372 42.9243Z" fill="#CE5900"/>
<g style="mix-blend-mode:soft-light" opacity="0.3">
<path d="M81.8067 37.282C76.7474 36.7973 71.6493 37.6468 67.0207 39.7459C64.2416 43.9988 62.6124 48.8992 62.2919 53.9692C61.9715 59.0393 62.9708 64.1058 65.1923 68.6746C67.4139 73.2435 70.7818 77.1587 74.9677 80.0383C79.1536 82.918 84.0145 84.6638 89.0764 85.1056C94.1353 85.58 99.2307 84.7309 103.862 82.6417C106.531 78.5867 108.141 73.9277 108.544 69.0905C108.883 65.2457 108.459 61.372 107.297 57.6912C106.136 54.0104 104.26 50.5948 101.776 47.6401C99.2922 44.6854 96.25 42.2496 92.8233 40.4722C89.3967 38.6948 85.653 37.6107 81.8067 37.282Z" fill="white"/>
</g>
<path d="M77.2727 95.4289C71.0347 94.8856 65.1335 92.3637 60.4302 88.2309C55.7268 84.0981 52.4674 78.5708 51.1274 72.4554C49.7874 66.34 50.4371 59.9565 52.9815 54.2362C55.5259 48.5159 59.832 43.7582 65.2714 40.6572C61.7457 42.4416 58.6164 44.9188 56.0707 47.9406C53.525 50.9624 51.6153 54.4668 50.4559 58.2438C49.2965 62.0208 48.9112 65.9929 49.3231 69.9223C49.7351 73.8517 50.9357 77.6576 52.8533 81.1121C54.7708 84.5667 57.3658 87.599 60.4829 90.0274C63.6 92.4557 67.175 94.2304 70.9942 95.245C74.8133 96.2596 78.7979 96.4934 82.7095 95.9323C86.6211 95.3712 90.3792 94.0267 93.7589 91.9795C88.7227 94.726 82.9878 95.9259 77.2727 95.4289Z" fill="#CE5900"/>
</svg>
