<svg width="200" height="201" viewBox="0 0 200 201" fill="none" xmlns="http://www.w3.org/2000/svg">
<path d="M99.9996 200.94C155.228 200.94 199.999 156.168 199.999 100.94C199.999 45.7118 155.228 0.94043 99.9996 0.94043C44.7714 0.94043 0 45.7118 0 100.94C0 156.168 44.7714 200.94 99.9996 200.94Z" fill="#272D35"/>
<path d="M160 200.94H40V71.6077C45.656 71.6013 51.0785 69.3517 55.0779 65.3523C59.0773 61.3529 61.3269 55.9304 61.3333 50.2744H138.666C138.66 53.0763 139.21 55.8514 140.284 58.4394C141.357 61.0274 142.933 63.3768 144.921 65.3517C146.896 67.3398 149.245 68.9165 151.833 69.9903C154.422 71.0642 157.197 71.6139 160 71.6077V200.94Z" fill="#1D2126"/>
<path d="M99.9999 136.94C117.673 136.94 132 122.613 132 104.94C132 87.2673 117.673 72.9404 99.9999 72.9404C82.3268 72.9404 68 87.2673 68 104.94C68 122.613 82.3268 136.94 99.9999 136.94Z" fill="#14A86A"/>
<path d="M117.334 144.94H82.667C80.4578 144.94 78.667 146.731 78.667 148.94C78.667 151.149 80.4578 152.94 82.667 152.94H117.334C119.543 152.94 121.333 151.149 121.333 148.94C121.333 146.731 119.543 144.94 117.334 144.94Z" fill="#272D35"/>
<path d="M129.333 160.94H70.667C68.4578 160.94 66.667 162.731 66.667 164.94C66.667 167.149 68.4578 168.94 70.667 168.94H129.333C131.543 168.94 133.333 167.149 133.333 164.94C133.333 162.731 131.543 160.94 129.333 160.94Z" fill="#272D35"/>
<path d="M88 104.94L95.5 112.44L111 96.9404" stroke="#272D35" stroke-width="5"/>
</svg>
