<svg width="21" height="21" viewBox="0 0 21 21" fill="none" xmlns="http://www.w3.org/2000/svg">
<path d="M16.5677 9.66663H4.90104C3.98057 9.66663 3.23438 10.4128 3.23438 11.3333V17.1666C3.23438 18.0871 3.98057 18.8333 4.90104 18.8333H16.5677C17.4882 18.8333 18.2344 18.0871 18.2344 17.1666V11.3333C18.2344 10.4128 17.4882 9.66663 16.5677 9.66663Z" stroke="#8A929A" stroke-linecap="round" stroke-linejoin="round"/>
<path d="M6.56641 9.66663V6.33329C6.56641 5.22822 7.00539 4.16842 7.78679 3.38701C8.5682 2.60561 9.628 2.16663 10.7331 2.16663C11.8381 2.16663 12.8979 2.60561 13.6794 3.38701C14.4608 4.16842 14.8997 5.22822 14.8997 6.33329V9.66663" stroke="#8A929A" stroke-linecap="round" stroke-linejoin="round"/>
</svg>
