<svg width="83" height="98" viewBox="0 0 83 98" fill="none" xmlns="http://www.w3.org/2000/svg">
<g clip-path="url(#clip0_597_8558)">
<path d="M80.3438 0.847656H2.42766C1.29994 0.847656 0.385742 1.76261 0.385742 2.89125V88.6616C0.385742 89.7902 1.29994 90.7052 2.42766 90.7052H80.3438C81.4715 90.7052 82.3857 89.7902 82.3857 88.6616V2.89125C82.3857 1.76261 81.4715 0.847656 80.3438 0.847656Z" fill="#1D4459"/>
<path d="M16.1756 90.7461H5.29883V97.8481H16.1756V90.7461Z" fill="#0F2840"/>
<path d="M77.9988 90.7461H67.1221V97.8481H77.9988V90.7461Z" fill="#0F2840"/>
<path d="M73.1665 10.0137H9.60441C8.4767 10.0137 7.5625 10.9286 7.5625 12.0573V79.4959C7.5625 80.6246 8.4767 81.5395 9.60441 81.5395H73.1665C74.2943 81.5395 75.2085 80.6246 75.2085 79.4959V12.0573C75.2085 10.9286 74.2943 10.0137 73.1665 10.0137Z" fill="#0F2840"/>
<g style="mix-blend-mode:multiply">
<path d="M71.9132 13.5342H13.1425C12.0148 13.5342 11.1006 14.4491 11.1006 15.5778V78.2413C11.1006 79.37 12.0148 80.2849 13.1425 80.2849H71.9132C73.0409 80.2849 73.9551 79.37 73.9551 78.2413V15.5778C73.9551 14.4491 73.0409 13.5342 71.9132 13.5342Z" fill="#BDB5B3"/>
</g>
<path d="M70.7814 12.4014H12.0107C10.8829 12.4014 9.96875 13.3163 9.96875 14.445V77.1085C9.96875 78.2372 10.8829 79.1521 12.0107 79.1521H70.7814C71.9091 79.1521 72.8233 78.2372 72.8233 77.1085V14.445C72.8233 13.3163 71.9091 12.4014 70.7814 12.4014Z" fill="#1D4459"/>
<g style="mix-blend-mode:multiply">
<path d="M44.0139 30.3282C40.648 30.3282 37.3576 31.3269 34.5587 33.198C31.7598 35.0691 29.5779 37.7287 28.2889 40.8406C26.9999 43.9524 26.6616 47.3769 27.3168 50.6812C27.972 53.9854 29.5913 57.0211 31.9699 59.4045C34.3485 61.7879 37.3798 63.4121 40.6806 64.0718C43.9813 64.7314 47.4034 64.3969 50.5142 63.1106C53.625 61.8242 56.285 59.6437 58.1579 56.8447C60.0308 54.0457 61.0326 50.7538 61.0366 47.3851C61.0446 45.1446 60.6099 42.9247 59.7575 40.8529C58.9051 38.7812 57.6518 36.8986 56.0698 35.3133C54.4878 33.7281 52.6082 32.4716 50.5392 31.6161C48.4702 30.7605 46.2525 30.3228 44.0139 30.3282Z" fill="#BDB5B3"/>
</g>
<path d="M42.5177 29.4171C39.2647 29.4251 36.0869 30.3979 33.386 32.2125C30.685 34.0271 28.582 36.6022 27.3427 39.6124C26.1033 42.6226 25.7832 45.933 26.4227 49.1252C27.0623 52.3174 28.6328 55.2483 30.9359 57.5477C33.239 59.847 36.1713 61.4116 39.3625 62.0439C42.5537 62.6761 45.8605 62.3476 48.8651 61.0998C51.8698 59.852 54.4376 57.741 56.2441 55.0334C58.0506 52.3258 59.0148 49.143 59.0148 45.8873C59.0175 43.7202 58.5923 41.574 57.7637 39.5719C56.9351 37.5698 55.7194 35.7513 54.1864 34.2208C52.6535 32.6903 50.8335 31.4781 48.831 30.6537C46.8285 29.8294 44.683 29.4091 42.5177 29.4171Z" fill="#FFA400"/>
<g style="mix-blend-mode:multiply">
<path d="M78.1196 18.0869H71.0235C70.387 18.0869 69.8711 18.6033 69.8711 19.2402V23.2667C69.8711 23.9037 70.387 24.42 71.0235 24.42H78.1196C78.7561 24.42 79.272 23.9037 79.272 23.2667V19.2402C79.272 18.6033 78.7561 18.0869 78.1196 18.0869Z" fill="#BDB5B3"/>
</g>
<g style="mix-blend-mode:multiply">
<path d="M78.1196 67.5986H71.0235C70.387 67.5986 69.8711 68.115 69.8711 68.7519V72.7784C69.8711 73.4154 70.387 73.9318 71.0235 73.9318H78.1196C78.7561 73.9318 79.272 73.4154 79.272 72.7784V68.7519C79.272 68.115 78.7561 67.5986 78.1196 67.5986Z" fill="#BDB5B3"/>
</g>
<path d="M77.7563 17.3379H70.6602C70.0237 17.3379 69.5078 17.8542 69.5078 18.4912V22.5177C69.5078 23.1547 70.0237 23.671 70.6602 23.671H77.7563C78.3928 23.671 78.9087 23.1547 78.9087 22.5177V18.4912C78.9087 17.8542 78.3928 17.3379 77.7563 17.3379Z" fill="#2B77BF"/>
<path d="M77.7563 66.8701H70.6602C70.0237 66.8701 69.5078 67.3865 69.5078 68.0234V72.0499C69.5078 72.6869 70.0237 73.2032 70.6602 73.2032H77.7563C78.3928 73.2032 78.9087 72.6869 78.9087 72.0499V68.0234C78.9087 67.3865 78.3928 66.8701 77.7563 66.8701Z" fill="#2B77BF"/>
<path d="M42.518 32.3311C39.839 32.3311 37.2201 33.1261 34.9926 34.6157C32.7651 36.1054 31.029 38.2226 30.0037 40.6997C28.9785 43.1769 28.7103 45.9026 29.2329 48.5323C29.7556 51.162 31.0457 53.5776 32.94 55.4735C34.8344 57.3694 37.2479 58.6605 39.8755 59.1836C42.503 59.7067 45.2265 59.4382 47.7016 58.4122C50.1767 57.3861 52.2922 55.6485 53.7806 53.4192C55.269 51.1898 56.0634 48.5688 56.0634 45.8876C56.0634 42.2922 54.6363 38.844 52.096 36.3017C49.5558 33.7593 46.1105 32.3311 42.518 32.3311Z" fill="#CE5900"/>
<path d="M42.5177 40.667C41.4861 40.667 40.4777 40.9732 39.6199 41.5468C38.7621 42.1204 38.0936 42.9357 37.6988 43.8896C37.304 44.8435 37.2007 45.8931 37.402 46.9057C37.6032 47.9184 38.1 48.8485 38.8295 49.5786C39.559 50.3087 40.4883 50.8059 41.5001 51.0073C42.5119 51.2087 43.5607 51.1053 44.5138 50.7102C45.4669 50.3151 46.2815 49.646 46.8547 48.7875C47.4278 47.9291 47.7337 46.9198 47.7337 45.8873C47.7364 45.201 47.6033 44.521 47.3421 43.8864C47.0809 43.2519 46.6968 42.6753 46.2119 42.19C45.7271 41.7048 45.151 41.3203 44.517 41.059C43.8829 40.7976 43.2035 40.6644 42.5177 40.667Z" fill="#0F2840"/>
<path d="M14.5378 34.0709C13.9069 34.0508 13.2845 34.2194 12.7498 34.5551C12.2152 34.8908 11.7927 35.3784 11.5363 35.9557C11.28 36.5329 11.2014 37.1735 11.3106 37.7956C11.4197 38.4177 11.7118 38.9932 12.1493 39.4484C12.5869 39.9036 13.1501 40.2179 13.7671 40.3512C14.384 40.4845 15.0266 40.4306 15.6129 40.1966C16.1991 39.9625 16.7023 39.5589 17.0581 39.0372C17.414 38.5155 17.6064 37.8995 17.6107 37.2679C17.6164 36.4391 17.2983 35.6409 16.7242 35.0437C16.1501 34.4464 15.3655 34.0973 14.5378 34.0709Z" fill="#2B77BF"/>
<g style="mix-blend-mode:multiply">
<path d="M15.0837 35.4678C14.6295 35.473 14.1955 35.6559 13.8744 35.9773C13.5532 36.2987 13.3705 36.7331 13.3652 37.1876V58.5746C13.3652 59.0307 13.5463 59.4682 13.8686 59.7907C14.1908 60.1132 14.6279 60.2944 15.0837 60.2944C15.5394 60.2944 15.9765 60.1132 16.2988 59.7907C16.6211 59.4682 16.8021 59.0307 16.8021 58.5746V37.2686C16.8102 37.0367 16.7719 36.8055 16.6894 36.5887C16.607 36.3719 16.482 36.1737 16.3219 36.0059C16.1618 35.8381 15.9697 35.7041 15.7571 35.6117C15.5444 35.5193 15.3155 35.4703 15.0837 35.4678Z" fill="#BDB5B3"/>
</g>
<path d="M14.5378 34.9414C14.082 34.9414 13.6449 35.1226 13.3227 35.4451C13.0004 35.7677 12.8193 36.2051 12.8193 36.6613V58.0482C12.8193 58.5043 13.0004 58.9418 13.3227 59.2643C13.6449 59.5869 14.082 59.7681 14.5378 59.7681C14.9935 59.7681 15.4306 59.5869 15.7529 59.2643C16.0752 58.9418 16.2562 58.5043 16.2562 58.0482V36.6613C16.2562 36.2051 16.0752 35.7677 15.7529 35.4451C15.4306 35.1226 14.9935 34.9414 14.5378 34.9414Z" fill="#2B77BF"/>
<path d="M42.5177 33.9502C42.3408 33.9502 42.1711 34.0205 42.046 34.1458C41.9209 34.271 41.8506 34.4408 41.8506 34.6179V38.3611C41.8506 38.4488 41.8678 38.5356 41.9014 38.6166C41.9349 38.6977 41.984 38.7713 42.046 38.8333C42.1079 38.8953 42.1815 38.9445 42.2624 38.978C42.3434 39.0116 42.4301 39.0288 42.5177 39.0288C42.6054 39.0288 42.6921 39.0116 42.7731 38.978C42.854 38.9445 42.9275 38.8953 42.9895 38.8333C43.0514 38.7713 43.1006 38.6977 43.1341 38.6166C43.1676 38.5356 43.1849 38.4488 43.1849 38.3611V34.6179C43.1849 34.5302 43.1676 34.4434 43.1341 34.3624C43.1006 34.2814 43.0514 34.2078 42.9895 34.1458C42.9275 34.0838 42.854 34.0346 42.7731 34.001C42.6921 33.9675 42.6054 33.9502 42.5177 33.9502Z" fill="#FFB51F"/>
<path d="M42.5177 52.9893C42.3408 52.9893 42.1711 53.0596 42.046 53.1848C41.9209 53.31 41.8506 53.4799 41.8506 53.657V57.5014C41.8506 57.589 41.8678 57.6759 41.9014 57.7569C41.9349 57.8379 41.984 57.9115 42.046 57.9735C42.1079 58.0355 42.1815 58.0847 42.2624 58.1182C42.3434 58.1518 42.4301 58.1691 42.5177 58.1691C42.6054 58.1691 42.6921 58.1518 42.7731 58.1182C42.854 58.0847 42.9275 58.0355 42.9895 57.9735C43.0514 57.9115 43.1006 57.8379 43.1341 57.7569C43.1676 57.6759 43.1849 57.589 43.1849 57.5014V53.657C43.1849 53.5693 43.1676 53.4825 43.1341 53.4014C43.1006 53.3204 43.0514 53.2468 42.9895 53.1848C42.9275 53.1228 42.854 53.0736 42.7731 53.0401C42.6921 53.0065 42.6054 52.9893 42.5177 52.9893Z" fill="#FFB51F"/>
<path d="M37.4034 35.8115C37.3147 35.6588 37.1692 35.5475 36.9987 35.502C36.8282 35.4565 36.6466 35.4805 36.4937 35.5687C36.3451 35.661 36.2372 35.8066 36.1922 35.9758C36.1471 36.145 36.1682 36.325 36.2511 36.4792L38.1313 39.7166C38.1718 39.7983 38.2287 39.8709 38.2983 39.9299C38.368 39.9888 38.449 40.0328 38.5364 40.0591C38.6237 40.0855 38.7155 40.0936 38.8062 40.0831C38.8968 40.0725 38.9842 40.0434 39.0632 39.9977C39.1421 39.952 39.2109 39.8905 39.2652 39.8171C39.3194 39.7437 39.3581 39.66 39.3788 39.5711C39.3994 39.4821 39.4016 39.3899 39.3853 39.3001C39.3689 39.2103 39.3343 39.1248 39.2836 39.0488L37.4034 35.8115Z" fill="#FFB51F"/>
<path d="M46.8845 52.3014C46.8422 52.2241 46.7851 52.156 46.7165 52.1008C46.6478 52.0457 46.5689 52.0048 46.4843 51.9803C46.3997 51.9559 46.3112 51.9484 46.2237 51.9584C46.1363 51.9683 46.0516 51.9955 45.9747 52.0384C45.8208 52.131 45.7092 52.2803 45.6639 52.4543C45.6185 52.6282 45.643 52.813 45.7321 52.9691L47.5921 56.2065C47.6844 56.3552 47.8299 56.4632 47.9989 56.5083C48.1679 56.5534 48.3478 56.5323 48.5018 56.4493C48.6544 56.3605 48.7655 56.2148 48.811 56.0442C48.8565 55.8735 48.8325 55.6918 48.7444 55.5388L46.8845 52.3014Z" fill="#FFB51F"/>
<path d="M32.9958 39.7366C32.8429 39.6485 32.6613 39.6245 32.4908 39.67C32.3203 39.7155 32.1748 39.8268 32.086 39.9794C32.0031 40.1336 31.982 40.3136 32.0271 40.4828C32.0722 40.652 32.18 40.7976 32.3286 40.8899L35.5634 42.7514C35.7193 42.8406 35.904 42.8651 36.0778 42.8197C36.2516 42.7744 36.4008 42.6627 36.4933 42.5086C36.5361 42.4317 36.5633 42.347 36.5733 42.2594C36.5832 42.1719 36.5758 42.0833 36.5513 41.9986C36.5269 41.914 36.486 41.835 36.4309 41.7663C36.3759 41.6975 36.3077 41.6404 36.2305 41.5981L32.9958 39.7366Z" fill="#FFB51F"/>
<path d="M49.4725 49.2463C49.3185 49.1633 49.1386 49.1422 48.9695 49.1873C48.8005 49.2324 48.655 49.3403 48.5627 49.4891C48.4746 49.6421 48.4507 49.8238 48.4962 49.9945C48.5416 50.1651 48.6528 50.3108 48.8053 50.3996L52.04 52.2813C52.1941 52.3643 52.374 52.3854 52.543 52.3403C52.712 52.2952 52.8575 52.1872 52.9498 52.0385C53.0379 51.8855 53.0618 51.7038 53.0164 51.5331C52.9709 51.3625 52.8597 51.2168 52.7072 51.128L49.4725 49.2463Z" fill="#FFB51F"/>
<path d="M34.8763 45.3613H31.1564C30.9795 45.3613 30.8098 45.4317 30.6847 45.5569C30.5595 45.6821 30.4893 45.8519 30.4893 46.029C30.4893 46.2061 30.5595 46.376 30.6847 46.5012C30.8098 46.6264 30.9795 46.6967 31.1564 46.6967H34.8763C35.0533 46.6967 35.223 46.6264 35.3481 46.5012C35.4732 46.376 35.5435 46.2061 35.5435 46.029C35.5435 45.8519 35.4732 45.6821 35.3481 45.5569C35.223 45.4317 35.0533 45.3613 34.8763 45.3613Z" fill="#FFB51F"/>
<path d="M53.9005 45.3613H50.1603C49.9834 45.3613 49.8137 45.4317 49.6886 45.5569C49.5635 45.6821 49.4932 45.8519 49.4932 46.029C49.4932 46.2061 49.5635 46.376 49.6886 46.5012C49.8137 46.6264 49.9834 46.6967 50.1603 46.6967H53.9005C54.0774 46.6967 54.2471 46.6264 54.3722 46.5012C54.4973 46.376 54.5676 46.2061 54.5676 46.029C54.5676 45.8519 54.4973 45.6821 54.3722 45.5569C54.2471 45.4317 54.0774 45.3613 53.9005 45.3613Z" fill="#FFB51F"/>
<path d="M35.5634 49.2469L32.3287 51.1286C32.1878 51.2229 32.0879 51.3673 32.0496 51.5326C32.0112 51.6978 32.0371 51.8715 32.122 52.0183C32.2069 52.1651 32.3445 52.2741 32.5068 52.3231C32.6691 52.372 32.844 52.3573 32.9959 52.2819L36.2306 50.4002C36.3078 50.3579 36.3759 50.3008 36.431 50.232C36.486 50.1633 36.5269 50.0843 36.5514 49.9997C36.5758 49.9151 36.5833 49.8264 36.5733 49.7389C36.5634 49.6514 36.5362 49.5667 36.4934 49.4897C36.3974 49.3395 36.2483 49.231 36.0759 49.186C35.9035 49.141 35.7205 49.1627 35.5634 49.2469Z" fill="#FFB51F"/>
<path d="M52.04 39.7366L48.8053 41.5981C48.6643 41.6923 48.5645 41.8368 48.5261 42.002C48.4877 42.1673 48.5136 42.3409 48.5986 42.4878C48.6835 42.6346 48.8211 42.7436 48.9834 42.7925C49.1457 42.8415 49.3206 42.8268 49.4724 42.7514L52.7071 40.8899C52.7889 40.8493 52.8614 40.7924 52.9203 40.7227C52.9791 40.6529 53.0231 40.5718 53.0494 40.4844C53.0758 40.397 53.0839 40.3051 53.0733 40.2144C53.0628 40.1238 53.0338 40.0362 52.988 39.9572C52.9423 39.8782 52.8809 39.8094 52.8076 39.7551C52.7343 39.7007 52.6506 39.662 52.5617 39.6414C52.4729 39.6207 52.3807 39.6185 52.291 39.6349C52.2013 39.6512 52.1158 39.6858 52.04 39.7366Z" fill="#FFB51F"/>
<path d="M38.1303 52.3016L36.2502 55.4783C36.1995 55.5542 36.1649 55.6397 36.1485 55.7295C36.1322 55.8194 36.1344 55.9116 36.155 56.0005C36.1757 56.0894 36.2143 56.1732 36.2686 56.2466C36.3229 56.3199 36.3916 56.3814 36.4706 56.4271C36.5495 56.4729 36.637 56.5019 36.7276 56.5125C36.8182 56.5231 36.9101 56.5149 36.9974 56.4886C37.0847 56.4622 37.1658 56.4182 37.2354 56.3593C37.3051 56.3004 37.362 56.2278 37.4025 56.146L39.2827 52.9086C39.3718 52.7525 39.3963 52.5677 39.351 52.3938C39.3056 52.2198 39.194 52.0705 39.0401 51.9779C38.9595 51.9372 38.8715 51.9133 38.7814 51.9076C38.6913 51.9019 38.601 51.9146 38.516 51.9448C38.4309 51.9751 38.3529 52.0223 38.2866 52.0837C38.2203 52.145 38.1672 52.2191 38.1303 52.3016Z" fill="#FFB51F"/>
<path d="M47.6326 35.8114L45.7726 39.0488C45.6973 39.2008 45.6826 39.3758 45.7315 39.5382C45.7804 39.7007 45.8893 39.8384 46.036 39.9234C46.1827 40.0084 46.3563 40.0343 46.5214 39.9959C46.6865 39.9575 46.8308 39.8576 46.925 39.7165L48.7849 36.4791C48.8356 36.4032 48.8702 36.3177 48.8866 36.2279C48.9029 36.1381 48.9007 36.0459 48.8801 35.9569C48.8594 35.868 48.8208 35.7843 48.7665 35.7109C48.7122 35.6375 48.6435 35.576 48.5645 35.5303C48.4856 35.4845 48.3981 35.4555 48.3075 35.4449C48.2169 35.4343 48.125 35.4425 48.0377 35.4688C47.9504 35.4952 47.8693 35.5392 47.7997 35.5981C47.73 35.657 47.6731 35.7296 47.6326 35.8114Z" fill="#FFB51F"/>
<g style="mix-blend-mode:multiply">
<path d="M80.3438 88.7021H2.40744C1.87125 88.7021 1.35702 88.4889 0.977883 88.1094C0.598742 87.73 0.385742 87.2153 0.385742 86.6787V88.7021C0.385742 89.2387 0.598742 89.7534 0.977883 90.1328C1.35702 90.5123 1.87125 90.7254 2.40744 90.7254H80.3438C80.88 90.7254 81.3942 90.5123 81.7734 90.1328C82.1525 89.7534 82.3655 89.2387 82.3655 88.7021V86.6787C82.3655 87.2153 82.1525 87.73 81.7734 88.1094C81.3942 88.4889 80.88 88.7021 80.3438 88.7021Z" fill="#BDB5B3"/>
</g>
<g style="mix-blend-mode:multiply">
<path d="M5.29883 94.287L16.1756 91.9196V90.7461H5.29883V94.287Z" fill="#BDB5B3"/>
</g>
<g style="mix-blend-mode:multiply">
<path d="M67.1221 94.246L77.9988 91.8786V90.7051H67.1221V94.246Z" fill="#BDB5B3"/>
</g>
</g>
<defs>
<clipPath id="clip0_597_8558">
<rect width="82" height="97" fill="white" transform="translate(0.385742 0.847656)"/>
</clipPath>
</defs>
</svg>
