<svg width="20" height="20" viewBox="0 0 20 20" fill="none" xmlns="http://www.w3.org/2000/svg">
<path fill-rule="evenodd" clip-rule="evenodd" d="M7.5 10C7.5 10.3452 7.77982 10.625 8.125 10.625H15.3661L12.6831 13.3081C12.439 13.5521 12.439 13.9479 12.6831 14.1919C12.9271 14.436 13.3229 14.436 13.5669 14.1919L17.3169 10.4419C17.561 10.1979 17.561 9.80214 17.3169 9.55806L13.5669 5.80806C13.3229 5.56398 12.9271 5.56398 12.6831 5.80806C12.439 6.05214 12.439 6.44787 12.6831 6.69194L15.3661 9.375H8.125C7.77982 9.375 7.5 9.65482 7.5 10Z" fill="#EA3349"/>
<path fill-rule="evenodd" clip-rule="evenodd" d="M4.375 18.75C4.02982 18.75 3.75 18.4702 3.75 18.125L3.75 1.875C3.75 1.52982 4.02982 1.25 4.375 1.25C4.72018 1.25 5 1.52982 5 1.875V18.125C5 18.4702 4.72018 18.75 4.375 18.75Z" fill="#EA3349"/>
</svg>
