<svg width="19" height="19" viewBox="0 0 19 19" fill="none" xmlns="http://www.w3.org/2000/svg">
<path d="M15.793 9.26491C15.7955 10.2548 15.5643 11.2313 15.118 12.1149C14.5888 13.1737 13.7753 14.0643 12.7686 14.6869C11.7618 15.3095 10.6017 15.6395 9.41797 15.6399C8.42807 15.6425 7.45156 15.4112 6.56797 14.9649L2.29297 16.3899L3.71797 12.1149C3.27167 11.2313 3.04039 10.2548 3.04297 9.26491C3.04343 8.08123 3.37343 6.92105 3.99601 5.91433C4.61859 4.9076 5.50916 4.09409 6.56797 3.56491C7.45156 3.11861 8.42807 2.88733 9.41797 2.88991H9.79297C11.3562 2.97616 12.8328 3.63598 13.9398 4.74306C15.0469 5.85013 15.7067 7.32665 15.793 8.88991V9.26491Z" stroke="#8A929A" stroke-width="1.66667" stroke-linecap="round" stroke-linejoin="round"/>
</svg>
