<svg width="201" height="201" viewBox="0 0 201 201" fill="none" xmlns="http://www.w3.org/2000/svg">
<path d="M100.43 200.01C155.658 200.01 200.429 155.239 200.429 100.01C200.429 44.7821 155.658 0.0107422 100.43 0.0107422C45.2014 0.0107422 0.430084 44.7821 0.430084 100.01C0.430084 155.239 45.2014 200.01 100.43 200.01Z" fill="#272D35"/>
<path d="M160.43 200.011H40.4301V70.678C46.0861 70.6716 51.5086 68.422 55.508 64.4226C59.5074 60.4232 61.757 55.0007 61.7634 49.3447H139.096C139.09 52.1466 139.64 54.9217 140.714 57.5097C141.787 60.0977 143.363 62.4471 145.351 64.422C147.326 66.4101 149.675 67.9868 152.264 69.0606C154.852 70.1345 157.627 70.6842 160.43 70.678V200.011Z" fill="#1D2126"/>
<path d="M100.43 136.01C118.103 136.01 132.43 121.684 132.43 104.011C132.43 86.3376 118.103 72.0107 100.43 72.0107C82.7568 72.0107 68.43 86.3376 68.43 104.011C68.43 121.684 82.7568 136.01 100.43 136.01Z" fill="#EA3349"/>
<path d="M112.243 119.096L100.93 107.782L89.6159 119.096L85.8447 115.325L97.1584 104.011L85.8447 92.6972L89.6159 88.926L100.93 100.24L112.243 88.926L116.014 92.6972L104.701 104.011L116.014 115.325L112.243 119.096Z" fill="#1D2126"/>
<path d="M117.763 144.01H83.0969C80.8878 144.01 79.0969 145.801 79.0969 148.01C79.0969 150.219 80.8878 152.01 83.0969 152.01H117.763C119.973 152.01 121.763 150.219 121.763 148.01C121.763 145.801 119.973 144.01 117.763 144.01Z" fill="#272D35"/>
<path d="M129.763 160.01H71.0969C68.8878 160.01 67.097 161.801 67.097 164.01C67.097 166.219 68.8878 168.01 71.0969 168.01H129.763C131.973 168.01 133.763 166.219 133.763 164.01C133.763 161.801 131.973 160.01 129.763 160.01Z" fill="#272D35"/>
</svg>
