<svg width="25" height="26" viewBox="0 0 25 26" fill="none" xmlns="http://www.w3.org/2000/svg">
<path d="M22.9345 1H2.04645C1.22244 1 0.554443 1.59695 0.554443 2.33333V23.6667C0.554443 24.403 1.22244 25 2.04645 25H22.9345C23.7585 25 24.4265 24.403 24.4265 23.6667V2.33333C24.4265 1.59695 23.7585 1 22.9345 1Z" stroke="white" stroke-linecap="round"/>
<path d="M12.4904 18.6663C15.62 18.6663 18.1571 16.1293 18.1571 12.9997C18.1571 9.87006 15.62 7.33301 12.4904 7.33301C9.36078 7.33301 6.82373 9.87006 6.82373 12.9997C6.82373 16.1293 9.36078 18.6663 12.4904 18.6663Z" stroke="white" stroke-linecap="round" stroke-linejoin="round"/>
<path d="M14.1571 12.9997C14.1571 14.7459 13.8721 16.2809 13.4476 17.3423C13.2341 17.8758 13.0051 18.2405 12.8019 18.4553C12.602 18.6666 12.4965 18.6663 12.4905 18.6663C12.4845 18.6663 12.3788 18.6666 12.1789 18.4553C11.9757 18.2405 11.7467 17.8758 11.5332 17.3423C11.1087 16.2809 10.8237 14.7459 10.8237 12.9997C10.8237 11.2534 11.1087 9.71845 11.5332 8.65702C11.7467 8.12353 11.9757 7.75891 12.1789 7.54402C12.3788 7.33274 12.4843 7.33299 12.4903 7.33301C12.4963 7.33299 12.602 7.33274 12.8019 7.54402C13.0051 7.75891 13.2341 8.12353 13.4476 8.65702C13.8721 9.71845 14.1571 11.2534 14.1571 12.9997Z" stroke="white" stroke-linecap="round" stroke-linejoin="round"/>
<path d="M7.15698 12.999H17.8236" stroke="white" stroke-linecap="round" stroke-linejoin="round"/>
</svg>
