<svg width="38" height="30" viewBox="0 0 38 30" fill="none" xmlns="http://www.w3.org/2000/svg">
<path d="M28.9602 28.4456C33.1804 28.4456 36.6018 25.0243 36.6018 20.804C36.6018 16.5838 33.1804 13.1625 28.9602 13.1625H28.9172C28.9457 12.8479 28.9602 12.5292 28.9602 12.2073C28.9602 6.40439 24.2559 1.7002 18.4531 1.7002C12.6501 1.7002 7.94589 6.40439 7.94589 12.2073C7.94589 12.2163 7.94591 12.2255 7.94592 12.2344C4.20879 12.9931 1.396 16.2971 1.396 20.2581C1.396 24.7798 5.06161 28.4454 9.58335 28.4454" stroke="white" stroke-width="2.03155" stroke-linecap="round" stroke-linejoin="round"/>
<path d="M19.4087 18.8926V28.4445M19.4087 28.4445L23.2294 24.6237M19.4087 28.4445L15.5879 24.6237" stroke="white" stroke-width="2.03155" stroke-linecap="round" stroke-linejoin="round"/>
</svg>
