<svg width="21" height="21" viewBox="0 0 21 21" fill="none" xmlns="http://www.w3.org/2000/svg">
<g clip-path="url(#clip0_452_10574)">
<path d="M14.7507 3.38957C14.9696 3.1707 15.2294 2.99709 15.5154 2.87864C15.8014 2.76018 16.1079 2.69922 16.4174 2.69922C16.7269 2.69922 17.0334 2.76018 17.3194 2.87864C17.6053 2.99709 17.8652 3.1707 18.0841 3.38957C18.3029 3.60844 18.4765 3.86828 18.595 4.15425C18.7134 4.44021 18.7744 4.74671 18.7744 5.05624C18.7744 5.36577 18.7134 5.67227 18.595 5.95823C18.4765 6.2442 18.3029 6.50404 18.0841 6.72291L6.83405 17.9729L2.25072 19.2229L3.50072 14.6396L14.7507 3.38957Z" stroke="#D5E8FF" stroke-width="2" stroke-linecap="round" stroke-linejoin="round"/>
</g>
<defs>
<clipPath id="clip0_452_10574">
<rect width="20" height="20" fill="white" transform="translate(0.584045 0.889648)"/>
</clipPath>
</defs>
</svg>
