<svg width="23" height="22" viewBox="0 0 23 22" fill="none" xmlns="http://www.w3.org/2000/svg">
<path d="M11.4044 11.78C11.3325 11.77 11.24 11.77 11.1577 11.78C9.34842 11.72 7.90918 10.28 7.90918 8.50997C7.90918 6.69997 9.4101 5.22998 11.2811 5.22998C13.1418 5.22998 14.653 6.69997 14.653 8.50997C14.6427 10.28 13.2137 11.72 11.4044 11.78Z" stroke="#8A929A" stroke-width="1.5" stroke-linecap="round" stroke-linejoin="round"/>
<path d="M18.2094 18.38C16.3795 20.01 13.9534 21 11.2806 21C8.60777 21 6.18166 20.01 4.35181 18.38C4.45461 17.44 5.07141 16.52 6.17138 15.8001C8.98813 13.9801 13.5936 13.9801 16.3898 15.8001C17.4898 16.52 18.1066 17.44 18.2094 18.38Z" stroke="#8A929A" stroke-width="1.5" stroke-linecap="round" stroke-linejoin="round"/>
<path d="M11.2801 20.9999C16.9576 20.9999 21.5602 16.5227 21.5602 11C21.5602 5.47713 16.9576 1 11.2801 1C5.60255 1 1 5.47713 1 11C1 16.5227 5.60255 20.9999 11.2801 20.9999Z" stroke="#8A929A" stroke-width="1.5" stroke-linecap="round" stroke-linejoin="round"/>
</svg>
