<svg width="20" height="19" viewBox="0 0 20 19" fill="none" xmlns="http://www.w3.org/2000/svg">
<g clip-path="url(#clip0_1845_39906)">
<path d="M19.1667 3.16699C19.1667 1.85532 18.0474 0.791992 16.6667 0.791992H13.3333C12.8731 0.791992 12.5 1.14644 12.5 1.58366C12.5 2.02088 12.8731 2.37533 13.3333 2.37533H16.6667C17.1269 2.37533 17.5 2.72977 17.5 3.16699V6.33366C17.5 6.77088 17.8731 7.12532 18.3333 7.12532C18.7936 7.12532 19.1667 6.77088 19.1667 6.33366V3.16699Z" fill="#858C93"/>
<path d="M19.1667 12.6667C19.1667 12.2294 18.7936 11.875 18.3333 11.875C17.8731 11.875 17.5 12.2294 17.5 12.6667V15.8333C17.5 16.2706 17.1269 16.625 16.6667 16.625H13.3333C12.8731 16.625 12.5 16.9794 12.5 17.4167C12.5 17.8539 12.8731 18.2083 13.3333 18.2083H16.6667C18.0474 18.2083 19.1667 17.145 19.1667 15.8333V12.6667Z" fill="#858C93"/>
<path d="M3.33203 16.625C2.8718 16.625 2.4987 16.2706 2.4987 15.8333V12.6667C2.4987 12.2294 2.1256 11.875 1.66536 11.875C1.20513 11.875 0.832031 12.2294 0.832031 12.6667V15.8333C0.832031 17.145 1.95132 18.2083 3.33203 18.2083H6.66536C7.1256 18.2083 7.4987 17.8539 7.4987 17.4167C7.4987 16.9794 7.1256 16.625 6.66536 16.625H3.33203Z" fill="#858C93"/>
<path d="M0.832031 6.33366C0.832031 6.77088 1.20513 7.12532 1.66536 7.12532C2.1256 7.12532 2.4987 6.77088 2.4987 6.33366V3.16699C2.4987 2.72977 2.8718 2.37533 3.33203 2.37533H6.66536C7.1256 2.37533 7.4987 2.02088 7.4987 1.58366C7.4987 1.14644 7.1256 0.791992 6.66536 0.791992H3.33203C1.95132 0.791992 0.832031 1.85532 0.832031 3.16699V6.33366Z" fill="#858C93"/>
<path fill-rule="evenodd" clip-rule="evenodd" d="M9.16797 4.74967C9.16797 4.31245 8.79489 3.95801 8.33464 3.95801H5.0013C4.54107 3.95801 4.16797 4.31245 4.16797 4.74967V7.91634C4.16797 8.35358 4.54107 8.70801 5.0013 8.70801H8.33464C8.79489 8.70801 9.16797 8.35358 9.16797 7.91634V4.74967ZM7.5013 5.93717C7.5013 5.71856 7.31475 5.54134 7.08464 5.54134H6.2513C6.02119 5.54134 5.83464 5.71856 5.83464 5.93717V6.72884C5.83464 6.94745 6.02119 7.12467 6.2513 7.12467H7.08464C7.31475 7.12467 7.5013 6.94745 7.5013 6.72884V5.93717Z" fill="#858C93"/>
<path fill-rule="evenodd" clip-rule="evenodd" d="M14.9987 10.292C15.4589 10.292 15.832 10.6464 15.832 11.0837V14.2503C15.832 14.6876 15.4589 15.042 14.9987 15.042H11.6654C11.2051 15.042 10.832 14.6876 10.832 14.2503V11.0837C10.832 10.6464 11.2051 10.292 11.6654 10.292H14.9987ZM12.4987 12.2712C12.4987 12.0526 12.6853 11.8753 12.9154 11.8753H13.7487C13.9788 11.8753 14.1654 12.0526 14.1654 12.2712V13.0628C14.1654 13.2814 13.9788 13.4587 13.7487 13.4587H12.9154C12.6853 13.4587 12.4987 13.2814 12.4987 13.0628V12.2712Z" fill="#858C93"/>
<path d="M11.6654 3.95801C11.2051 3.95801 10.832 4.31245 10.832 4.74967C10.832 5.1869 11.2051 5.54134 11.6654 5.54134H13.7487C13.9788 5.54134 14.1654 5.71856 14.1654 5.93717V7.91634C14.1654 8.35358 14.5384 8.70801 14.9987 8.70801C15.4589 8.70801 15.832 8.35358 15.832 7.91634V4.74967C15.832 4.31245 15.4589 3.95801 14.9987 3.95801H11.6654Z" fill="#858C93"/>
<path d="M11.6654 6.33301C11.2051 6.33301 10.832 6.68744 10.832 7.12467V7.91634C10.832 8.35358 11.2051 8.70801 11.6654 8.70801C12.1256 8.70801 12.4987 8.35358 12.4987 7.91634V7.12467C12.4987 6.68745 12.1256 6.33301 11.6654 6.33301Z" fill="#858C93"/>
<path d="M5.0013 10.292C4.54107 10.292 4.16797 10.6464 4.16797 11.0837V12.667C4.16797 13.1042 4.54107 13.4587 5.0013 13.4587C5.46154 13.4587 5.83464 13.1042 5.83464 12.667V12.2712C5.83464 12.0526 6.02119 11.8753 6.2513 11.8753H8.33464C8.79489 11.8753 9.16797 11.5209 9.16797 11.0837C9.16797 10.6464 8.79489 10.292 8.33464 10.292H5.0013Z" fill="#858C93"/>
<path d="M8.33333 13.458C7.87309 13.458 7.5 13.8124 7.5 14.2497C7.5 14.6869 7.87309 15.0413 8.33333 15.0413C8.79358 15.0413 9.16667 14.6869 9.16667 14.2497C9.16667 13.8124 8.79358 13.458 8.33333 13.458Z" fill="#858C93"/>
</g>
<defs>
<clipPath id="clip0_1845_39906">
<rect width="20" height="19" fill="white"/>
</clipPath>
</defs>
</svg>
