<svg width="27" height="27" viewBox="0 0 27 27" fill="none" xmlns="http://www.w3.org/2000/svg">
<g clip-path="url(#clip0_597_8329)">
<path d="M13.0107 1.6709C7.72944 1.6709 3.22007 5.0834 1.55444 9.7959H24.5482C22.8419 5.0834 18.3326 1.6709 13.0107 1.6709Z" fill="#F9F9F9"/>
<path d="M13.0107 26.0459C18.3326 26.0459 22.8419 22.6334 24.5076 17.9209H1.55444C3.22007 22.674 7.72944 26.0459 13.0107 26.0459Z" fill="#ED4C5C"/>
<path d="M1.55439 9.7959C1.10752 11.0553 0.86377 12.4365 0.86377 13.8584C0.86377 15.2803 1.10752 16.6615 1.55439 17.9209H24.5481C24.995 16.6615 25.2388 15.2803 25.2388 13.8584C25.2388 12.4365 24.995 11.0553 24.5481 9.7959H1.55439Z" fill="#428BC1"/>
</g>
<defs>
<clipPath id="clip0_597_8329">
<rect width="26" height="26" fill="white" transform="translate(0.0512695 0.858398)"/>
</clipPath>
</defs>
</svg>
