<svg width="110" height="28" viewBox="0 0 110 28" fill="none" xmlns="http://www.w3.org/2000/svg">
<g clip-path="url(#clip0_1889_10090)">
<mask id="mask0_1889_10090" style="mask-type:luminance" maskUnits="userSpaceOnUse" x="0" y="0" width="29" height="28">
<path d="M28.7155 13.9644C28.7158 13.1259 28.641 12.289 28.4921 11.4637L25.4859 13.6782C25.4859 13.7731 25.4859 13.8695 25.4859 13.9574C25.4892 16.3601 24.6876 18.6947 23.209 20.5885C21.7304 22.4823 19.66 23.8263 17.3283 24.4059C14.9965 24.9855 12.5379 24.7674 10.3446 23.7863C8.15137 22.8052 6.34997 21.1177 5.22789 18.9931C4.10581 16.8685 3.72774 14.4293 4.15401 12.0648C4.58028 9.70019 5.78632 7.54655 7.57965 5.94755C9.37299 4.34854 11.6503 3.39633 14.048 3.24287C16.4458 3.08942 18.8259 3.74357 20.8084 5.10093L23.5242 3.09869C21.0599 1.11006 17.9928 0.0181475 14.8262 0.00213184C11.6597 -0.0138838 8.58172 1.04695 6.09744 3.01055C3.61316 4.97415 1.87013 7.72388 1.15436 10.8085C0.438585 13.8932 0.792595 17.1295 2.1583 19.9865C3.524 22.8434 5.82027 25.1513 8.6703 26.5314C11.5203 27.9115 14.7548 28.2819 17.8431 27.5817C20.9313 26.8815 23.6898 25.1523 25.6659 22.678C27.642 20.2036 28.7183 17.131 28.7183 13.9644H28.7155Z" fill="white"/>
</mask>
<g mask="url(#mask0_1889_10090)">
<mask id="mask1_1889_10090" style="mask-type:luminance" maskUnits="userSpaceOnUse" x="0" y="-1" width="30" height="30">
<path d="M29.4108 -0.693359H0.0878906V28.6296H29.4108V-0.693359Z" fill="white"/>
</mask>
<g mask="url(#mask1_1889_10090)">
<mask id="mask2_1889_10090" style="mask-type:luminance" maskUnits="userSpaceOnUse" x="0" y="-1" width="30" height="30">
<path d="M29.4128 -0.691406H0.0898438V28.6316H29.4128V-0.691406Z" fill="white"/>
</mask>
<g mask="url(#mask2_1889_10090)">
<rect x="0.0371094" y="-0.753906" width="29.4221" height="29.4221" fill="white"/>
</g>
</g>
</g>
<path d="M49.6926 18.7594C48.724 19.2841 47.6386 19.556 46.537 19.5497C43.2419 19.5497 40.85 17.197 40.85 13.9563C40.85 10.7155 43.2419 8.3698 46.537 8.3698C47.7281 8.35248 48.8933 8.71755 49.8615 9.41141L52.4837 7.47898L52.3106 7.32679C50.7747 5.98218 48.7348 5.27148 46.396 5.27148C43.859 5.27148 41.5566 6.126 39.9132 7.68004C38.2698 9.23409 37.3496 11.4402 37.3496 13.8697C37.3496 16.2992 38.2572 18.5416 39.9048 20.1529C41.5524 21.7642 43.8534 22.6578 46.3723 22.6578C49.007 22.6578 51.3081 21.7391 52.8691 20.0677L50.5024 18.3238L49.6926 18.7594Z" fill="white"/>
<path d="M65.8852 12.0951H61.4367V8.31264H68.5367L72.3638 5.49219H57.7812V22.4331H65.4132C69.6942 22.4331 72.1488 20.4923 72.1488 17.1105C72.1488 13.8768 69.9246 12.0951 65.8852 12.0951ZM65.2485 19.6112H61.4367V14.9156H65.2485C67.5677 14.9156 68.6484 15.7017 68.6484 17.2641C68.6484 18.86 67.5048 19.6112 65.2485 19.6112Z" fill="white"/>
<path d="M86.2562 8.31264L90.0833 5.49219H77.2754V22.4331H90.0833V19.6112H80.9308V15.2744H88.7373V12.454H80.9308V8.31264H86.2562Z" fill="white"/>
<path d="M101.969 5.49219H94.9961V22.4317H98.6501V17.6341H101.969C106.419 17.6341 109.184 15.294 109.184 11.5548C109.184 7.81558 106.419 5.49219 101.969 5.49219ZM101.888 14.8137H98.6501V8.31264H101.888C104.231 8.31264 105.518 9.46736 105.518 11.5632C105.518 13.659 104.23 14.8137 101.888 14.8137Z" fill="white"/>
<path d="M26.1115 5.45703C26.783 6.31023 27.3518 7.23706 27.8065 8.219L14.9341 17.5497L9.55664 14.2334V10.2446L14.9341 13.5595L26.1115 5.45703Z" fill="white"/>
</g>
<defs>
<clipPath id="clip0_1889_10090">
<rect width="108.908" height="27.9263" fill="white" transform="translate(0.376953)"/>
</clipPath>
</defs>
</svg>
