<svg width="31" height="31" viewBox="0 0 31 31" fill="none" xmlns="http://www.w3.org/2000/svg">
<g clip-path="url(#clip0_2001_16999)">
<path d="M15.5 18.7708C17.6401 18.7708 19.375 17.0918 19.375 15.0208C19.375 12.9497 17.6401 11.2708 15.5 11.2708C13.3599 11.2708 11.625 12.9497 11.625 15.0208C11.625 17.0918 13.3599 18.7708 15.5 18.7708Z" stroke="#8A929A" stroke-width="1.5" stroke-linecap="round" stroke-linejoin="round"/>
<path d="M25.0596 18.7708C24.8877 19.1478 24.8364 19.566 24.9124 19.9715C24.9884 20.377 25.1881 20.7512 25.4859 21.0458L25.5634 21.1208C25.8036 21.3529 25.9941 21.6287 26.1241 21.9322C26.2541 22.2356 26.321 22.561 26.321 22.8895C26.321 23.218 26.2541 23.5434 26.1241 23.8469C25.9941 24.1503 25.8036 24.4261 25.5634 24.6583C25.3235 24.8907 25.0386 25.0751 24.7249 25.2009C24.4113 25.3267 24.0752 25.3915 23.7357 25.3915C23.3962 25.3915 23.06 25.3267 22.7464 25.2009C22.4328 25.0751 22.1479 24.8907 21.908 24.6583L21.8305 24.5833C21.5261 24.2951 21.1394 24.1018 20.7204 24.0282C20.3014 23.9547 19.8692 24.0044 19.4796 24.1708C19.0976 24.3292 18.7718 24.5923 18.5423 24.9277C18.3128 25.263 18.1896 25.656 18.188 26.0583V26.2708C18.188 26.9338 17.9158 27.5697 17.4313 28.0385C16.9469 28.5074 16.2898 28.7708 15.6046 28.7708C14.9195 28.7708 14.2624 28.5074 13.7779 28.0385C13.2935 27.5697 13.0213 26.9338 13.0213 26.2708V26.1583C13.0113 25.7445 12.8729 25.3432 12.6241 25.0066C12.3753 24.67 12.0277 24.4136 11.6263 24.2708C11.2367 24.1044 10.8046 24.0547 10.3855 24.1282C9.96653 24.2018 9.57989 24.3951 9.27547 24.6833L9.19797 24.7583C8.95805 24.9907 8.67313 25.1751 8.35952 25.3009C8.04591 25.4267 7.70975 25.4915 7.37026 25.4915C7.03077 25.4915 6.69461 25.4267 6.381 25.3009C6.06739 25.1751 5.78247 24.9907 5.54255 24.7583C5.30236 24.5261 5.11182 24.2503 4.98181 23.9469C4.85181 23.6434 4.78489 23.318 4.78489 22.9895C4.78489 22.661 4.85181 22.3356 4.98181 22.0322C5.11182 21.7287 5.30236 21.4529 5.54255 21.2208L5.62005 21.1458C5.91783 20.8512 6.11758 20.477 6.19356 20.0715C6.26953 19.666 6.21824 19.2478 6.0463 18.8708C5.88257 18.501 5.61069 18.1857 5.26415 17.9636C4.91761 17.7415 4.51153 17.6224 4.09589 17.6208H3.8763C3.19116 17.6208 2.53408 17.3574 2.04961 16.8885C1.56514 16.4197 1.29297 15.7838 1.29297 15.1208C1.29297 14.4577 1.56514 13.8218 2.04961 13.353C2.53408 12.8841 3.19116 12.6208 3.8763 12.6208H3.99255C4.42009 12.6111 4.83473 12.4771 5.18256 12.2364C5.5304 11.9956 5.79535 11.6592 5.94297 11.2708C6.11491 10.8937 6.1662 10.4755 6.09022 10.07C6.01425 9.66452 5.8145 9.29035 5.51672 8.99575L5.43922 8.92075C5.19903 8.68857 5.00849 8.41285 4.87848 8.10935C4.74848 7.80586 4.68156 7.48054 4.68156 7.152C4.68156 6.82346 4.74848 6.49815 4.87848 6.19465C5.00849 5.89116 5.19903 5.61543 5.43922 5.38325C5.67914 5.15081 5.96405 4.96641 6.27766 4.8406C6.59128 4.71479 6.92744 4.65004 7.26693 4.65004C7.60642 4.65004 7.94258 4.71479 8.25619 4.8406C8.5698 4.96641 8.85471 5.15081 9.09464 5.38325L9.17214 5.45825C9.47655 5.74642 9.8632 5.93973 10.2822 6.01326C10.7012 6.08678 11.1334 6.03715 11.523 5.87075H11.6263C12.0083 5.7123 12.3342 5.4492 12.5637 5.11383C12.7932 4.77847 12.9163 4.38549 12.918 3.98325V3.77075C12.918 3.10771 13.1901 2.47183 13.6746 2.00299C14.1591 1.53414 14.8162 1.27075 15.5013 1.27075C16.1864 1.27075 16.8435 1.53414 17.328 2.00299C17.8125 2.47183 18.0846 3.10771 18.0846 3.77075V3.88325C18.0863 4.28549 18.2095 4.67847 18.439 5.01383C18.6684 5.3492 18.9943 5.6123 19.3763 5.77075C19.7659 5.93715 20.1981 5.98678 20.6171 5.91326C21.0361 5.83973 21.4227 5.64642 21.7271 5.35825L21.8046 5.28325C22.0446 5.05081 22.3295 4.86641 22.6431 4.7406C22.9567 4.61479 23.2929 4.55004 23.6323 4.55004C23.9718 4.55004 24.308 4.61479 24.6216 4.7406C24.9352 4.86641 25.2201 5.05081 25.4601 5.28325C25.7002 5.51543 25.8908 5.79116 26.0208 6.09465C26.1508 6.39815 26.2177 6.72346 26.2177 7.052C26.2177 7.38054 26.1508 7.70586 26.0208 8.00935C25.8908 8.31285 25.7002 8.58857 25.4601 8.82075L25.3826 8.89575C25.0848 9.19035 24.885 9.56452 24.809 9.97002C24.7331 10.3755 24.7844 10.7937 24.9563 11.1708V11.2708C25.12 11.6405 25.3919 11.9558 25.7385 12.1779C26.085 12.4 26.4911 12.5191 26.9067 12.5208H27.1263C27.8114 12.5208 28.4685 12.7841 28.953 13.253C29.4375 13.7218 29.7096 14.3577 29.7096 15.0208C29.7096 15.6838 29.4375 16.3197 28.953 16.7885C28.4685 17.2574 27.8114 17.5208 27.1263 17.5208H27.0101C26.5944 17.5224 26.1883 17.6415 25.8418 17.8636C25.4952 18.0857 25.2234 18.401 25.0596 18.7708V18.7708Z" stroke="#8A929A" stroke-width="1.5" stroke-linecap="round" stroke-linejoin="round"/>
</g>
<defs>
<clipPath id="clip0_2001_16999">
<rect width="31" height="30" fill="white" transform="translate(0 0.020752)"/>
</clipPath>
</defs>
</svg>
