<svg width="235" height="203" viewBox="0 0 235 203" fill="none" xmlns="http://www.w3.org/2000/svg">
<path d="M76.9609 150.262C76.9609 156.191 109.082 160.985 148.675 160.985C188.269 160.985 220.39 156.191 220.39 150.262V133.94H76.9609V150.262Z" fill="#CE5900"/>
<path d="M148.675 123.253C109.082 123.253 76.9609 128.048 76.9609 133.94C76.9609 139.832 109.082 144.626 148.675 144.626C188.269 144.626 220.39 139.832 220.39 133.94C220.39 128.048 188.269 123.253 148.675 123.253Z" fill="#F18B00"/>
<path d="M90.6958 124.022C90.6958 129.914 122.817 134.708 162.41 134.708C202.003 134.708 234.125 129.914 234.125 124.022V107.664H90.6958V124.022Z" fill="#CE5900"/>
<path d="M162.41 96.9771C122.817 96.9771 90.6958 101.771 90.6958 107.663C90.6958 113.555 122.817 118.349 162.41 118.349C202.003 118.349 234.125 113.592 234.125 107.663C234.125 101.735 202.003 96.9771 162.41 96.9771Z" fill="#FFA400"/>
<path d="M100.292 107.663C109.558 110.225 130.436 113.189 162.557 113.189C194.678 113.189 215.445 110.225 224.822 107.663C215.592 105.138 194.715 102.174 162.557 102.174C130.399 102.174 109.558 105.138 100.292 107.663Z" fill="#F18B00"/>
<path d="M62.347 96.9773C62.347 102.906 94.4318 107.664 134.062 107.664C173.691 107.664 205.776 102.943 205.776 96.9773V80.6553H62.347V96.9773Z" fill="#CE5900"/>
<path d="M134.062 70.0059C94.4318 70.0059 62.347 74.7634 62.347 80.692C62.347 86.6207 94.4318 91.3782 134.062 91.3782C173.691 91.3782 205.776 86.5841 205.776 80.692C205.776 74.8 173.655 70.0059 134.062 70.0059Z" fill="#F18B00"/>
<path d="M81.2462 72.3845C81.2462 78.2766 113.368 83.0341 152.961 83.0341C192.554 83.0341 224.675 78.2766 224.675 72.3845V56.0259H81.2462V72.3845Z" fill="#CE5900"/>
<path d="M152.961 45.3394C113.368 45.3394 81.2462 50.1335 81.2462 56.0255C81.2462 61.9176 113.368 66.7117 152.961 66.7117C192.554 66.7117 224.675 61.9542 224.675 56.0255C224.675 50.0969 192.554 45.3394 152.961 45.3394Z" fill="#FFB51F"/>
<path d="M90.8057 56.0256C100.072 58.5874 120.949 61.5517 153.071 61.5517C185.192 61.5517 205.959 58.5874 215.335 56.0256C206.106 53.4639 185.229 50.5361 153.071 50.5361C120.913 50.5361 100.072 53.4639 90.8057 56.0256Z" fill="#FFA400"/>
<g style="mix-blend-mode:multiply">
<path d="M175.449 66.3458C168.381 66.6752 160.799 66.8581 152.997 66.8581C142.522 66.8581 132.596 66.5288 123.696 65.9432L99.8158 65.0283L88.0221 105.285L91.8679 105.724C91.5096 105.937 91.2046 106.229 90.9762 106.578C90.7477 106.927 90.6017 107.323 90.5493 107.736V124.095C90.5493 125.156 91.6115 126.181 93.5893 127.169C89.1235 127.823 84.7482 128.989 80.5503 130.646L76.8877 143.308V150.335C76.8877 156.263 109.009 161.058 148.602 161.058C154.06 161.058 159.37 161.058 164.498 160.801V145.76L179.149 134.781V118.349L195.594 102.284V86.1079L176.731 82.4483L175.449 66.3458Z" fill="#CEC5C7"/>
</g>
<path d="M152.651 152.074C180.657 124.09 180.657 78.7202 152.651 50.7368C124.645 22.7534 79.2377 22.7534 51.2314 50.7368C23.2252 78.7202 23.2252 124.09 51.2314 152.074C79.2377 180.057 124.645 180.057 152.651 152.074Z" fill="#FFB51F"/>
<path d="M101.94 36.0439C89.0024 36.0439 76.3551 39.8773 65.5977 47.0593C54.8403 54.2413 46.4559 64.4494 41.5048 76.3926C36.5537 88.3359 35.2583 101.478 37.7823 114.157C40.3064 126.836 46.5365 138.482 55.685 147.623C64.8334 156.764 76.4892 162.989 89.1784 165.511C101.868 168.033 115.02 166.738 126.973 161.791C138.926 156.844 149.143 148.467 156.331 137.718C163.518 126.97 167.355 114.333 167.355 101.405C167.336 84.0764 160.437 67.4627 148.174 55.2093C135.911 42.9558 119.283 36.0633 101.94 36.0439Z" fill="#EC6D00"/>
<path d="M157.163 118.074C166.393 87.6059 149.155 55.4304 118.662 46.2082C88.1687 36.9861 55.9669 54.2095 46.7372 84.6779C37.5075 115.146 54.745 147.322 85.2383 156.544C115.731 165.766 147.933 148.543 157.163 118.074Z" fill="#FFA400"/>
<path d="M102.233 77.4347L91.8313 60.8198L89.5604 62.2471L99.5594 78.2032V125.157L114.796 140.381L116.701 138.478L102.233 124.059V77.4347Z" fill="#CE5900"/>
<path d="M75.5691 69.3833L73.7378 71.3595C79.9643 77.1418 88.9744 85.9981 90.2197 87.5718V122.046L78.9021 133.574L80.8067 135.44L92.8934 123.144V87.2424C92.8934 86.5837 92.8934 85.559 75.5691 69.3833Z" fill="#CE5900"/>
<path d="M79.3417 100.966H64.8743V103.637H79.3417V100.966Z" fill="#CE5900"/>
<path d="M111.28 81.3869L120.693 63.9669L118.312 62.686L108.606 80.7281V117.325H136.625V114.653H111.28V81.3869Z" fill="#CE5900"/>
<path d="M138.97 89.3281H124.575V91.9997H138.97V89.3281Z" fill="#CE5900"/>
<path d="M72.9321 64.8452C72.0266 64.8452 71.1414 65.1135 70.3885 65.6162C69.6356 66.1188 69.0488 66.8333 68.7023 67.6692C68.3557 68.5051 68.2651 69.4249 68.4417 70.3122C68.6184 71.1996 69.0544 72.0147 69.6947 72.6545C70.335 73.2943 71.1508 73.7299 72.0389 73.9065C72.927 74.083 73.8475 73.9924 74.6841 73.6461C75.5207 73.2999 76.2357 72.7136 76.7388 71.9613C77.2419 71.209 77.5104 70.3245 77.5104 69.4198C77.5104 68.2065 77.028 67.043 76.1694 66.1851C75.3108 65.3272 74.1463 64.8452 72.9321 64.8452ZM72.9321 71.3228C72.5554 71.3228 72.1871 71.2112 71.8739 71.0021C71.5607 70.793 71.3166 70.4958 71.1725 70.148C71.0283 69.8003 70.9906 69.4177 71.0641 69.0485C71.1376 68.6794 71.319 68.3403 71.5853 68.0741C71.8517 67.808 72.191 67.6268 72.5605 67.5533C72.93 67.4799 73.3129 67.5176 73.6609 67.6616C74.0089 67.8057 74.3064 68.0496 74.5157 68.3625C74.7249 68.6755 74.8366 69.0434 74.8366 69.4198C74.8366 69.9245 74.636 70.4085 74.2788 70.7654C73.9216 71.1223 73.4372 71.3228 72.9321 71.3228Z" fill="#CE5900"/>
<path d="M77.84 131.744C76.9345 131.744 76.0494 132.012 75.2965 132.515C74.5436 133.017 73.9567 133.732 73.6102 134.568C73.2637 135.403 73.173 136.323 73.3497 137.211C73.5263 138.098 73.9624 138.913 74.6027 139.553C75.243 140.193 76.0587 140.628 76.9468 140.805C77.8349 140.981 78.7555 140.891 79.5921 140.545C80.4286 140.198 81.1437 139.612 81.6467 138.86C82.1498 138.107 82.4183 137.223 82.4183 136.318C82.4087 135.108 81.9233 133.95 81.0668 133.094C80.2103 132.238 79.0513 131.753 77.84 131.744ZM77.84 138.221C77.4633 138.221 77.0951 138.11 76.7819 137.901C76.4687 137.691 76.2246 137.394 76.0804 137.046C75.9363 136.699 75.8986 136.316 75.972 135.947C76.0455 135.578 76.2269 135.239 76.4933 134.973C76.7596 134.706 77.099 134.525 77.4685 134.452C77.8379 134.378 78.2209 134.416 78.5689 134.56C78.9169 134.704 79.2143 134.948 79.4236 135.261C79.6329 135.574 79.7446 135.942 79.7446 136.318C79.7446 136.823 79.5439 137.307 79.1868 137.664C78.8296 138.021 78.3451 138.221 77.84 138.221Z" fill="#CE5900"/>
<path d="M62.7866 97.563C61.8811 97.563 60.9959 97.8313 60.243 98.3339C59.4901 98.8366 58.9033 99.551 58.5568 100.387C58.2102 101.223 58.1196 102.143 58.2962 103.03C58.4729 103.917 58.9089 104.732 59.5492 105.372C60.1895 106.012 61.0053 106.448 61.8934 106.624C62.7815 106.801 63.702 106.71 64.5386 106.364C65.3752 106.018 66.0902 105.431 66.5933 104.679C67.0963 103.927 67.3649 103.042 67.3649 102.138C67.3649 100.924 66.8825 99.7607 66.0239 98.9028C65.1653 98.0449 64.0008 97.563 62.7866 97.563ZM62.7866 104.041C62.4099 104.041 62.0416 103.929 61.7284 103.72C61.4152 103.511 61.1711 103.214 61.027 102.866C60.8828 102.518 60.8451 102.135 60.9186 101.766C60.9921 101.397 61.1735 101.058 61.4398 100.792C61.7062 100.526 62.0455 100.345 62.415 100.271C62.7844 100.198 63.1674 100.235 63.5154 100.379C63.8634 100.523 64.1609 100.767 64.3701 101.08C64.5794 101.393 64.6911 101.761 64.6911 102.138C64.6911 102.642 64.4905 103.126 64.1333 103.483C63.7761 103.84 63.2917 104.041 62.7866 104.041Z" fill="#CE5900"/>
<path d="M82.6014 97.563C81.6959 97.563 80.8107 97.8313 80.0578 98.3339C79.3049 98.8366 78.7181 99.551 78.3716 100.387C78.0251 101.223 77.9344 102.143 78.111 103.03C78.2877 103.917 78.7237 104.732 79.364 105.372C80.0043 106.012 80.8201 106.448 81.7082 106.624C82.5963 106.801 83.5168 106.71 84.3534 106.364C85.19 106.018 85.905 105.431 86.4081 104.679C86.9112 103.927 87.1797 103.042 87.1797 102.138C87.1797 100.924 86.6973 99.7607 85.8387 98.9028C84.9801 98.0449 83.8156 97.563 82.6014 97.563ZM82.6014 104.041C82.2247 104.041 81.8565 103.929 81.5433 103.72C81.23 103.511 80.9859 103.214 80.8418 102.866C80.6976 102.518 80.6599 102.135 80.7334 101.766C80.8069 101.397 80.9883 101.058 81.2546 100.792C81.521 100.526 81.8604 100.345 82.2298 100.271C82.5993 100.198 82.9822 100.235 83.3302 100.379C83.6782 100.523 83.9757 100.767 84.185 101.08C84.3943 101.393 84.5059 101.761 84.5059 102.138C84.5059 102.642 84.3053 103.126 83.9481 103.483C83.5909 103.84 83.1065 104.041 82.6014 104.041Z" fill="#CE5900"/>
<path d="M117.506 136.611C116.601 136.611 115.716 136.879 114.963 137.382C114.21 137.884 113.623 138.599 113.277 139.435C112.93 140.271 112.839 141.19 113.016 142.078C113.193 142.965 113.629 143.78 114.269 144.42C114.909 145.06 115.725 145.496 116.613 145.672C117.501 145.849 118.422 145.758 119.258 145.412C120.095 145.066 120.81 144.479 121.313 143.727C121.816 142.975 122.085 142.09 122.085 141.185C122.085 139.972 121.602 138.809 120.744 137.951C119.885 137.093 118.721 136.611 117.506 136.611ZM117.506 143.088C117.13 143.088 116.761 142.977 116.448 142.768C116.135 142.559 115.891 142.261 115.747 141.914C115.603 141.566 115.565 141.183 115.638 140.814C115.712 140.445 115.893 140.106 116.16 139.84C116.426 139.574 116.765 139.392 117.135 139.319C117.504 139.246 117.887 139.283 118.235 139.427C118.583 139.571 118.881 139.815 119.09 140.128C119.299 140.441 119.411 140.809 119.411 141.185C119.426 141.444 119.388 141.704 119.299 141.947C119.21 142.191 119.072 142.414 118.894 142.603C118.715 142.791 118.5 142.941 118.262 143.044C118.023 143.146 117.766 143.199 117.506 143.198V143.088Z" fill="#CE5900"/>
<path d="M138.75 111.396C137.844 111.396 136.959 111.664 136.206 112.167C135.453 112.67 134.866 113.384 134.52 114.22C134.173 115.056 134.083 115.976 134.259 116.863C134.436 117.75 134.872 118.566 135.512 119.205C136.153 119.845 136.968 120.281 137.857 120.457C138.745 120.634 139.665 120.543 140.502 120.197C141.338 119.851 142.053 119.264 142.556 118.512C143.059 117.76 143.328 116.875 143.328 115.971C143.328 114.757 142.846 113.594 141.987 112.736C141.128 111.878 139.964 111.396 138.75 111.396ZM138.75 117.91C138.241 117.901 137.757 117.692 137.401 117.329C137.045 116.967 136.845 116.479 136.845 115.971C136.909 115.507 137.139 115.082 137.493 114.774C137.846 114.466 138.299 114.297 138.768 114.297C139.237 114.297 139.69 114.466 140.043 114.774C140.397 115.082 140.627 115.507 140.691 115.971C140.691 116.225 140.641 116.478 140.543 116.713C140.446 116.948 140.303 117.162 140.122 117.342C139.942 117.522 139.728 117.665 139.493 117.763C139.257 117.86 139.005 117.91 138.75 117.91Z" fill="#CE5900"/>
<path d="M141.094 86.1079C140.188 86.1079 139.303 86.3762 138.55 86.8789C137.797 87.3815 137.211 88.096 136.864 88.9319C136.517 89.7678 136.427 90.6876 136.603 91.5749C136.78 92.4623 137.216 93.2774 137.856 93.9172C138.497 94.557 139.313 94.9926 140.201 95.1692C141.089 95.3457 142.009 95.2551 142.846 94.9088C143.682 94.5626 144.397 93.9763 144.901 93.224C145.404 92.4717 145.672 91.5872 145.672 90.6825C145.672 89.4692 145.19 88.3057 144.331 87.4478C143.473 86.5899 142.308 86.1079 141.094 86.1079ZM141.094 92.5855C140.717 92.5855 140.349 92.4739 140.036 92.2648C139.722 92.0557 139.478 91.7585 139.334 91.4107C139.19 91.063 139.152 90.6804 139.226 90.3112C139.299 89.9421 139.481 89.603 139.747 89.3368C140.013 89.0707 140.353 88.8895 140.722 88.816C141.092 88.7426 141.475 88.7803 141.823 88.9243C142.171 89.0684 142.468 89.3123 142.677 89.6252C142.887 89.9382 142.998 90.3061 142.998 90.6825C142.998 91.1872 142.798 91.6712 142.441 92.0281C142.083 92.385 141.599 92.5855 141.094 92.5855Z" fill="#CE5900"/>
<path d="M120.766 57.3429C119.866 57.3645 118.992 57.651 118.253 58.1666C117.515 58.6822 116.945 59.404 116.616 60.2416C116.286 61.0791 116.211 61.9953 116.4 62.8753C116.588 63.7553 117.033 64.5601 117.677 65.189C118.322 65.8178 119.138 66.2427 120.022 66.4105C120.907 66.5783 121.822 66.4815 122.653 66.1323C123.483 65.783 124.191 65.1969 124.69 64.4472C125.188 63.6974 125.454 62.8175 125.454 61.9174C125.45 61.3088 125.324 60.7071 125.086 60.147C124.847 59.587 124.5 59.0797 124.064 58.6544C123.628 58.2292 123.112 57.8943 122.546 57.6692C121.98 57.4441 121.375 57.3332 120.766 57.3429ZM120.766 63.8205C120.389 63.8205 120.021 63.7088 119.708 63.4997C119.395 63.2906 119.151 62.9934 119.007 62.6457C118.862 62.298 118.825 61.9153 118.898 61.5462C118.972 61.177 119.153 60.8379 119.419 60.5718C119.686 60.3057 120.025 60.1244 120.395 60.051C120.764 59.9776 121.147 60.0152 121.495 60.1593C121.843 60.3033 122.14 60.5472 122.35 60.8602C122.559 61.1731 122.671 61.5411 122.671 61.9174C122.671 62.4221 122.47 62.9062 122.113 63.2631C121.756 63.62 121.271 63.8205 120.766 63.8205Z" fill="#CE5900"/>
<path d="M89.4506 55.3667C88.5451 55.3667 87.6599 55.635 86.9071 56.1377C86.1542 56.6403 85.5673 57.3548 85.2208 58.1907C84.8743 59.0265 84.7836 59.9463 84.9603 60.8337C85.1369 61.7211 85.573 62.5362 86.2133 63.176C86.8536 63.8157 87.6693 64.2514 88.5574 64.4279C89.4455 64.6044 90.3661 64.5139 91.2027 64.1676C92.0392 63.8214 92.7543 63.235 93.2573 62.4828C93.7604 61.7305 94.0289 60.846 94.0289 59.9413C94.0289 58.728 93.5466 57.5645 92.688 56.7066C91.8294 55.8487 90.6649 55.3667 89.4506 55.3667ZM89.4506 61.8443C89.1672 61.9252 88.8688 61.9392 88.579 61.8854C88.2892 61.8315 88.0159 61.7111 87.7805 61.5337C87.5452 61.3563 87.3543 61.1268 87.2228 60.8632C87.0913 60.5995 87.0229 60.309 87.0229 60.0145C87.0229 59.7199 87.0913 59.4294 87.2228 59.1658C87.3543 58.9021 87.5452 58.6726 87.7805 58.4952C88.0159 58.3178 88.2892 58.1975 88.579 58.1436C88.8688 58.0897 89.1672 58.1037 89.4506 58.1846C89.7341 58.1037 90.0324 58.0897 90.3222 58.1436C90.612 58.1975 90.8854 58.3178 91.1207 58.4952C91.356 58.6726 91.547 58.9021 91.6784 59.1658C91.8099 59.4294 91.8783 59.7199 91.8783 60.0145C91.8783 60.309 91.8099 60.5995 91.6784 60.8632C91.547 61.1268 91.356 61.3563 91.1207 61.5337C90.8854 61.7111 90.612 61.8315 90.3222 61.8854C90.0324 61.9392 89.7341 61.9252 89.4506 61.8443Z" fill="#CE5900"/>
<path d="M121.315 86.1079C120.41 86.1079 119.525 86.3762 118.772 86.8789C118.019 87.3815 117.432 88.096 117.086 88.9319C116.739 89.7678 116.649 90.6876 116.825 91.5749C117.002 92.4623 117.438 93.2774 118.078 93.9172C118.718 94.557 119.534 94.9926 120.422 95.1692C121.31 95.3457 122.231 95.2551 123.068 94.9088C123.904 94.5626 124.619 93.9763 125.122 93.224C125.625 92.4717 125.894 91.5872 125.894 90.6825C125.894 89.4692 125.411 88.3057 124.553 87.4478C123.694 86.5899 122.53 86.1079 121.315 86.1079ZM121.315 92.5855C120.939 92.5855 120.571 92.4739 120.257 92.2648C119.944 92.0557 119.7 91.7585 119.556 91.4107C119.412 91.063 119.374 90.6804 119.448 90.3112C119.521 89.9421 119.702 89.603 119.969 89.3368C120.235 89.0707 120.574 88.8895 120.944 88.816C121.313 88.7426 121.696 88.7803 122.044 88.9243C122.392 89.0684 122.69 89.3123 122.899 89.6252C123.108 89.9382 123.22 90.3061 123.22 90.6825C123.22 91.1872 123.019 91.6712 122.662 92.0281C122.305 92.385 121.821 92.5855 121.315 92.5855Z" fill="#CE5900"/>
<path d="M101.94 29.749C91.91 29.742 81.9902 31.8395 72.8228 35.9056C63.6553 39.9718 55.4446 45.9161 48.7219 53.3538C61.8936 40.0722 79.7392 32.461 98.4497 32.1448C117.16 31.8286 135.253 38.8324 148.867 51.6612C162.481 64.49 170.536 82.1277 171.315 100.809C172.094 119.491 165.533 137.737 153.034 151.652C162.96 141.593 169.687 128.825 172.37 114.955C175.052 101.085 173.569 86.7328 168.108 73.7029C162.646 60.6729 153.45 49.5477 141.677 41.7268C129.903 33.9059 116.078 29.7386 101.94 29.749Z" fill="#FFD683"/>
<path d="M101.94 43.7657C92.4608 43.7624 83.1274 46.0991 74.7696 50.5683C66.4117 55.0375 59.2884 61.5007 54.0328 69.3833C62.9322 57.1644 76.2833 48.9321 91.2043 46.4632C106.125 43.9943 121.42 47.487 133.786 56.1872C146.152 64.8875 154.599 78.0976 157.302 92.9662C160.006 107.835 156.749 123.169 148.236 135.66C154.619 127.096 158.492 116.926 159.419 106.289C160.347 95.6514 158.293 84.9658 153.488 75.4282C148.683 65.8906 141.316 57.8774 132.212 52.2855C123.109 46.6936 112.627 43.7436 101.94 43.7657Z" fill="#CE5900"/>
<g style="mix-blend-mode:soft-light" opacity="0.3">
<path d="M101.94 29.7491C89.5633 29.7368 77.396 32.9401 66.6322 39.0446C60.772 49.9608 57.8425 62.208 58.1295 74.5923C58.4164 86.9765 61.9099 99.0751 68.2694 109.709C74.629 120.342 83.6375 129.148 94.4169 135.267C105.196 141.387 117.379 144.611 129.776 144.626C142.166 144.651 154.349 141.447 165.121 135.33C170.982 124.411 173.912 112.161 173.623 99.7733C173.335 87.386 169.838 75.2849 163.474 64.6503C157.11 54.0156 148.097 45.2105 137.312 39.0938C126.528 32.977 114.341 29.7575 101.94 29.7491Z" fill="white"/>
</g>
<path d="M31.4343 100.6C31.4235 88.9891 34.2424 77.5502 39.6474 67.2717C45.0525 56.9932 52.8812 48.1844 62.4569 41.6064C54.4325 46.7709 47.5206 53.4839 42.1264 61.3521C36.7322 69.2202 32.9642 78.0851 31.0434 87.4272C29.1225 96.7692 29.0874 106.4 30.9401 115.756C32.7928 125.112 36.4961 134.004 41.8328 141.911C47.1695 149.818 54.0323 156.582 62.0189 161.804C70.0054 167.027 78.9551 170.604 88.3432 172.326C97.7313 174.048 107.369 173.88 116.691 171.832C126.013 169.784 134.833 165.897 142.632 160.399C131.825 167.535 119.285 171.612 106.345 172.195C93.4051 172.779 80.5484 169.848 69.1421 163.714C57.7358 157.58 48.2063 148.473 41.5667 137.359C34.927 126.246 31.4255 113.543 31.4343 100.6Z" fill="#CE5900"/>
</svg>
