<svg width="11" height="11" viewBox="0 0 11 11" fill="none" xmlns="http://www.w3.org/2000/svg">
<g clip-path="url(#clip0_191_25439)">
<path d="M3.5599 10.1175H2.3099C2.08888 10.1175 1.87692 10.0297 1.72064 9.87343C1.56436 9.71715 1.47656 9.50519 1.47656 9.28418V6.36751C1.47656 6.1465 1.56436 5.93454 1.72064 5.77826C1.87692 5.62198 2.08888 5.53418 2.3099 5.53418H3.5599M6.47656 4.70085V3.03418C6.47656 2.70266 6.34487 2.38472 6.11045 2.1503C5.87603 1.91588 5.55808 1.78418 5.22656 1.78418L3.5599 5.53418V10.1175H8.2599C8.46087 10.1198 8.65589 10.0493 8.80902 9.91918C8.96216 9.78902 9.06309 9.60789 9.09323 9.40918L9.66823 5.65918C9.68636 5.53974 9.6783 5.4178 9.64462 5.30178C9.61094 5.18577 9.55244 5.07847 9.47317 4.98731C9.3939 4.89615 9.29576 4.82332 9.18555 4.77385C9.07534 4.72439 8.95569 4.69948 8.8349 4.70085H6.47656Z" stroke="#05CA77" stroke-width="1.16667" stroke-linecap="round" stroke-linejoin="round"/>
</g>
<defs>
<clipPath id="clip0_191_25439">
<rect width="10" height="10" fill="white" transform="translate(0.640625 0.951172)"/>
</clipPath>
</defs>
</svg>
