<svg width="21" height="20" viewBox="0 0 21 20" fill="none" xmlns="http://www.w3.org/2000/svg">
<g clip-path="url(#clip0_2378_5057)">
<path d="M14.5257 17.5V15.8333C14.5257 14.9493 14.1745 14.1014 13.5494 13.4763C12.9243 12.8512 12.0764 12.5 11.1924 12.5H4.52572C3.64166 12.5 2.79381 12.8512 2.16869 13.4763C1.54357 14.1014 1.19238 14.9493 1.19238 15.8333V17.5" stroke="#EDF7FF" stroke-opacity="0.5" stroke-linecap="round" stroke-linejoin="round"/>
<path d="M7.8597 9.16667C9.70065 9.16667 11.193 7.67428 11.193 5.83333C11.193 3.99238 9.70065 2.5 7.8597 2.5C6.01875 2.5 4.52637 3.99238 4.52637 5.83333C4.52637 7.67428 6.01875 9.16667 7.8597 9.16667Z" stroke="#EDF7FF" stroke-opacity="0.5" stroke-linecap="round" stroke-linejoin="round"/>
<path d="M19.5264 17.4999V15.8333C19.5258 15.0947 19.28 14.3773 18.8275 13.7935C18.375 13.2098 17.7415 12.7929 17.0264 12.6083" stroke="#EDF7FF" stroke-opacity="0.5" stroke-linecap="round" stroke-linejoin="round"/>
<path d="M13.6924 2.60828C14.4094 2.79186 15.0449 3.20886 15.4987 3.79353C15.9526 4.37821 16.1989 5.0973 16.1989 5.83744C16.1989 6.57758 15.9526 7.29668 15.4987 7.88135C15.0449 8.46603 14.4094 8.88303 13.6924 9.06661" stroke="#EDF7FF" stroke-opacity="0.5" stroke-linecap="round" stroke-linejoin="round"/>
</g>
<defs>
<clipPath id="clip0_2378_5057">
<rect width="20" height="20" fill="white" transform="translate(0.359375)"/>
</clipPath>
</defs>
</svg>
