<svg width="19" height="19" viewBox="0 0 19 19" fill="none" xmlns="http://www.w3.org/2000/svg">
<g clip-path="url(#clip0_4423_25279)">
<path d="M13.3859 16.5007V14.9451C13.3859 14.12 13.0581 13.3287 12.4746 12.7452C11.8912 12.1618 11.0999 11.834 10.2747 11.834H4.05252C3.2274 11.834 2.43608 12.1618 1.85263 12.7452C1.26918 13.3287 0.941406 14.12 0.941406 14.9451V16.5007" stroke="white" stroke-width="1.5" stroke-linecap="round" stroke-linejoin="round"/>
<path d="M7.1658 8.72222C8.88402 8.72222 10.2769 7.32933 10.2769 5.61111C10.2769 3.89289 8.88402 2.5 7.1658 2.5C5.44758 2.5 4.05469 3.89289 4.05469 5.61111C4.05469 7.32933 5.44758 8.72222 7.1658 8.72222Z" stroke="white" stroke-width="1.5" stroke-linecap="round" stroke-linejoin="round"/>
<path d="M18.0521 16.5001V14.9446C18.0516 14.2552 17.8221 13.5856 17.3998 13.0408C16.9775 12.496 16.3862 12.1069 15.7188 11.9346" stroke="white" stroke-width="1.5" stroke-linecap="round" stroke-linejoin="round"/>
<path d="M12.6094 2.60156C13.2786 2.77291 13.8717 3.16211 14.2953 3.7078C14.7189 4.2535 14.9488 4.92465 14.9488 5.61545C14.9488 6.30625 14.7189 6.9774 14.2953 7.5231C13.8717 8.06879 13.2786 8.458 12.6094 8.62934" stroke="white" stroke-width="1.5" stroke-linecap="round" stroke-linejoin="round"/>
</g>
<defs>
<clipPath id="clip0_4423_25279">
<rect width="18.6667" height="18.6667" fill="white" transform="translate(0.164062 0.166992)"/>
</clipPath>
</defs>
</svg>
