<svg width="32" height="29" viewBox="0 0 32 29" fill="none" xmlns="http://www.w3.org/2000/svg">
<path d="M25.9474 8.24314V6.9449C25.9474 5.12721 25.9474 4.21834 25.5936 3.52408C25.2825 2.91337 24.786 2.41686 24.1753 2.10571C23.4811 1.75195 22.5722 1.75195 20.7545 1.75195H6.79842C4.98071 1.75195 4.07186 1.75195 3.37759 2.10571C2.76689 2.41686 2.27038 2.91337 1.95922 3.52408C1.60547 4.21834 1.60547 5.12721 1.60547 6.9449V8.24314M1.60547 8.24314V22.5237C1.60547 24.3414 1.60547 25.2504 1.95922 25.9446C2.27038 26.5553 2.76689 27.0518 3.37759 27.3629C4.07186 27.7167 4.98071 27.7167 6.79842 27.7167H25.6228C27.4405 27.7167 28.3495 27.7167 29.0437 27.3629C29.6544 27.0518 30.1509 26.5553 30.462 25.9446C30.8158 25.2504 30.8158 24.3414 30.8158 22.5237V13.4361C30.8158 11.6184 30.8158 10.7095 30.462 10.0153C30.1509 9.40455 29.6544 8.90804 29.0437 8.59689C28.3495 8.24314 27.4405 8.24314 25.6228 8.24314H1.60547ZM30.8158 14.7343H27.5702C25.7777 14.7343 24.3246 16.1874 24.3246 17.9799C24.3246 19.7725 25.7777 21.2255 27.5702 21.2255H30.8158" stroke="#8A929A" stroke-width="2" stroke-linecap="round" stroke-linejoin="round"/>
</svg>
